<svg width="717" height="471" viewBox="0 0 717 471" fill="none" xmlns="http://www.w3.org/2000/svg">
<g id="bogeda">
<path id="Vector" d="M662.632 105.781H146.169V468.579H662.632V105.781Z" fill="#F2F2F2"/>
<path id="Vector_2" d="M319.323 244.205H189.645V470.579H319.323V244.205Z" fill="#3F3D56"/>
<path id="Vector_3" d="M248.563 257.786H213.632V290.349H248.563V257.786Z" fill="#F2F2F2"/>
<path id="Vector_4" d="M295.336 257.786H260.405V290.349H295.336V257.786Z" fill="#F2F2F2"/>
<path id="Vector_5" d="M248.563 302.19H213.632V335.938H248.563V302.19Z" fill="#F2F2F2"/>
<path id="Vector_6" d="M295.336 302.19H260.405V335.938H295.336V302.19Z" fill="#F2F2F2"/>
<path id="Vector_7" d="M302.832 380.878C307.386 380.878 311.077 377.186 311.077 372.633C311.077 368.079 307.386 364.387 302.832 364.387C298.278 364.387 294.587 368.079 294.587 372.633C294.587 377.186 298.278 380.878 302.832 380.878Z" fill="#6C63FF"/>
<path id="Vector_8" d="M619.156 222.716H362.799V437.846H619.156V222.716Z" fill="#3F3D56"/>
<path id="Vector_9" d="M716.602 174.083H92.199L133.831 87.041L143.148 67.552L155.337 42.066L164.654 22.577L175.455 0H667.407L673.786 22.577L679.295 42.066L686.499 67.552L692.008 87.041L716.602 174.083Z" fill="#3F3D56"/>
<path id="Vector_10" d="M380.789 311.916H371.794V367.386H380.789V311.916Z" fill="#6C63FF"/>
<path id="Vector_11" d="M380.789 320.162H371.794V326.908H380.789V320.162Z" fill="#F2F2F2"/>
<path id="Vector_12" d="M380.789 352.394H371.794V359.14H380.789V352.394Z" fill="#F2F2F2"/>
<path id="Vector_13" d="M407.024 311.916H385.286V367.386H407.024V311.916Z" fill="#6C63FF"/>
<path id="Vector_14" d="M407.024 320.162H385.286V326.908H407.024V320.162Z" fill="#F2F2F2"/>
<path id="Vector_15" d="M407.024 352.394H385.286V359.14H407.024V352.394Z" fill="#F2F2F2"/>
<path id="Vector_16" d="M421.266 311.916H412.271V367.386H421.266V311.916Z" fill="#6C63FF"/>
<path id="Vector_17" d="M421.266 320.162H412.271V326.908H421.266V320.162Z" fill="#F2F2F2"/>
<path id="Vector_18" d="M421.266 352.394H412.271V359.14H421.266V352.394Z" fill="#F2F2F2"/>
<path id="Vector_19" d="M434.759 311.916H425.764V367.386H434.759V311.916Z" fill="#6C63FF"/>
<path id="Vector_20" d="M434.759 320.162H425.764V326.908H434.759V320.162Z" fill="#F2F2F2"/>
<path id="Vector_21" d="M434.759 352.394H425.764V359.14H434.759V352.394Z" fill="#F2F2F2"/>
<path id="Vector_22" d="M443.427 312.113L435.01 315.285L454.575 367.189L462.992 364.017L443.427 312.113Z" fill="#6C63FF"/>
<path id="Vector_23" d="M446.335 319.828L437.918 323.001L440.298 329.313L448.714 326.141L446.335 319.828Z" fill="#F2F2F2"/>
<path id="Vector_24" d="M457.704 349.988L449.287 353.161L451.667 359.474L460.083 356.301L457.704 349.988Z" fill="#F2F2F2"/>
<path id="Vector_25" d="M610.911 311.916H589.173V367.386H610.911V311.916Z" fill="#6C63FF"/>
<path id="Vector_26" d="M610.911 320.162H589.173V326.908H610.911V320.162Z" fill="#F2F2F2"/>
<path id="Vector_27" d="M610.911 352.394H589.173V359.14H610.911V352.394Z" fill="#F2F2F2"/>
<path id="Vector_28" d="M583.926 311.916H574.931V367.386H583.926V311.916Z" fill="#6C63FF"/>
<path id="Vector_29" d="M583.926 320.162H574.931V326.908H583.926V320.162Z" fill="#F2F2F2"/>
<path id="Vector_30" d="M583.926 352.394H574.931V359.14H583.926V352.394Z" fill="#F2F2F2"/>
<path id="Vector_31" d="M570.433 311.916H561.438V367.386H570.433V311.916Z" fill="#6C63FF"/>
<path id="Vector_32" d="M570.433 320.162H561.438V326.908H570.433V320.162Z" fill="#F2F2F2"/>
<path id="Vector_33" d="M570.433 352.394H561.438V359.14H570.433V352.394Z" fill="#F2F2F2"/>
<path id="Vector_34" d="M552.77 312.112L533.205 364.016L541.622 367.189L561.187 315.285L552.77 312.112Z" fill="#6C63FF"/>
<path id="Vector_35" d="M549.862 319.828L547.482 326.141L555.899 329.313L558.279 323.001L549.862 319.828Z" fill="#F2F2F2"/>
<path id="Vector_36" d="M538.493 349.988L536.113 356.301L544.53 359.474L546.91 353.161L538.493 349.988Z" fill="#F2F2F2"/>
<path id="Vector_37" d="M619.156 367.385H362.799V372.633H619.156V367.385Z" fill="#F2F2F2"/>
<path id="Vector_38" d="M521.71 311.916H474.487V367.386H521.71V311.916Z" fill="#6C63FF"/>
<path id="Vector_39" d="M510.092 323.91H486.105V334.404H510.092V323.91Z" fill="#F2F2F2"/>
<path id="Vector_40" d="M493.226 222.716H488.729V270.689H493.226V222.716Z" fill="#F2F2F2"/>
<path id="Vector_41" d="M490.977 278.185C495.117 278.185 498.473 274.829 498.473 270.689C498.473 266.549 495.117 263.193 490.977 263.193C486.838 263.193 483.482 266.549 483.482 270.689C483.482 274.829 486.838 278.185 490.977 278.185Z" fill="#F2F2F2"/>
<path id="Vector_42" d="M679.295 42.066H155.337L164.654 22.577H673.786L679.295 42.066Z" fill="#6C63FF"/>
<path id="Vector_43" d="M692.008 87.041H133.831L143.148 67.552H686.499L692.008 87.041Z" fill="#6C63FF"/>
<g id="dollar">
<path id="Vector_44" d="M100 309.325C155.228 309.325 200 264.554 200 209.325C200 154.097 155.228 109.325 100 109.325C44.7715 109.325 0 154.097 0 209.325C0 264.554 44.7715 309.325 100 309.325Z" fill="#6C63FF"/>
<path id="Vector_45" opacity="0.1" d="M100 295.325C147.496 295.325 186 256.822 186 209.325C186 161.829 147.496 123.325 100 123.325C52.5035 123.325 14 161.829 14 209.325C14 256.822 52.5035 295.325 100 295.325Z" fill="black"/>
<path id="Vector_46" d="M95.8791 260.073V247.556C89.5517 247.433 83.006 245.201 79.188 242.103L81.806 233.8C86.3433 237.2 91.8458 239.067 97.5154 239.128C105.261 239.128 110.498 234.047 110.498 226.983C110.498 220.167 106.243 215.954 98.17 212.235C87.0425 207.278 80.1697 201.577 80.1697 190.796C80.1697 180.509 86.6062 172.701 96.6429 170.842V158.325H103.407V170.347C108.45 170.416 113.37 171.92 117.589 174.684L114.861 182.864C110.815 180.094 106.019 178.624 101.116 178.65C92.7157 178.65 89.5518 184.351 89.5518 189.308C89.5518 195.753 93.5882 198.975 103.079 203.437C114.316 208.642 119.989 215.086 119.989 226.116C119.989 235.906 113.989 245.078 102.752 247.183V260.073H95.8791Z" fill="#F2F2F2"/>
</g>
</g>
</svg>
