<?xml version="1.0" encoding="UTF-8" standalone="no"?>
<svg
   xmlns:dc="http://purl.org/dc/elements/1.1/"
   xmlns:cc="http://creativecommons.org/ns#"
   xmlns:rdf="http://www.w3.org/1999/02/22-rdf-syntax-ns#"
   xmlns:svg="http://www.w3.org/2000/svg"
   xmlns="http://www.w3.org/2000/svg"
   xmlns:sodipodi="http://sodipodi.sourceforge.net/DTD/sodipodi-0.dtd"
   xmlns:inkscape="http://www.inkscape.org/namespaces/inkscape"
   width="286.01459mm"
   height="246.22105mm"
   viewBox="0 0 286.01458 246.22104"
   version="1.1"
   id="svg8"
   sodipodi:docname="movie.svg"
   inkscape:version="1.0 (4035a4fb49, 2020-05-01)">
  <defs
     id="defs2">
    <linearGradient
       gradientUnits="userSpaceOnUse"
       y2="122.51"
       x2="501.81"
       y1="766.64001"
       x1="501.81"
       id="b40d0b21-e963-4952-8000-4d7b7531dbb4">
      <stop
         id="stop912"
         stop-opacity="0.25"
         stop-color="gray"
         offset="0" />
      <stop
         id="stop914"
         stop-opacity="0.12"
         stop-color="gray"
         offset="0.54" />
      <stop
         id="stop916"
         stop-opacity="0.1"
         stop-color="gray"
         offset="1" />
    </linearGradient>
  </defs>
  <sodipodi:namedview
     id="base"
     pagecolor="#ffffff"
     bordercolor="#666666"
     borderopacity="1.0"
     inkscape:pageopacity="0.0"
     inkscape:pageshadow="2"
     inkscape:zoom="0.35000001"
     inkscape:cx="981.5646"
     inkscape:cy="388.66665"
     inkscape:document-units="mm"
     inkscape:current-layer="layer1"
     inkscape:document-rotation="0"
     showgrid="false"
     inkscape:window-width="1366"
     inkscape:window-height="745"
     inkscape:window-x="-8"
     inkscape:window-y="-8"
     inkscape:window-maximized="1" />
  <metadata
     id="metadata5">
    <rdf:RDF>
      <cc:Work
         rdf:about="">
        <dc:format>image/svg+xml</dc:format>
        <dc:type
           rdf:resource="http://purl.org/dc/dcmitype/StillImage" />
      </cc:Work>
    </rdf:RDF>
  </metadata>
  <g
     inkscape:label="Layer 1"
     inkscape:groupmode="layer"
     id="layer1"
     transform="translate(-75.81666,-55.316054)">
    <g
       inkscape:label="Layer 1"
       id="layer1-8"
       transform="translate(-46.24539,-13.0273)">
      <path
         style="stroke-width:0.264583"
         d="M 408.07663,244.28024 H 122.06205 c 0,0 10.58333,28.7655 37.69518,18.52084 27.11186,-10.24467 43.31494,1.98437 58.19511,7.60412 14.88017,5.61975 44.63785,9.92188 52.24198,1.32292 7.60412,-8.59896 14.55208,-12.56506 41.33056,-9.26042 26.77848,3.30465 44.30977,10.24996 47.625,0.99219 3.31523,-9.25777 3.96875,-12.23433 22.81502,-10.58333 18.84627,1.651 26.11173,-8.59632 26.11173,-8.59632 z"
         fill="#2f2e41"
         id="path131" />
      <path
         style="stroke-width:0.264583"
         d="m 240.13501,152.09147 c 3.21204,5.461 3.70416,12.03325 4.78631,18.27213 1.69862,9.66787 5.02708,18.99179 6.70454,28.66496 0.58473,3.38402 0.96308,6.81566 1.89177,10.12031 1.27529,4.54025 3.55071,8.73125 5.6859,12.92489 3.63537,7.16492 6.93473,14.61559 8.29204,22.53457 0.42333,2.46856 0.0926,5.82083 -2.35215,6.35 -0.6985,0.1561 -1.48431,0.0318 -2.07962,0.42862 -0.34925,0.23019 -0.5715,0.60325 -0.85196,0.91281 -1.07421,1.18534 -2.92365,1.32292 -4.45823,0.89165 -1.53458,-0.43127 -2.87338,-1.37848 -4.29683,-2.11667 -5.6515,-2.91041 -12.35075,-2.56381 -18.69017,-2.15106 -1.16681,0.0741 -2.4765,0.2196 -3.21469,1.12977 -0.37306,0.46302 -0.52916,1.05833 -0.80698,1.5875 -0.98425,1.91823 -3.58246,2.80988 -5.53508,1.89971 -0.73025,-0.34131 -1.35731,-0.889 -2.11667,-1.16946 -2.32039,-0.86519 -4.7625,1.01071 -7.24693,1.02394 -3.57188,0.0159 -6.26005,-3.76767 -9.82928,-3.89731 -2.43416,-0.0873 -4.65931,1.57162 -7.09347,1.5875 -1.82563,0 -3.50838,-0.92075 -5.09588,-1.81769 l -10.84792,-6.12775 a 45.1485,45.1485 0 0 1 10.5119,-10.49867 c 2.98715,-2.11666 3.79412,-6.35 5.6171,-9.525 1.20386,-2.10079 2.42094,-4.23333 3.00832,-6.58019 0.42333,-1.69333 0.508,-3.45545 0.92604,-5.15143 0.57944,-2.33892 1.77271,-4.46882 2.71991,-6.68338 3.75709,-8.77358 3.63009,-18.78541 7.07232,-27.68864 0.96837,-2.50825 2.21456,-4.90802 3.07446,-7.45596 1.13241,-3.35492 1.57427,-6.91092 2.71727,-10.26054 1.143,-3.34963 3.175,-6.6384 6.41614,-8.08038 a 12.898437,12.898437 0 0 1 4.42384,-0.96044 c 3.78618,-0.24341 7.15433,0.40746 10.668,1.83621 z"
         fill="#3f3d56"
         id="path133" />
      <rect
         transform="scale(-1,1)"
         style="stroke-width:0.264583"
         x="-241.10869"
         y="107.5965"
         width="15.091833"
         height="20.124208"
         fill="#fbc661"
         id="rect135" />
      <path
         style="stroke-width:0.264583"
         d="m 226.4243,123.2069 c 0.76729,-0.11906 1.55046,0 2.32568,0 1.90765,-0.0238 2.45005,2.28071 4.3524,2.46857 2.3204,0.22754 5.53773,-1.2409 7.47713,0.0556 a 7.5115208,7.5115208 0 0 0 1.12183,0.64558 c 1.5875,0.6985 3.52689,0.43921 4.97946,1.38907 1.45256,0.94985 1.98437,2.82575 1.98437,4.56141 a 4.5984583,4.5984583 0 0 1 -0.26458,1.82827 c -0.20373,0.49477 -0.5424,0.9234 -0.74613,1.41817 -0.14287,0.34925 -0.21695,0.72231 -0.33602,1.08215 a 8.85825,8.85825 0 0 1 -1.32291,2.286 l -3.36021,4.67519 c -0.88106,1.22766 -0.52917,2.74637 -0.67204,4.25185 -0.10584,1.15623 -0.37571,2.29923 -0.37307,3.45811 0.003,1.15887 0.32015,2.38125 1.18534,3.175 q -2.9845,-0.18257 -5.95048,-0.54769 c -1.62984,-0.20108 -3.25438,-0.44186 -4.89215,-0.55827 -3.43958,-0.24342 -6.89504,0.0714 -10.31875,0.38629 0.56621,-0.70379 0.82286,-1.6854 0.96309,-2.57704 0.46566,-2.95804 0.75935,-6.05631 -0.21432,-8.88736 a 20.976167,20.976167 0 0 0 -1.09802,-2.47121 l -1.0451,-2.10344 c -1.47902,-2.97391 -2.86015,-6.02191 -3.175,-9.32921 a 5.0270833,5.0270833 0 0 1 0.29369,-2.51354 c 0.45772,-1.02393 1.44727,-1.7436 2.51354,-2.09285 a 8.8344375,8.8344375 0 0 1 3.33375,-0.29104 c 1.04246,0.0503 2.19604,-0.15082 3.2385,-0.30957 z"
         fill="#3f3d56"
         id="path137" />
      <path
         style="stroke-width:0.264583"
         d="m 237.28809,121.8152 c -0.24077,0.6297 -0.52917,1.30439 -0.34131,1.95527 0.34925,1.29116 2.13254,1.5531 2.91041,2.64583 a 0.5635625,0.5635625 0 0 1 0.11907,0.55827 0.61383333,0.61383333 0 0 1 -0.14288,0.16669 c -1.45256,1.26471 -3.55335,1.37319 -5.47952,1.35202 -2.80723,-0.0265 -5.80496,-0.26458 -8.0301,-1.96585 -0.62178,-0.47625 -1.2065,-1.27 -0.889,-1.98703 0.24606,-0.54768 0.89429,-0.75406 1.43139,-1.02393 1.20386,-0.6059 2.0664,-1.75948 2.54265,-3.02154 0.47625,-1.26207 0.59796,-2.62467 0.61912,-3.96875 a 1.1244792,1.1244792 0 0 1 0.14288,-0.66146 c 0.18521,-0.26459 0.52916,-0.30427 0.8546,-0.32544 a 25.550812,25.550812 0 0 1 5.4319,0.21696 c 0.508,0.0741 1.47637,0.14287 1.83356,0.55827 0.35719,0.41539 0.15081,0.90752 0.082,1.35996 a 20.317354,20.317354 0 0 1 -1.08479,4.14073 z"
         fill="#fbb3b2"
         id="path139" />
      <path
         style="stroke-width:0.264583"
         d="m 237.28809,121.8152 c -0.24077,0.6297 -0.52917,1.30439 -0.34131,1.95527 0.34925,1.29116 2.13254,1.5531 2.91041,2.64583 a 0.5635625,0.5635625 0 0 1 0.11907,0.55827 0.61383333,0.61383333 0 0 1 -0.14288,0.16669 c -1.45256,1.26471 -3.55335,1.37319 -5.47952,1.35202 -2.80723,-0.0265 -5.80496,-0.26458 -8.0301,-1.96585 -0.62178,-0.47625 -1.2065,-1.27 -0.889,-1.98703 0.24606,-0.54768 0.89429,-0.75406 1.43139,-1.02393 1.20386,-0.6059 2.0664,-1.75948 2.54265,-3.02154 0.47625,-1.26207 0.59796,-2.62467 0.61912,-3.96875 a 1.1244792,1.1244792 0 0 1 0.14288,-0.66146 c 0.18521,-0.26459 0.52916,-0.30427 0.8546,-0.32544 a 25.550812,25.550812 0 0 1 5.4319,0.21696 c 0.508,0.0741 1.47637,0.14287 1.83356,0.55827 0.35719,0.41539 0.15081,0.90752 0.082,1.35996 a 20.317354,20.317354 0 0 1 -1.08479,4.14073 z"
         opacity="0.05"
         id="path141" />
      <circle
         transform="scale(-1,1)"
         style="stroke-width:0.264583"
         cx="-233.87233"
         cy="112.47277"
         r="6.7759795"
         fill="#fbb3b2"
         id="circle143" />
      <path
         style="stroke-width:0.264583"
         d="m 227.41119,252.38178 a 9.3556667,9.3556667 0 0 1 1.53194,0.85196 4.3523958,4.3523958 0 0 1 -4.04283,0.3175 c -0.51329,-0.24077 -0.97367,-0.58208 -1.46579,-0.85989 1.35466,-0.42334 2.68552,-0.79111 3.97668,-0.30957 z"
         opacity="0.1"
         id="path145" />
      <path
         style="stroke-width:0.264583"
         d="m 257.76948,251.08797 c 1.14565,0.58738 2.23838,1.3044 3.42107,1.79388 -1.07421,0.64029 -2.5109,0.66939 -3.7465,0.31221 -1.53459,-0.44715 -2.87338,-1.37848 -4.29419,-2.11667 -3.10092,-1.5875 -6.51933,-2.20927 -10.01713,-2.38125 5.06942,-0.16933 10.17853,0.10054 14.63675,2.39183 z"
         opacity="0.1"
         id="path147" />
      <path
         style="stroke-width:0.264583"
         d="m 193.18734,232.63858 c 2.98714,-2.11667 3.79148,-6.35 5.6171,-9.525 1.20386,-2.1008 2.42094,-4.23334 3.00832,-6.58019 0.42333,-1.69333 0.508,-3.45546 0.92604,-5.15144 0.57679,-2.33892 1.77006,-4.46881 2.71727,-6.68337 3.75708,-8.77359 3.63273,-18.78542 7.07231,-27.68865 0.97102,-2.50825 2.21721,-4.90802 3.0771,-7.45596 1.12978,-3.35491 1.5875,-6.91091 2.71728,-10.26054 1.12977,-3.34962 3.175,-6.6384 6.41614,-8.08037 1.38377,-0.61913 2.91042,-0.8599 4.42383,-0.96044 a 23.01875,23.01875 0 0 1 3.83117,0.0661 11.8745,11.8745 0 0 0 -3.64331,0.89958 c -3.23321,1.44198 -5.27315,4.73075 -6.41615,8.08038 -1.143,3.34962 -1.5875,6.90562 -2.71727,10.26054 -0.85989,2.54794 -2.11666,4.94771 -3.07446,7.45596 -3.43958,8.90323 -3.31523,18.91506 -7.07231,27.68864 -0.94985,2.21456 -2.14312,4.34446 -2.71992,6.68338 -0.41804,1.69598 -0.5027,3.4581 -0.92604,5.15143 -0.58737,2.34686 -1.80446,4.4794 -3.00831,6.58019 -1.82298,3.175 -2.62996,7.39246 -5.6171,9.525 a 45.1485,45.1485 0 0 0 -10.51719,10.49338 l 10.84792,6.12775 a 18.7325,18.7325 0 0 0 2.84427,1.39171 8.016875,8.016875 0 0 1 -2.38125,0.42597 c -1.82298,0 -3.50573,-0.92075 -5.09323,-1.81768 l -10.84792,-6.12775 a 45.098229,45.098229 0 0 1 10.53571,-10.49867 z"
         opacity="0.1"
         id="path149" />
      <path
         style="stroke-width:0.264583"
         d="m 210.33498,249.50841 c 2.79665,0.10054 5.05355,2.4474 7.62,3.43958 a 8.6412917,8.6412917 0 0 1 -2.41035,0.44715 c -2.87337,0 -5.17525,-2.43152 -7.82373,-3.45546 a 7.7734583,7.7734583 0 0 1 2.61408,-0.43127 z"
         opacity="0.1"
         id="path151" />
      <path
         style="stroke-width:0.264583"
         d="m 234.28242,151.24745 v -4.99798 h 2.42623 c -0.12964,-0.74877 -0.56356,-3.3655 -0.47625,-4.41589 0,0 -1.12977,-3.07976 -0.20637,-5.64622 a 0.83079167,0.83079167 0 0 1 -1.02659,-0.8202 c -0.10054,-1.02659 -1.53987,-3.59305 1.23296,-4.31271 l 0.28311,-0.79375 a 1.9896667,1.9896667 0 0 1 -0.28311,-1.05834 c 0,-0.84931 0.46038,-1.53987 1.02658,-1.53987 0.56621,0 1.02659,0.69056 1.02659,1.53987 a 1.9420417,1.9420417 0 0 1 -0.34396,1.15094 l 0.14023,0.91546 c 0,0 2.87337,-0.71967 1.64042,4.10633 0,0 -0.30692,0.82021 -0.82021,0.82021 0,0 0.30691,3.70417 -0.20638,5.02709 0,0 0.20638,3.28348 -0.20373,4.00314 v 1.02659 h 2.56646 v 5.08264 c 1.32292,0.30163 2.15636,0.76465 2.15636,1.28323 0,0.90752 -2.5744,1.64307 -5.7494,1.64307 -3.175,0 -5.7494,-0.73555 -5.7494,-1.64307 0,-0.57414 1.01865,-1.07685 2.56646,-1.37054 z"
         fill="#6c63ff"
         id="path153" />
      <path
         style="stroke-width:0.264583"
         d="m 237.20871,129.15209 a 1.9976042,1.9976042 0 0 0 0.28046,1.05834 l -0.28046,0.79375 c -2.77283,0.71702 -1.33614,3.28348 -1.23295,4.31006 a 0.8334375,0.8334375 0 0 0 1.02658,0.82285 c -0.9234,2.56646 0.20637,5.64622 0.20637,5.64622 -0.0873,1.05833 0.34661,3.66447 0.47625,4.41589 h -0.92604 c -0.12964,-0.75142 -0.56621,-3.3655 -0.47889,-4.41589 0,0 -1.12713,-3.07976 -0.20373,-5.64622 a 0.8334375,0.8334375 0 0 1 -1.02659,-0.82285 c -0.10318,-1.02658 -1.53987,-3.59304 1.23032,-4.31006 l 0.2831,-0.79375 a 1.9976042,1.9976042 0 0 1 -0.2831,-1.05834 c 0,-0.84931 0.46037,-1.53987 1.02658,-1.53987 a 0.75935417,0.75935417 0 0 1 0.46302,0.16668 1.7383125,1.7383125 0 0 0 -0.56092,1.37319 z"
         opacity="0.1"
         id="path155" />
      <path
         style="stroke-width:0.264583"
         d="m 234.33269,151.19453 v -4.99533 h 0.9234 v 4.99533 c -1.54517,0.29634 -2.56646,0.79375 -2.56646,1.3679 0,0.86519 2.32833,1.57163 5.29167,1.63777 h -0.46302 c -3.175,0 -5.7494,-0.73554 -5.7494,-1.64306 -0.003,-0.56356 1.02129,-1.06627 2.56381,-1.36261 z"
         opacity="0.1"
         id="path157" />
      <path
         style="stroke-width:0.264583"
         d="m 231.58896,102.95834 c 2.11667,-0.52916 4.39209,-0.93398 6.40821,-0.12171 a 9.1625208,9.1625208 0 0 1 2.51884,1.65894 c 0.68527,0.59531 1.35202,1.25413 1.71714,2.08756 0.43656,1.00542 0.38629,2.14313 0.41275,3.2385 0.0265,1.09538 0.17198,2.27013 0.89958,3.08769 0.28311,0.3175 0.65088,0.57679 0.83344,0.96308 0.26459,0.52917 0.09,1.18269 -0.16933,1.7198 -0.25929,0.5371 -0.6059,1.0451 -0.72496,1.63248 -0.1614,0.81227 0.15346,1.65364 0.6006,2.35214 0.44715,0.6985 1.02923,1.30175 1.49225,1.99231 0.46303,0.69057 0.82286,1.68011 0.40217,2.43946 -0.26458,0.48948 -0.80962,0.79375 -1.08479,1.27529 -0.13229,0.23019 -0.19844,0.49742 -0.33867,0.72232 -0.38893,0.61648 -1.2065,0.76729 -1.92881,0.84137 -1.15623,0.12171 -2.44475,0.15875 -3.34169,-0.58208 -0.61648,-0.508 -0.92868,-1.29911 -1.0795,-2.08492 -0.15081,-0.78581 -0.1561,-1.5875 -0.29633,-2.38125 -0.10054,-0.56621 -0.26458,-1.13242 -0.21696,-1.70392 0.0661,-0.762 0.508,-1.43139 0.85461,-2.11666 a 5.7837917,5.7837917 0 0 0 0.70379,-3.11415 c -0.10319,-1.07421 -0.6694,-2.13519 -1.61661,-2.64583 -0.66675,-0.36777 -1.4896,-0.46038 -2.05581,-0.96838 -0.89694,-0.79375 -0.762,-2.20133 -0.9234,-3.38931 a 1.6166042,1.6166042 0 0 0 -0.25135,-0.74348 c -0.28046,-0.381 -0.79375,-0.48419 -1.27,-0.52916 -1.1086,-0.0952 -2.286,0.0238 -3.21469,0.64029 a 4.1566042,4.1566042 0 0 0 -1.66687,2.56116 7.33425,7.33425 0 0 0 0.0556,3.10886 c -0.037,-0.44715 -0.72496,-0.56886 -1.04246,-0.26459 -0.3175,0.30428 -0.33337,0.82815 -0.24341,1.26736 0.37041,1.85208 2.04787,3.175 2.61143,4.97417 a 4.4979167,4.4979167 0 0 1 -0.96837,4.3127 1.2250208,1.2250208 0 0 1 -0.52917,0.37571 2.2648333,2.2648333 0 0 1 -0.64294,0.0318 c -0.84402,0 -1.56898,0.57944 -2.21191,1.12977 -0.64294,0.55034 -1.32292,1.14036 -2.18017,1.2065 -0.85725,0.0662 -1.78065,-0.70643 -1.52665,-1.51341 a 1.635125,1.635125 0 0 1 0.43128,-0.62971 c 0.52916,-0.54504 1.22237,-0.97367 1.5875,-1.64042 0.63764,-1.11919 0.2487,-2.51883 -0.15346,-3.74385 -0.40217,-1.22502 -0.79375,-2.62732 -0.14023,-3.74121 0.30691,-0.52917 0.82021,-0.92604 1.05833,-1.48696 a 2.7992917,2.7992917 0 0 0 0.20373,-1.02129 c 0.0556,-1.28058 -0.26458,-2.58498 0,-3.83381 a 4.683125,4.683125 0 0 1 2.20398,-2.87867 6.3685208,6.3685208 0 0 1 1.76742,-0.73819 c 0.24077,-0.0609 0.60589,-0.0476 0.77523,-0.22754 0.16933,-0.17992 0.22754,-0.50006 0.44185,-0.70115 0.51858,-0.4445 1.2065,-0.66145 1.83885,-0.81756 z"
         fill="#fbc661"
         id="path159" />
      <path
         style="stroke-width:0.264583"
         d="m 227.26567,111.2107 a 0.714375,0.714375 0 0 1 0.84402,-0.0688 8.6730417,8.6730417 0 0 0 0.18257,1.67217 c -0.11642,-0.37306 -0.73025,-0.45773 -1.02659,-0.16669 a 0.89429167,0.89429167 0 0 0 -0.15081,0.19844 3.5612917,3.5612917 0 0 1 -0.0926,-0.36777 c -0.09,-0.43921 -0.0767,-0.9525 0.24341,-1.26735 z"
         opacity="0.05"
         id="path161" />
      <path
         style="stroke-width:0.264583"
         d="m 224.58809,110.7318 a 3.0929792,3.0929792 0 0 1 -0.0238,0.31485 13.051896,13.051896 0 0 1 -0.0503,-2.17752 16.864542,16.864542 0 0 1 0.0741,1.86267 z"
         opacity="0.05"
         id="path163" />
      <path
         style="stroke-width:0.264583"
         d="m 228.29226,112.81407 a 0.50535417,0.50535417 0 0 1 0.0159,0.0873 z"
         opacity="0.05"
         id="path165" />
      <path
         style="stroke-width:0.264583"
         d="m 223.88165,120.01338 a 11.234208,11.234208 0 0 0 -0.42333,-1.5875 c -0.32015,-0.96837 -0.62706,-2.05052 -0.41804,-3.0136 a 10.554229,10.554229 0 0 0 0.41804,1.5875 c 0.32014,0.95779 0.63235,2.04523 0.42333,3.0136 z"
         opacity="0.05"
         id="path167" />
      <path
         style="stroke-width:0.264583"
         d="m 228.25257,109.79253 a 5.7441042,5.7441042 0 0 0 -0.10584,0.62706 6.4346667,6.4346667 0 0 1 0.10584,-2.06375 4.1539583,4.1539583 0 0 1 1.66687,-2.56381 c 0.92869,-0.61383 2.11667,-0.73554 3.21469,-0.64029 0.47096,0.0423 0.98954,0.14552 1.27,0.52916 a 1.6060208,1.6060208 0 0 1 0.25135,0.74084 c 0.1614,1.19062 0.0265,2.59027 0.9234,3.38931 0.56621,0.51065 1.38906,0.60325 2.05581,0.97102 0.94721,0.52917 1.51342,1.5875 1.61661,2.64583 a 4.6116875,4.6116875 0 0 1 -0.0423,1.14565 3.3152292,3.3152292 0 0 0 -1.5875,-2.36537 c -0.66675,-0.36778 -1.4896,-0.46038 -2.05581,-0.96838 -0.89694,-0.79375 -0.762,-2.20133 -0.92339,-3.38931 a 1.6166042,1.6166042 0 0 0 -0.25136,-0.74348 c -0.28046,-0.381 -0.79375,-0.48419 -1.27,-0.52917 -1.1086,-0.0952 -2.286,0.0238 -3.21469,0.64029 a 4.1566042,4.1566042 0 0 0 -1.65364,2.5744 z"
         opacity="0.05"
         id="path169" />
      <path
         style="stroke-width:0.264583"
         d="m 221.84171,123.98743 a 1.6060208,1.6060208 0 0 0 1.26471,0.52916 c 0.84402,-0.0661 1.53988,-0.65616 2.18017,-1.2065 0.64029,-0.55033 1.36789,-1.11919 2.21192,-1.12977 a 2.365375,2.365375 0 0 0 0.64293,-0.0318 1.2488333,1.2488333 0 0 0 0.52917,-0.37571 4.4344167,4.4344167 0 0 0 1.10596,-2.30452 4.4979167,4.4979167 0 0 1 -1.10596,3.74121 1.2250208,1.2250208 0 0 1 -0.52917,0.37571 2.2648333,2.2648333 0 0 1 -0.64293,0.0317 c -0.84403,0 -1.56898,0.57944 -2.21192,1.12977 -0.64294,0.55033 -1.32292,1.14035 -2.18017,1.2065 -0.85725,0.0662 -1.78064,-0.70644 -1.52664,-1.51342 a 1.3070417,1.3070417 0 0 1 0.26193,-0.45243 z"
         opacity="0.05"
         id="path171" />
      <path
         style="stroke-width:0.264583"
         d="m 243.54813,116.98126 a 2.5638125,2.5638125 0 0 1 -0.0635,-1.19327 c 0.11906,-0.58473 0.46831,-1.09273 0.72496,-1.62984 q 0.0794,-0.16404 0.14287,-0.33337 c 0,0.0159 0.0185,0.0317 0.0265,0.0503 0.26459,0.52917 0.09,1.18269 -0.16933,1.71979 a 11.059583,11.059583 0 0 0 -0.66146,1.38642 z"
         opacity="0.05"
         id="path173" />
      <path
         style="stroke-width:0.264583"
         d="m 237.76963,119.66413 c 0.045,0.23548 0.0979,0.46832 0.14023,0.7038 0.14023,0.79375 0.14817,1.5875 0.29633,2.38125 0.14817,0.79375 0.46302,1.5875 1.0795,2.08491 0.89694,0.73819 2.18546,0.70379 3.34169,0.58209 0.72231,-0.0741 1.53988,-0.22755 1.92881,-0.84138 0.14023,-0.22754 0.20638,-0.49212 0.33867,-0.72496 0.26458,-0.48683 0.81227,-0.79375 1.08479,-1.27529 0.0185,-0.0318 0.0344,-0.0688 0.0503,-0.10319 a 1.8838333,1.8838333 0 0 1 -0.0503,1.54252 c -0.26458,0.48948 -0.80962,0.79375 -1.08479,1.2753 -0.13229,0.23018 -0.19844,0.49741 -0.33867,0.72231 -0.38893,0.61648 -1.2065,0.76729 -1.92881,0.84137 -1.15623,0.12171 -2.44475,0.15875 -3.34169,-0.58208 -0.61648,-0.508 -0.92868,-1.2991 -1.0795,-2.08492 -0.15081,-0.78581 -0.1561,-1.5875 -0.29633,-2.38125 -0.10054,-0.56621 -0.26458,-1.13241 -0.21696,-1.70391 a 2.6458333,2.6458333 0 0 1 0.0767,-0.43657 z"
         opacity="0.05"
         id="path175" />
      <path
         style="stroke-width:0.264583"
         d="m 247.62801,129.7183 c 0,0 1.32291,0.71967 2.15635,7.39246 0.83344,6.6728 1.23296,13.75834 1.23296,13.75834 0,0 0,5.95577 -5.64621,6.1595 0,0 -2.25954,0.41275 -2.97921,0.92604 -0.71967,0.51329 -12.01208,-2.97921 -6.67279,-3.70417 5.33929,-0.72496 7.28927,-0.41275 7.28927,-0.41275 0,0 2.87602,-1.85208 2.87602,-3.59304 0,-1.74096 -2.87602,-12.09675 -2.87602,-12.09675 z"
         fill="#fbb3b2"
         id="path177" />
      <path
         style="stroke-width:0.264583"
         d="m 247.64917,134.95176 c -0.14287,0.34925 -0.21696,0.72231 -0.33602,1.08215 a 8.8132708,8.8132708 0 0 1 -1.32292,2.286 c -0.67204,0.93662 -1.75154,3.14325 -2.42093,4.07987 a 15.647458,15.647458 0 0 0 -1.74625,-3.9026 l 5.79966,-9.39271 c 0,0 0.45509,0.24341 0.99748,1.77271 0.0291,0.27781 0.045,0.55562 0.0476,0.82814 a 4.5984583,4.5984583 0 0 1 -0.26459,1.82827 c -0.21166,0.49477 -0.55033,0.9234 -0.75406,1.41817 z"
         fill="#3f3d56"
         id="path179" />
      <path
         style="stroke-width:0.264583"
         d="m 227.76309,115.92293 a 0.30691667,0.30691667 0 0 1 0.20373,-0.2884 v -0.3466 a 0.30427083,0.30427083 0 0 1 -0.20373,-0.2884 0.3095625,0.3095625 0 1 1 0.4101,0.2884 v 0.3466 a 0.30691667,0.30691667 0 0 1 0,0.57944 v 0.34396 a 0.30691667,0.30691667 0 0 1 0,0.57943 v 0.34661 a 0.30691667,0.30691667 0 1 1 -0.20637,0 v -0.34661 a 0.30691667,0.30691667 0 0 1 0,-0.57943 v -0.34396 a 0.30691667,0.30691667 0 0 1 -0.20373,-0.29104 z"
         fill="#eeeff3"
         id="path181" />
      <path
         style="stroke-width:0.264583"
         d="m 217.85444,125.61197 a 28.704646,28.704646 0 0 0 -3.38666,8.52223 c -1.02659,4.826 -1.74625,5.85258 -1.74625,5.85258 0,0 -4.51909,11.4988 0.51329,12.21846 5.03237,0.71967 13.85887,0 13.85887,0 0,0 17.86467,3.07975 11.60198,-1.02658 -6.26269,-4.10633 -11.19716,-3.59569 -11.19716,-3.59569 0,0 -7.49565,-0.20373 -8.52223,-0.92339 l -1.94998,-0.20373 4.61962,-13.14186 z"
         fill="#fbb3b2"
         id="path183" />
      <path
         style="stroke-width:0.264583"
         d="m 222.62753,133.15788 -2.15371,5.02709 c -1.45521,-2.93423 -3.13002,-6.52992 -3.43959,-9.78959 a 12.919604,12.919604 0 0 1 0.0397,-1.80975 5.2255208,5.2255208 0 0 1 0.9234,-1.33614 z"
         fill="#3f3d56"
         id="path185" />
      <path
         style="stroke-width:0.264583"
         d="m 292.99082,191.0646 c 0,0 5.19377,10.81087 1.5875,14.62616 -3.60627,3.8153 -6.04309,-15.0495 -6.04309,-15.0495 z"
         fill="#a0616a"
         id="path187" />
      <path
         style="stroke-width:0.264583"
         d="m 318.11301,241.62118 5.82083,7.31308 c 0,0 11.76602,4.66461 0.95514,5.29167 0,0 -5.29166,-0.42333 -6.35,-1.16681 -1.05833,-0.74348 -1.69597,-2.22515 -3.81529,-1.37584 -2.11931,0.84932 -4.55877,-0.84931 -4.55877,-0.84931 0,0 -0.3175,-8.26823 1.80181,-9.22073 2.11932,-0.9525 6.14628,0.008 6.14628,0.008 z"
         fill="#36344a"
         id="path189" />
      <path
         style="stroke-width:0.264583"
         d="m 296.38278,244.26966 1.37848,6.04308 c 0,0 3.07445,7.20725 -1.37848,6.14627 -4.45294,-1.06098 -6.67809,-2.22514 -7.10142,-4.34445 -0.42333,-2.11932 -1.5875,-4.45294 -1.5875,-4.45294 0,0 1.27265,-3.28613 2.43681,-3.39196 1.16417,-0.10583 6.25211,0 6.25211,0 z"
         fill="#36344a"
         id="path191" />
      <path
         style="stroke-width:0.264583"
         d="m 324.79109,171.23672 c 0,0 3.81529,26.19375 1.16417,40.48125 -2.65113,14.2875 -5.82084,28.93748 -5.82084,28.93748 0,0 3.70417,8.46667 -8.99583,2.86279 0,0 0.84667,-20.98939 3.39196,-29.14914 2.54529,-8.15975 -1.30704,-19.177 -2.36538,-19.4945 0,0 -4.23333,21.30689 -8.37406,28.31041 -4.14073,7.00352 -6.4426,23.31244 -6.4426,23.31244 0,0 -8.90588,1.16417 -8.80005,-1.16681 0.10584,-2.33098 1.69598,-22.04773 6.87917,-29.04331 0,0 4.45294,-11.66019 1.5875,-23.74371 -2.86544,-12.08352 3.07446,-16.21896 3.07446,-16.21896 l 9.42975,-11.12838 9.43239,-2.11666 z"
         fill="#3f3d56"
         id="path193" />
      <path
         style="stroke-width:0.264583"
         d="m 296.81934,126.10938 a 3.0030208,3.0030208 0 0 0 0.4736,0.9578 2.7410833,2.7410833 0 0 0 0.77259,0.57943 14.816667,14.816667 0 0 0 2.93952,1.26207 c 0.26458,0.52916 -0.16404,1.12448 -0.5715,1.5531 l -1.19592,1.26471 c -0.6985,0.73554 -1.397,1.47108 -2.15106,2.14842 a 18.721917,18.721917 0 0 1 -4.90273,3.175 c -0.93663,0.41539 -2.14577,0.71172 -2.89719,0.0159 -0.75142,-0.69585 -0.56356,-1.91823 -1.01864,-2.82575 a 0.51064583,0.51064583 0 0 1 0.0873,-0.80962 c 0.61383,-0.6059 0.73819,-1.56369 0.60854,-2.41565 -0.12965,-0.85196 -0.47625,-1.65629 -0.67469,-2.49502 -0.19844,-0.83873 -0.23548,-1.77536 0.21167,-2.51354 a 3.476625,3.476625 0 0 1 1.00012,-0.98425 9.2604167,9.2604167 0 0 1 2.8628,-1.36525 c 0.52916,-0.14552 1.05833,-0.24342 1.5875,-0.39952 0.32808,-0.10055 1.21708,-0.71438 1.49754,-0.66411 0.57679,0.0953 1.16681,2.89983 1.37054,3.51631 z"
         fill="#a0616a"
         id="path195" />
      <path
         style="stroke-width:0.264583"
         d="m 296.81934,126.10938 a 3.0030208,3.0030208 0 0 0 0.4736,0.9578 2.7410833,2.7410833 0 0 0 0.77259,0.57943 14.816667,14.816667 0 0 0 2.93952,1.26207 c 0.26458,0.52916 -0.16404,1.12448 -0.5715,1.5531 l -1.19592,1.26471 c -0.6985,0.73554 -1.397,1.47108 -2.15106,2.14842 a 18.721917,18.721917 0 0 1 -4.90273,3.175 c -0.93663,0.41539 -2.14577,0.71172 -2.89719,0.0159 -0.75142,-0.69585 -0.56356,-1.91823 -1.01864,-2.82575 a 0.51064583,0.51064583 0 0 1 0.0873,-0.80962 c 0.61383,-0.6059 0.73819,-1.56369 0.60854,-2.41565 -0.12965,-0.85196 -0.47625,-1.65629 -0.67469,-2.49502 -0.19844,-0.83873 -0.23548,-1.77536 0.21167,-2.51354 a 3.476625,3.476625 0 0 1 1.00012,-0.98425 9.2604167,9.2604167 0 0 1 2.8628,-1.36525 c 0.52916,-0.14552 1.05833,-0.24342 1.5875,-0.39952 0.32808,-0.10055 1.21708,-0.71438 1.49754,-0.66411 0.57679,0.0953 1.16681,2.89983 1.37054,3.51631 z"
         opacity="0.1"
         id="path197" />
      <path
         style="stroke-width:0.264583"
         d="m 298.00732,128.01174 c 0.0132,-0.20902 0.037,-0.45244 0.21431,-0.56621 a 0.5953125,0.5953125 0 0 1 0.33867,-0.0714 c 2.50296,0 4.53231,1.9685 6.10658,3.91054 3.31788,4.08782 5.9346,8.70215 8.20208,13.45672 1.39436,2.92893 2.68817,6.223 1.79123,9.34243 a 9.5911458,9.5911458 0 0 1 -1.25148,2.60086 14.237229,14.237229 0 0 1 -2.70933,3.05064 3.0400625,3.0400625 0 0 1 -1.40758,0.7673 c -0.79375,0.127 -1.54782,-0.30957 -2.22515,-0.73025 q -2.03994,-1.27 -4.06135,-2.56646 c -2.18811,-1.40229 -4.37621,-2.8284 -6.30502,-4.56936 -1.92882,-1.74095 -3.60363,-3.82058 -4.55348,-6.23887 -0.40482,-1.02658 -0.67469,-2.11667 -1.12977,-3.1115 -0.69321,-1.53194 -1.8124,-2.88396 -2.20927,-4.51909 -0.18786,-0.78052 -0.20373,-1.5875 -0.40482,-2.36802 -0.15875,-0.62177 -0.43391,-1.20915 -0.56621,-1.83621 -0.13229,-0.62706 -0.10054,-1.32291 0.29898,-1.83621 0.67205,-0.85195 1.97909,-0.72495 3.04271,-0.50535 1.38642,0.28575 3.85763,0.98954 5.1779,0.15081 1.12977,-0.72231 1.57162,-3.13266 1.651,-4.36033 z"
         fill="#eeeff3"
         id="path199" />
      <path
         style="stroke-width:0.264583"
         d="m 298.71376,133.07851 1.48431,0.10583 1.05833,-0.42598 -0.84931,-2.54264 c 0,0 -2.98979,0.33866 -3.29671,1.28058 0,0 -0.22225,0.64823 -0.58208,0.74348 -0.35984,0.0953 -1.85209,-0.11642 -2.16165,0.62442 -0.30956,0.74083 -0.21167,4.7625 1.80181,4.23333 l 0.9525,-2.54529 0.42598,-0.635 c 0,0 1.27265,-0.20373 1.16682,-0.83873 z"
         fill="#3f3d56"
         id="path201" />
      <path
         style="stroke-width:0.264583"
         d="m 310.90576,156.71639 c 0,0 -3.28613,-21.6244 -13.56784,-29.36876 0,0 -0.10583,-2.01348 1.69598,-1.80181 1.80181,0.21167 9.32656,-1.27264 9.32656,-1.27264 l 7.10142,13.78214 c 0,0 1.5875,12.82436 2.75696,14.94367 1.16946,2.11932 8.47989,18.97592 8.47989,18.97592 0,0 -4.13543,13.88533 -10.2817,-4.7625 0,0 4.7625,15.15798 -8.69157,16.64229 -13.45406,1.48431 -11.87185,-0.84931 -11.87185,-0.84931 l -1.5875,-11.02254 v -8.27088 l -2.96863,-5.82083 -12.08352,-15.36965 c 0,0 8.20209,-11.35592 9.76842,-10.34256 -0.003,-0.0106 10.15735,16.05756 21.92338,24.53746 z"
         fill="#3f3d56"
         id="path203" />
      <path
         style="stroke-width:0.264583"
         d="m 306.77032,125.12778 1.5875,-0.84931 c 0,0 4.87627,1.80181 6.57225,8.80004 0,0 4.13279,2.96598 6.87916,5.19377 0,0 3.70417,-6.87917 3.70417,-9.22337 0,0 6.14892,4.13543 7.5274,3.07445 0,0 -3.70417,17.06563 -10.70769,15.79299 -7.00352,-1.27265 -9.63877,-5.40544 -9.63877,-5.40544 z"
         fill="#3f3d56"
         id="path205" />
      <path
         style="stroke-width:0.264583"
         d="m 283.23828,143.14856 -4.02696,-0.63765 c 0,0 -2.54529,3.39196 2.01348,8.37406 l 2.75696,16.85396 c 0,0 -0.3175,5.6171 0.635,9.85838 0.9525,4.24127 2.43945,17.27729 2.43945,17.27729 0,0 4.87363,-1.80182 7.52475,-1.48432 l -4.02695,-39.10277 z"
         fill="#3f3d56"
         id="path207" />
      <path
         style="stroke-width:0.264583"
         d="m 325.74359,130.21043 c 0,0 2.22779,-13.35617 6.04308,-8.37407 3.81529,4.98211 -0.42333,11.87186 -0.42333,11.87186 z"
         fill="#a0616a"
         id="path209" />
      <circle
         transform="scale(-1,1)"
         style="stroke-width:0.264583"
         cx="-288.69662"
         cy="122.32056"
         r="8.5857296"
         fill="#a0616a"
         id="circle211" />
      <path
         style="stroke-width:0.264583"
         d="m 281.83334,113.05749 a 6.06425,6.06425 0 0 0 0.52917,-0.77523 c 0.51593,-0.75671 1.32291,-1.25148 2.11666,-1.69598 1.45256,-0.79375 3.10886,-1.53988 4.72546,-1.15358 1.11919,0.26458 2.06904,1.05833 3.19617,1.28587 1.12712,0.22754 2.46591,-0.0238 3.22527,0.82286 0.75935,0.84666 0.42333,2.18016 1.07685,3.05593 0.36248,0.48419 1.03452,0.92869 0.85196,1.50548 -0.0767,0.24342 -0.30162,0.4154 -0.40481,0.65088 -0.18256,0.41275 0.0423,0.88635 0.0529,1.33879 0.0132,0.66939 -0.4445,1.24354 -0.76729,1.83092 -0.32279,0.58737 -0.49741,1.40758 0,1.86795 a 25.929167,25.929167 0 0 0 -5.49275,-3.36814 1.6245417,1.6245417 0 0 0 0.20638,0.77523 25.564042,25.564042 0 0 1 -3.15119,-0.6694 l 0.54504,1.04511 -2.33891,-1.0213 c -0.63236,-0.27781 -1.42611,-0.52916 -1.96586,-0.10583 a 1.778,1.778 0 0 0 -0.50271,0.87577 11.625792,11.625792 0 0 0 -0.54504,2.95011 c -0.0582,1.13241 0,2.38125 -0.73289,3.24643 a 2.2039792,2.2039792 0 0 1 -3.21998,-0.0212 c -0.20638,-0.79375 0.10318,-1.61396 0.11906,-2.42888 0.0238,-1.18798 -0.57415,-2.30452 -0.68263,-3.48721 -0.14023,-1.49489 0.74348,-2.38125 1.14565,-3.70416 0.1561,-0.508 0.0609,-1.10861 0.35983,-1.5875 0.38629,-0.59267 1.17475,-0.72496 1.65365,-1.23296 z"
         fill="#3f3d56"
         id="path213" />
      <path
         style="stroke-width:0.264583"
         d="m 331.73111,137.27216 -3.06123,-5.14086 2.49767,-1.48696 c -0.59267,-0.69321 -2.64584,-3.11679 -3.19352,-4.24921 0,0 -3.048,-2.4765 -3.66977,-5.68325 0,0 -0.8255,0.77788 -1.56105,-0.21695 -0.73554,-0.99484 -3.78354,-2.75167 -1.37318,-5.18848 l -0.19315,-0.9869 a 2.38125,2.38125 0 0 1 -0.93927,-0.91546 c -0.52917,-0.87577 -0.46831,-1.85208 0.11377,-2.21191 0.58208,-0.35984 1.47902,0.0794 2.00025,0.95514 a 2.3309792,2.3309792 0 0 1 0.34925,1.39171 l 0.69585,0.84667 c 0,0 2.51884,-2.50032 4.20688,3.21733 0,0 0.18521,1.03452 -0.34396,1.34937 0,0 2.58233,3.61157 2.87073,5.29167 0,0 2.2225,3.25438 2.24102,4.23333 l 0.62971,1.05834 2.64583,-1.57163 3.1115,5.23082 c 1.53723,-0.49477 2.68552,-0.52917 3.00302,0 0.55563,0.93398 -1.64041,3.2676 -4.90802,5.21229 -3.2676,1.94469 -6.36323,2.76225 -6.91885,1.83092 -0.35719,-0.57415 0.38629,-1.71715 1.79652,-2.96598 z"
         fill="#6c63ff"
         id="path215" />
      <path
         style="stroke-width:0.264583"
         d="m 321.21128,112.74793 a 2.4024167,2.4024167 0 0 0 0.93662,0.9181 l 0.19579,0.98425 c -2.413,2.43681 0.63765,4.19629 1.37319,5.19112 a 0.99483333,0.99483333 0 0 0 1.5584,0.21432 c 0.62177,3.20675 3.66977,5.68325 3.66977,5.68325 0.55298,1.13506 2.60085,3.55864 3.19352,4.24921 l -0.94986,0.5662 c -0.59266,-0.69056 -2.64583,-3.11679 -3.19352,-4.2492 0,0 -3.048,-2.4765 -3.66977,-5.68325 0,0 -0.8255,0.77787 -1.56104,-0.21696 -0.73554,-0.99484 -3.78354,-2.75167 -1.37319,-5.18848 l -0.19314,-0.9869 a 2.38125,2.38125 0 0 1 -0.93663,-0.91546 c -0.52916,-0.87312 -0.47096,-1.85208 0.11113,-2.21191 a 0.92075,0.92075 0 0 1 0.57679,-0.11377 2.079625,2.079625 0 0 0 0.26194,1.75948 z"
         opacity="0.1"
         id="path217" />
      <path
         style="stroke-width:0.264583"
         d="m 331.74434,137.18749 -3.06123,-5.14086 0.94456,-0.5662 3.06123,5.14085 c -1.41023,1.25148 -2.15106,2.38125 -1.80181,2.97921 0.52917,0.88636 3.35756,0.18785 6.4426,-1.55311 -0.1561,0.0952 -0.31221,0.19315 -0.4736,0.2884 -3.26496,1.94469 -6.36323,2.7649 -6.91886,1.83092 -0.33602,-0.58738 0.40482,-1.73038 1.80711,-2.97921 z"
         opacity="0.1"
         id="path219" />
    </g>
  </g>
</svg>
