<svg width="790" height="731" viewBox="0 0 790 731" fill="none" xmlns="http://www.w3.org/2000/svg">
<g id="chatting 1" clip-path="url(#clip0)">
<g id="Group" opacity="0.5">
<path id="Vector" opacity="0.5" d="M551.67 43.99L219.17 44.8C217.375 44.8039 215.599 45.1615 213.943 45.8522C212.286 46.543 210.782 47.5533 209.516 48.8256C208.25 50.0979 207.248 51.6072 206.565 53.2672C205.883 54.9271 205.535 56.7053 205.54 58.5L207.05 680.39C207.054 682.185 207.411 683.961 208.102 685.617C208.793 687.274 209.803 688.778 211.076 690.044C212.348 691.31 213.857 692.312 215.517 692.995C217.177 693.677 218.955 694.025 220.75 694.02L553.25 693.21C555.046 693.206 556.823 692.848 558.48 692.157C560.137 691.465 561.641 690.454 562.907 689.181C564.173 687.907 565.176 686.397 565.857 684.736C566.539 683.075 566.887 681.296 566.88 679.5L565.37 57.61C565.365 55.8161 565.006 54.0409 564.315 52.3856C563.624 50.7303 562.613 49.2273 561.341 47.9626C560.069 46.6979 558.56 45.6961 556.901 45.0145C555.241 44.3328 553.464 43.9847 551.67 43.99V43.99Z" fill="url(#paint0_linear)"/>
</g>
<path id="Vector_2" d="M546.853 52.4806L224.024 53.2694C216.491 53.2878 210.399 59.4096 210.418 66.9427L211.895 671.611C211.914 679.144 218.035 685.236 225.569 685.218L548.398 684.429C555.931 684.41 562.023 678.289 562.004 670.755L560.527 66.0872C560.508 58.5541 554.387 52.4622 546.853 52.4806Z" fill="white"/>
<path id="&#60;Path&#62;" opacity="0.4" d="M473.43 68.5C472.434 75.203 469.073 81.3285 463.954 85.7688C458.835 90.2092 452.296 92.6713 445.52 92.71L324.59 93C317.819 92.9879 311.275 90.5552 306.14 86.1411C301.006 81.7271 297.618 75.6227 296.59 68.93L232.54 69.09C230.793 69.0939 229.065 69.4419 227.453 70.1139C225.84 70.7859 224.376 71.7689 223.144 73.0067C221.912 74.2445 220.936 75.7129 220.271 77.328C219.606 78.9432 219.266 80.6734 219.27 82.42L220.66 656.09C220.664 657.837 221.012 659.567 221.685 661.18C222.357 662.793 223.341 664.257 224.58 665.489C225.819 666.722 227.289 667.698 228.905 668.362C230.521 669.026 232.253 669.365 234 669.36L540 668.62C541.747 668.616 543.475 668.268 545.087 667.596C546.7 666.924 548.164 665.941 549.396 664.703C550.628 663.466 551.604 661.997 552.269 660.382C552.934 658.767 553.274 657.037 553.27 655.29L551.88 81.62C551.876 79.8734 551.528 78.1447 550.856 76.5326C550.184 74.9205 549.201 73.4565 547.963 72.2243C546.726 70.992 545.257 70.0157 543.642 69.3509C542.027 68.6862 540.297 68.3461 538.55 68.35L473.43 68.5Z" fill="#6C63FF"/>
<path id="Vector_3" d="M419.303 75.7709L345.292 76.8818C344.187 76.8984 343.305 77.8072 343.322 78.9116L343.335 79.7915C343.352 80.896 344.26 81.7779 345.365 81.7613L419.377 80.6503C420.481 80.6337 421.363 79.725 421.346 78.6205L421.333 77.7406C421.317 76.6362 420.408 75.7543 419.303 75.7709Z" fill="#DBDBDB"/>
<path id="Vector_4" d="M437.942 80.3618C439.56 80.3375 440.852 79.0062 440.828 77.3882C440.803 75.7701 439.472 74.4782 437.854 74.5025C436.236 74.5268 434.944 75.8581 434.968 77.4761C434.992 79.0941 436.324 80.3861 437.942 80.3618Z" fill="#DBDBDB"/>
<g id="Group_2" opacity="0.5">
<path id="Vector_5" opacity="0.5" d="M427.07 504.63C427.076 487.563 422.663 470.785 414.261 455.929C405.858 441.073 393.752 428.646 379.122 419.858C364.491 411.069 347.834 406.218 330.773 405.778C313.711 405.337 296.826 409.321 281.761 417.343C266.696 425.364 253.965 437.15 244.807 451.552C235.648 465.954 230.375 482.482 229.5 499.526C228.625 516.571 232.178 533.552 239.813 548.816C247.449 564.081 258.906 577.108 273.07 586.63L273.13 587.07C276.359 590.164 280.169 592.587 284.34 594.2L284.47 593.76C289.1 597.76 308.59 604.09 330.98 604.03H331.47C345.65 604.03 361.05 601.53 374.59 594.2C374.59 594.2 374.71 593.94 374.89 593.45C378.32 591.839 381.467 589.684 384.21 587.07C384.263 586.69 384.317 586.317 384.37 585.95C397.543 576.869 408.313 564.723 415.751 550.557C423.189 536.391 427.074 520.63 427.07 504.63V504.63Z" fill="url(#paint1_linear)"/>
</g>
<path id="Vector_6" d="M328.21 600.53C381.169 600.53 424.1 557.599 424.1 504.64C424.1 451.681 381.169 408.75 328.21 408.75C275.251 408.75 232.32 451.681 232.32 504.64C232.32 557.599 275.251 600.53 328.21 600.53Z" fill="#F5F5F5"/>
<path id="Vector_7" d="M291.58 544.07C291.58 544.07 268.73 545.94 274.78 587.56C277.909 590.569 281.603 592.928 285.65 594.5L298.5 551.01L291.58 544.07Z" fill="#FDA57D"/>
<path id="Vector_8" d="M365.72 544.07C365.72 544.07 388.57 545.94 382.52 587.56C379.391 590.569 375.697 592.928 371.65 594.5L358.8 550.99L365.72 544.07Z" fill="#FDA57D"/>
<path id="Vector_9" d="M292.57 475.86C292.57 475.86 281.7 507.5 275.77 504.5C275.77 504.5 332.99 553.93 383.52 504.5C383.52 504.5 374.62 488.68 361.77 475.83L292.57 475.86Z" fill="#333333"/>
<path id="Vector_10" d="M329.25 515.4C352.728 515.4 371.76 496.368 371.76 472.89C371.76 449.412 352.728 430.38 329.25 430.38C305.772 430.38 286.74 449.412 286.74 472.89C286.74 496.368 305.772 515.4 329.25 515.4Z" fill="#333333"/>
<path id="Vector_11" opacity="0.1" d="M365.28 544.07H291.15L284.23 573.73C284.23 573.73 280.17 587.46 285.23 593.5C290.29 599.54 337.51 613.27 372.23 594.5C375.258 586.595 375.61 577.914 373.23 569.79C369.23 555.95 372.23 568.79 372.23 568.79L365.28 544.07Z" fill="black"/>
<path id="Vector_12" opacity="0.1" d="M366.27 544.07H292.13L285.21 573.73C285.21 573.73 281.15 587.46 286.21 593.5C291.27 599.54 338.49 613.27 373.21 594.5C376.238 586.595 376.59 577.914 374.21 569.79C370.21 555.95 373.21 568.79 373.21 568.79L366.27 544.07Z" fill="black"/>
<path id="Vector_13" d="M365.72 544.07H291.58L284.66 573.73C284.66 573.73 280.6 587.46 285.66 593.5C290.72 599.54 337.94 613.27 372.66 594.5C375.688 586.595 376.04 577.914 373.66 569.79C369.66 555.95 372.66 568.79 372.66 568.79L365.72 544.07Z" fill="#6C63FF"/>
<path id="Vector_14" opacity="0.1" d="M314.32 519.46H344V548.16C344 549.453 343.745 550.734 343.25 551.929C342.755 553.125 342.03 554.21 341.115 555.125C340.2 556.04 339.114 556.765 337.919 557.26C336.724 557.755 335.444 558.01 334.15 558.01H324.15C321.538 558.01 319.032 556.972 317.185 555.125C315.338 553.278 314.3 550.772 314.3 548.16V519.46H314.32Z" fill="black"/>
<path id="Vector_15" d="M314.32 518.37H344V547.07C344 548.364 343.745 549.644 343.25 550.839C342.755 552.034 342.03 553.12 341.115 554.035C340.2 554.95 339.114 555.675 337.919 556.17C336.724 556.665 335.444 556.92 334.15 556.92H324.15C321.538 556.92 319.032 555.882 317.185 554.035C315.338 552.188 314.3 549.682 314.3 547.07V518.37H314.32Z" fill="#FDA57D"/>
<path id="Vector_16" opacity="0.1" d="M314.38 522.64C323.939 526.212 334.462 526.24 344.04 522.72V519.08H314.38V522.64Z" fill="black"/>
<path id="Vector_17" d="M329.25 524.63C352.728 524.63 371.76 505.598 371.76 482.12C371.76 458.642 352.728 439.61 329.25 439.61C305.772 439.61 286.74 458.642 286.74 482.12C286.74 505.598 305.772 524.63 329.25 524.63Z" fill="#FDA57D"/>
<path id="Vector_18" d="M288.62 465.97H369.68C369.68 465.97 362.76 433.24 332.12 435.33C301.48 437.42 288.62 465.97 288.62 465.97Z" fill="#333333"/>
<path id="Vector_19" d="M287.63 487.72C289.812 487.72 291.58 484.402 291.58 480.31C291.58 476.218 289.812 472.9 287.63 472.9C285.448 472.9 283.68 476.218 283.68 480.31C283.68 484.402 285.448 487.72 287.63 487.72Z" fill="#FDA57D"/>
<path id="Vector_20" d="M370.66 487.72C372.842 487.72 374.61 484.402 374.61 480.31C374.61 476.218 372.842 472.9 370.66 472.9C368.478 472.9 366.71 476.218 366.71 480.31C366.71 484.402 368.478 487.72 370.66 487.72Z" fill="#FDA57D"/>
<path id="Vector_21" opacity="0.1" d="M288.62 467.07H369.68C369.68 467.07 362.76 434.34 332.12 436.43C301.48 438.52 288.62 467.07 288.62 467.07Z" fill="black"/>
<g id="Group_3" opacity="0.5">
<path id="Vector_22" opacity="0.5" d="M346.94 243.85C346.934 226.783 351.347 210.005 359.749 195.149C368.152 180.293 380.258 167.866 394.888 159.078C409.519 150.289 426.176 145.438 443.237 144.998C460.299 144.557 477.184 148.541 492.249 156.563C507.314 164.584 520.045 176.37 529.203 190.772C538.362 205.174 543.635 221.702 544.51 238.746C545.385 255.791 541.832 272.772 534.197 288.036C526.561 303.301 515.104 316.328 500.94 325.85L500.88 326.29C497.658 329.413 493.848 331.864 489.67 333.5L489.54 333.06C484.91 337.06 465.42 343.39 443.03 343.33H442.54C428.36 343.33 412.96 340.83 399.42 333.5C399.42 333.5 399.3 333.24 399.12 332.75C395.69 331.139 392.543 328.984 389.8 326.37C389.747 325.99 389.693 325.617 389.64 325.25C376.455 316.161 365.679 304.003 358.24 289.822C350.801 275.641 346.923 259.864 346.94 243.85V243.85Z" fill="url(#paint2_linear)"/>
</g>
<path id="Vector_23" d="M445.79 339.75C498.749 339.75 541.68 296.819 541.68 243.86C541.68 190.901 498.749 147.97 445.79 147.97C392.831 147.97 349.9 190.901 349.9 243.86C349.9 296.819 392.831 339.75 445.79 339.75Z" fill="#F5F5F5"/>
<path id="Vector_24" d="M408.2 280.38C408.2 280.38 385.35 282.25 391.4 323.87C394.53 326.872 398.225 329.224 402.27 330.79L415.12 287.3L408.2 280.38Z" fill="#BE7C5E"/>
<path id="Vector_25" d="M482.33 280.38C482.33 280.38 505.18 282.25 499.13 323.87C496 326.872 492.305 329.224 488.26 330.79L475.41 287.3L482.33 280.38Z" fill="#BE7C5E"/>
<path id="Vector_26" d="M409.18 212.17C409.18 212.17 407.42 217.29 404.93 223.17C399.49 236.17 405.7 285.88 418.71 291.17C433.31 297.17 452.51 300.93 472.46 293.66C489.79 287.34 495.14 230.66 482.88 216.91C481.44 215.29 479.94 213.68 478.37 212.12L409.18 212.17Z" fill="#333333"/>
<path id="Vector_27" d="M445.86 251.72C469.338 251.72 488.37 232.688 488.37 209.21C488.37 185.732 469.338 166.7 445.86 166.7C422.382 166.7 403.35 185.732 403.35 209.21C403.35 232.688 422.382 251.72 445.86 251.72Z" fill="#333333"/>
<path id="Vector_28" opacity="0.1" d="M481.9 280.38H407.76L400.84 310.04C400.84 310.04 396.78 323.77 401.84 329.81C406.9 335.85 454.12 349.58 488.84 330.81C491.868 322.905 492.22 314.224 489.84 306.1C485.84 292.26 488.84 305.1 488.84 305.1L481.9 280.38Z" fill="black"/>
<path id="Vector_29" opacity="0.1" d="M482.88 280.38H408.74L401.82 310.04C401.82 310.04 397.76 323.77 402.82 329.81C407.88 335.85 455.1 349.58 489.82 330.81C492.848 322.905 493.2 314.224 490.82 306.1C486.82 292.26 489.82 305.1 489.82 305.1L482.88 280.38Z" fill="black"/>
<path id="Vector_30" d="M482.33 280.38H408.2L401.28 310.04C401.28 310.04 397.22 323.77 402.28 329.81C407.34 335.85 454.56 349.58 489.28 330.81C492.308 322.905 492.66 314.224 490.28 306.1C486.28 292.26 489.28 305.1 489.28 305.1L482.33 280.38Z" fill="#F55F44"/>
<path id="Vector_31" opacity="0.1" d="M430.93 255.78H460.59V284.48C460.59 287.092 459.552 289.598 457.705 291.445C455.858 293.292 453.352 294.33 450.74 294.33H440.74C438.128 294.33 435.622 293.292 433.775 291.445C431.928 289.598 430.89 287.092 430.89 284.48V255.78H430.93Z" fill="black"/>
<path id="Vector_32" d="M430.93 254.68H460.59V283.38C460.59 285.992 459.552 288.498 457.705 290.345C455.858 292.192 453.352 293.23 450.74 293.23H440.74C438.128 293.23 435.622 292.192 433.775 290.345C431.928 288.498 430.89 285.992 430.89 283.38V254.68H430.93Z" fill="#BE7C5E"/>
<path id="Vector_33" opacity="0.1" d="M431 258.95C440.559 262.522 451.082 262.55 460.66 259.03V255.39H431V258.95Z" fill="black"/>
<path id="Vector_34" d="M445.86 260.94C469.338 260.94 488.37 241.908 488.37 218.43C488.37 194.952 469.338 175.92 445.86 175.92C422.382 175.92 403.35 194.952 403.35 218.43C403.35 241.908 422.382 260.94 445.86 260.94Z" fill="#BE7C5E"/>
<path id="Vector_35" d="M405.23 202.29H486.29C486.29 202.29 479.37 169.56 448.73 171.65C418.09 173.74 405.23 202.29 405.23 202.29Z" fill="#333333"/>
<path id="Vector_36" d="M404.24 224.03C406.422 224.03 408.19 220.712 408.19 216.62C408.19 212.528 406.422 209.21 404.24 209.21C402.058 209.21 400.29 212.528 400.29 216.62C400.29 220.712 402.058 224.03 404.24 224.03Z" fill="#BE7C5E"/>
<path id="Vector_37" d="M487.27 224.03C489.452 224.03 491.22 220.712 491.22 216.62C491.22 212.528 489.452 209.21 487.27 209.21C485.088 209.21 483.32 212.528 483.32 216.62C483.32 220.712 485.088 224.03 487.27 224.03Z" fill="#BE7C5E"/>
<path id="Vector_38" opacity="0.1" d="M405.23 203.39H486.29C486.29 203.39 479.37 170.66 448.73 172.75C418.09 174.84 405.23 203.39 405.23 203.39Z" fill="black"/>
<g id="Group_4" opacity="0.5">
<path id="Vector_39" opacity="0.5" d="M5 158.11V300.83H229.86C229.86 300.83 246.46 333.5 275 343C275 343 265.89 319.86 275.4 300.83H338V158.11H5Z" fill="url(#paint3_linear)"/>
</g>
<g id="message-1">
<path id="Vector_40" d="M14 163V298H239C239 298 239 325 266 334C266 334 257 316 266 298H329V163H14Z" fill="white"/>
<path id="Vector_41" d="M221 190H41V208H221V190Z" fill="#6C63FF"/>
<path id="Vector_42" d="M284 217H41V235H284V217Z" fill="#6C63FF"/>
<path id="Vector_43" d="M257 244H41V262H257V244Z" fill="#6C63FF"/>
</g>
<g id="Group_5" opacity="0.5">
<path id="Vector_44" opacity="0.5" d="M770 433.11V575.83H545.15C545.15 575.83 528.55 608.5 500 618C500 618 509.11 594.86 499.6 575.83H437V433.11H770Z" fill="url(#paint4_linear)"/>
</g>
<g id="message-2">
<path id="Vector_45" d="M761 438V573H536C536 573 536 600 509 609C509 609 518 591 509 573H446V438H761Z" fill="white"/>
<path id="Vector_46" d="M663 465H483V483H663V465Z" fill="#6C63FF"/>
<path id="Vector_47" d="M726 492H483V510H726V492Z" fill="#6C63FF"/>
<path id="Vector_48" d="M699 519H483V537H699V519Z" fill="#6C63FF"/>
</g>
<g id="Group_6" opacity="0.5">
<path id="Vector_49" opacity="0.5" d="M87 714H84V731H87V714Z" fill="#47E6B1"/>
<path id="Vector_50" opacity="0.5" d="M94 724V721H77V724H94Z" fill="#47E6B1"/>
</g>
<g id="Group_7" opacity="0.5">
<path id="Vector_51" opacity="0.5" d="M636 192H633V209H636V192Z" fill="#47E6B1"/>
<path id="Vector_52" opacity="0.5" d="M643 202V199H626V202H643Z" fill="#47E6B1"/>
</g>
<g id="Group_8" opacity="0.5">
<path id="Vector_53" opacity="0.5" d="M700 612H697V629H700V612Z" fill="#47E6B1"/>
<path id="Vector_54" opacity="0.5" d="M707 622V619H690V622H707Z" fill="#47E6B1"/>
</g>
<g id="Group_9" opacity="0.5">
<path id="Vector_55" opacity="0.5" d="M511 0H508V17H511V0Z" fill="#47E6B1"/>
<path id="Vector_56" opacity="0.5" d="M518 10V7L501 7V10H518Z" fill="#47E6B1"/>
</g>
<path id="Vector_57" opacity="0.5" d="M258.7 712.31C257.882 711.942 257.226 711.288 256.858 710.469C256.489 709.651 256.433 708.727 256.7 707.87C256.743 707.737 256.77 707.599 256.78 707.46V707.46C256.806 707.064 256.703 706.671 256.486 706.338C256.27 706.006 255.952 705.752 255.58 705.615C255.208 705.478 254.802 705.465 254.421 705.577C254.041 705.69 253.707 705.922 253.47 706.24V706.24C253.39 706.352 253.322 706.473 253.27 706.6C252.902 707.418 252.248 708.074 251.43 708.443C250.611 708.811 249.687 708.867 248.83 708.6C248.697 708.557 248.559 708.53 248.42 708.52V708.52C248.024 708.494 247.631 708.598 247.298 708.814C246.966 709.03 246.712 709.348 246.575 709.72C246.438 710.092 246.425 710.498 246.537 710.879C246.65 711.259 246.882 711.593 247.2 711.83V711.83C247.312 711.91 247.433 711.978 247.56 712.03C248.378 712.398 249.034 713.052 249.402 713.87C249.771 714.689 249.827 715.613 249.56 716.47C249.517 716.603 249.49 716.741 249.48 716.88V716.88C249.454 717.276 249.558 717.669 249.774 718.002C249.99 718.334 250.308 718.588 250.68 718.725C251.052 718.862 251.458 718.875 251.839 718.763C252.219 718.65 252.553 718.418 252.79 718.1V718.1C252.87 717.988 252.938 717.867 252.99 717.74C253.358 716.921 254.012 716.266 254.831 715.898C255.649 715.529 256.573 715.473 257.43 715.74C257.563 715.783 257.701 715.81 257.84 715.82V715.82C258.236 715.846 258.629 715.743 258.962 715.526C259.294 715.31 259.548 714.992 259.685 714.62C259.822 714.248 259.835 713.842 259.723 713.461C259.61 713.081 259.378 712.747 259.06 712.51V712.51C258.948 712.43 258.827 712.362 258.7 712.31V712.31Z" fill="#4D8AF0"/>
<path id="Vector_58" opacity="0.5" d="M788.9 717.96C788.082 717.592 787.426 716.938 787.057 716.119C786.689 715.301 786.633 714.377 786.9 713.52C786.943 713.387 786.97 713.249 786.98 713.11V713.11C787.006 712.714 786.902 712.321 786.686 711.988C786.47 711.656 786.152 711.402 785.78 711.265C785.408 711.128 785.002 711.115 784.621 711.227C784.241 711.34 783.907 711.572 783.67 711.89V711.89C783.59 712.002 783.522 712.123 783.47 712.25C783.102 713.068 782.448 713.724 781.63 714.092C780.811 714.461 779.887 714.517 779.03 714.25C778.897 714.207 778.759 714.18 778.62 714.17C778.224 714.144 777.831 714.247 777.498 714.464C777.166 714.68 776.912 714.998 776.775 715.37C776.638 715.742 776.625 716.148 776.737 716.529C776.85 716.909 777.082 717.243 777.4 717.48C777.512 717.56 777.633 717.628 777.76 717.68C778.579 718.048 779.234 718.702 779.602 719.52C779.971 720.339 780.027 721.263 779.76 722.12C779.717 722.253 779.69 722.391 779.68 722.53C779.638 722.933 779.73 723.338 779.942 723.683C780.154 724.029 780.474 724.294 780.853 724.439C781.231 724.583 781.647 724.599 782.035 724.484C782.423 724.368 782.762 724.128 783 723.8C783.08 723.688 783.148 723.567 783.2 723.44C783.568 722.621 784.222 721.966 785.041 721.598C785.859 721.229 786.783 721.173 787.64 721.44C787.773 721.483 787.911 721.51 788.05 721.52C788.446 721.546 788.839 721.443 789.172 721.226C789.504 721.01 789.758 720.692 789.895 720.32C790.032 719.948 790.045 719.542 789.933 719.161C789.82 718.781 789.588 718.447 789.27 718.21V718.21C789.158 718.111 789.033 718.027 788.9 717.96V717.96Z" fill="#4D8AF0"/>
<g id="bubble">
<path id="Vector_59" opacity="0.5" d="M57.9 394.96C57.0815 394.592 56.426 393.938 56.0575 393.119C55.689 392.301 55.6329 391.377 55.9 390.52C55.9427 390.387 55.9696 390.249 55.98 390.11V390.11C56.0055 389.714 55.9025 389.321 55.6863 388.988C55.4701 388.656 55.1522 388.402 54.7801 388.265C54.408 388.128 54.0016 388.115 53.6214 388.227C53.2411 388.34 52.9074 388.572 52.67 388.89V388.89C52.5896 389.002 52.5224 389.123 52.47 389.25C52.1023 390.068 51.4476 390.724 50.6295 391.092C49.8114 391.461 48.8866 391.517 48.03 391.25C47.897 391.207 47.7593 391.18 47.62 391.17C47.2242 391.144 46.8308 391.247 46.4984 391.464C46.1659 391.68 45.9122 391.998 45.7751 392.37C45.638 392.742 45.6247 393.148 45.7373 393.529C45.8499 393.909 46.0823 394.243 46.4 394.48V394.48C46.5118 394.56 46.6326 394.628 46.76 394.68C47.5785 395.048 48.2339 395.702 48.6025 396.52C48.971 397.339 49.027 398.263 48.76 399.12C48.7172 399.253 48.6904 399.391 48.68 399.53V399.53C48.6381 399.933 48.7303 400.338 48.9424 400.683C49.1544 401.029 49.4744 401.294 49.8527 401.439C50.231 401.583 50.6465 401.599 51.0348 401.484C51.423 401.368 51.7623 401.128 52 400.8V400.8C52.0804 400.688 52.1476 400.567 52.2 400.44C52.5676 399.621 53.2224 398.966 54.0405 398.598C54.8586 398.229 55.7834 398.173 56.64 398.44C56.773 398.483 56.9106 398.51 57.05 398.52V398.52C57.4457 398.545 57.8391 398.442 58.1716 398.226C58.504 398.01 58.7577 397.692 58.8949 397.32C59.032 396.948 59.0453 396.542 58.9327 396.161C58.8201 395.781 58.5876 395.447 58.27 395.21C58.1577 395.111 58.0334 395.027 57.9 394.96V394.96Z" fill="#4D8AF0"/>
<path id="Vector_60" opacity="0.5" d="M166.9 481.96C166.081 481.592 165.426 480.938 165.058 480.119C164.689 479.301 164.633 478.377 164.9 477.52C164.943 477.387 164.97 477.249 164.98 477.11V477.11C165.006 476.714 164.903 476.321 164.686 475.988C164.47 475.656 164.152 475.402 163.78 475.265C163.408 475.128 163.002 475.115 162.621 475.227C162.241 475.34 161.907 475.572 161.67 475.89V475.89C161.59 476.002 161.522 476.123 161.47 476.25C161.102 477.068 160.448 477.724 159.629 478.092C158.811 478.461 157.887 478.517 157.03 478.25C156.897 478.207 156.759 478.18 156.62 478.17V478.17C156.224 478.144 155.831 478.247 155.498 478.464C155.166 478.68 154.912 478.998 154.775 479.37C154.638 479.742 154.625 480.148 154.737 480.529C154.85 480.909 155.082 481.243 155.4 481.48C155.512 481.56 155.633 481.628 155.76 481.68C156.578 482.048 157.234 482.702 157.602 483.52C157.971 484.339 158.027 485.263 157.76 486.12C157.717 486.253 157.69 486.391 157.68 486.53V486.53C157.638 486.933 157.73 487.338 157.942 487.683C158.154 488.029 158.474 488.294 158.853 488.439C159.231 488.583 159.647 488.599 160.035 488.484C160.423 488.368 160.762 488.128 161 487.8V487.8C161.08 487.688 161.148 487.567 161.2 487.44C161.568 486.621 162.222 485.966 163.04 485.598C163.859 485.229 164.783 485.173 165.64 485.44C165.773 485.483 165.911 485.51 166.05 485.52V485.52C166.446 485.546 166.839 485.443 167.172 485.226C167.504 485.01 167.758 484.692 167.895 484.32C168.032 483.948 168.045 483.542 167.933 483.161C167.82 482.781 167.588 482.447 167.27 482.21V482.21C167.158 482.111 167.033 482.027 166.9 481.96V481.96Z" fill="#4D8AF0"/>
<path id="Vector_61" opacity="0.5" d="M6 665C9.31371 665 12 662.314 12 659C12 655.686 9.31371 653 6 653C2.68629 653 0 655.686 0 659C0 662.314 2.68629 665 6 665Z" fill="#F55F44"/>
<path id="Vector_62" opacity="0.5" d="M683 70C686.314 70 689 67.3137 689 64C689 60.6863 686.314 58 683 58C679.686 58 677 60.6863 677 64C677 67.3137 679.686 70 683 70Z" fill="#4D8AF0"/>
<path id="Vector_63" opacity="0.5" d="M104 82C107.314 82 110 79.3137 110 76C110 72.6863 107.314 70 104 70C100.686 70 98 72.6863 98 76C98 79.3137 100.686 82 104 82Z" fill="#47E6B1"/>
<path id="Vector_64" opacity="0.5" d="M689 352C692.314 352 695 349.314 695 346C695 342.686 692.314 340 689 340C685.686 340 683 342.686 683 346C683 349.314 685.686 352 689 352Z" fill="#F55F44"/>
</g>
</g>
<defs>
<linearGradient id="paint0_linear" x1="244.766" y1="705.28" x2="527.664" y2="32.7068" gradientUnits="userSpaceOnUse">
<stop stop-color="#808080" stop-opacity="0.25"/>
<stop offset="0.54" stop-color="#808080" stop-opacity="0.12"/>
<stop offset="1" stop-color="#808080" stop-opacity="0.1"/>
</linearGradient>
<linearGradient id="paint1_linear" x1="105645" y1="136941" x2="105645" y2="97621.3" gradientUnits="userSpaceOnUse">
<stop stop-color="#808080" stop-opacity="0.25"/>
<stop offset="0.54" stop-color="#808080" stop-opacity="0.12"/>
<stop offset="1" stop-color="#808080" stop-opacity="0.1"/>
</linearGradient>
<linearGradient id="paint2_linear" x1="118463" y1="85005.8" x2="118463" y2="45669.9" gradientUnits="userSpaceOnUse">
<stop stop-color="#808080" stop-opacity="0.25"/>
<stop offset="0.54" stop-color="#808080" stop-opacity="0.12"/>
<stop offset="1" stop-color="#808080" stop-opacity="0.1"/>
</linearGradient>
<linearGradient id="paint3_linear" x1="125380" y1="79198.6" x2="125380" y2="45014.3" gradientUnits="userSpaceOnUse">
<stop stop-color="#808080" stop-opacity="0.25"/>
<stop offset="0.54" stop-color="#808080" stop-opacity="0.12"/>
<stop offset="1" stop-color="#808080" stop-opacity="0.1"/>
</linearGradient>
<linearGradient id="paint4_linear" x1="-1.10012e+06" y1="130318" x2="-1.10012e+06" y2="96134" gradientUnits="userSpaceOnUse">
<stop stop-color="#808080" stop-opacity="0.25"/>
<stop offset="0.54" stop-color="#808080" stop-opacity="0.12"/>
<stop offset="1" stop-color="#808080" stop-opacity="0.1"/>
</linearGradient>
<clipPath id="clip0">
<rect width="789.99" height="731" fill="white"/>
</clipPath>
</defs>
</svg>
