<svg width="591" height="271" viewBox="0 0 591 271" fill="none" xmlns="http://www.w3.org/2000/svg">
<g id="hey">
<path id="Path 1" d="M585.059 45.4167H553.147C550.683 45.5273 548.303 46.343 546.289 47.7668C544.275 49.1907 542.712 51.1628 541.786 53.4489L534.55 74.2892L528.761 90.426L520.656 113.799C519.81 116.589 518.67 119.282 517.255 121.831C515.789 119.272 514.624 116.553 513.782 113.727L506.039 90.4984C504.52 86.0119 501.987 78.7757 500.395 74.2892L493.159 53.4489C492.228 51.152 490.654 49.1725 488.626 47.7478C486.598 46.3231 484.202 45.5137 481.725 45.4167H358.999C357.878 45.4167 356.767 45.6375 355.731 46.0667C354.695 46.4958 353.754 47.1247 352.961 47.9176C352.168 48.7105 351.539 49.6518 351.11 50.6878C350.681 51.7238 350.46 52.8341 350.46 53.9554V102.655C350.46 104.939 349.553 107.129 347.938 108.744C346.323 110.359 344.133 111.266 341.849 111.266H306.247C303.969 111.247 301.79 110.334 300.179 108.723C298.568 107.113 297.655 104.933 297.636 102.655V53.9554C297.638 51.7521 296.788 49.6333 295.264 48.042C293.74 46.4506 291.66 45.51 289.459 45.4166H259.79C257.519 45.4166 255.34 46.3139 253.727 47.9132C252.114 49.5124 251.198 51.6841 251.179 53.9554V76.4601C266.954 96.5768 266.954 133.192 251.179 187.753V213.731C251.198 216.003 252.114 218.174 253.727 219.774C255.34 221.373 257.519 222.27 259.79 222.27H289.459C290.58 222.27 291.691 222.049 292.727 221.62C293.763 221.191 294.704 220.562 295.497 219.769C296.29 218.976 296.919 218.035 297.348 216.999C297.777 215.963 297.998 214.853 297.998 213.731V213.731V160.617C297.996 158.395 298.853 156.258 300.391 154.653C301.928 153.048 304.026 152.1 306.247 152.006H341.849C344.114 151.987 346.293 152.868 347.908 154.456C349.523 156.044 350.441 158.208 350.46 160.472L350.46 160.545V213.659C350.46 215.924 351.36 218.095 352.961 219.697C354.563 221.298 356.734 222.198 358.999 222.198H459.076C461.341 222.198 463.513 221.298 465.114 219.697C466.715 218.095 467.615 215.924 467.615 213.659V191.661C467.615 189.396 466.715 187.224 465.114 185.623C463.513 184.022 461.341 183.122 459.076 183.122H405.962C403.691 183.103 401.519 182.187 399.92 180.574C398.321 178.962 397.423 176.782 397.423 174.511V160.038C397.423 157.767 398.321 155.588 399.92 153.975C401.519 152.362 403.691 151.446 405.962 151.427H438.019C440.283 151.427 442.455 150.528 444.056 148.926C445.658 147.325 446.557 145.153 446.557 142.889V142.889V120.891C446.557 118.626 445.658 116.454 444.056 114.853C442.455 113.251 440.283 112.352 438.019 112.352H405.962C403.691 112.333 401.519 111.417 399.92 109.804C398.321 108.191 397.423 106.012 397.423 103.741V93.1758C397.404 90.9113 398.285 88.7318 399.873 87.117C401.461 85.5021 403.625 84.5842 405.889 84.565L405.962 84.5647H449.38C451.9 84.7002 454.342 85.4927 456.462 86.8637C458.582 88.2346 460.306 90.1363 461.464 92.3798L489.613 153.526C491.82 158.706 493.047 164.252 493.231 169.88V213.731C493.231 215.996 494.131 218.168 495.732 219.769C497.333 221.37 499.505 222.27 501.77 222.27H531.438C533.703 222.289 535.882 221.408 537.497 219.82C539.112 218.233 540.03 216.069 540.049 213.804L540.049 213.731V169.88C540.244 164.26 541.445 158.721 543.595 153.526L590.052 53.1594C590.575 52.3418 590.852 51.3911 590.85 50.4205C590.848 49.4499 590.568 48.5002 590.042 47.6845C589.516 46.8688 588.767 46.2214 587.883 45.8193C587 45.4173 586.019 45.2775 585.059 45.4166V45.4167Z" fill="url(#paint0_linear)"/>
<path id="Path 2" d="M209.86 75.5194C198.491 78.5981 188.181 84.7291 180.047 93.2481C170.568 59.9615 150.162 9.59734 130.262 1.34804C128.159 0.370569 125.851 -0.0870844 123.534 0.0136606C121.217 0.114406 118.958 0.770595 116.947 1.92693C104.501 9.16316 96.3964 32.4638 103.488 76.6048C76.135 26.5301 66.5832 26.6025 62.1691 26.5301C60.0487 26.5597 57.9841 27.214 56.2337 28.411C54.4832 29.608 53.1246 31.2946 52.3278 33.2598C49.3609 39.8448 43.4272 60.3957 57.8997 104.609C40.4604 80.7295 35.1056 77.6902 28.9548 77.9797C26.9866 78.0957 25.0864 78.7422 23.4557 79.8505C21.8251 80.9589 20.5247 82.4878 19.6924 84.2752C14.4824 94.1165 15.0613 118.864 31.2705 155.769C25.7187 150.87 18.6892 147.967 11.2984 147.52C9.30807 147.659 7.38439 148.295 5.70316 149.37C4.02193 150.444 2.63677 151.923 1.67426 153.671C-4.91074 165.755 8.91048 199.693 25.988 222.704C39.8092 241.591 67.5239 270.608 107.757 270.608C113.391 270.6 119.011 270.067 124.545 269.016C126.47 268.675 128.181 267.584 129.302 265.982C130.422 264.381 130.861 262.4 130.521 260.474C130.182 258.549 129.092 256.838 127.491 255.716C125.89 254.595 123.909 254.155 121.984 254.493C121.897 254.508 121.81 254.525 121.723 254.544C88.2919 261.056 63.1098 242.676 47.8413 226.178C25.0472 201.502 15.0612 171.834 14.4823 162.788C19.2582 164.742 33.0071 172.847 59.7812 207.146C60.9135 208.73 62.6283 209.798 64.5486 210.117C66.4688 210.436 68.4371 209.979 70.0204 208.847C71.6037 207.715 72.6723 206 72.9912 204.079C73.3102 202.159 72.8532 200.191 71.7209 198.608V198.608C34.0925 141.514 30.402 106.925 31.6322 95.2743C42.7036 106.563 70.346 147.954 91.1864 179.214C92.234 180.798 93.8534 181.916 95.706 182.334C97.5585 182.752 99.5008 182.437 101.127 181.456C102.753 180.475 103.936 178.903 104.43 177.069C104.924 175.235 104.69 173.282 103.777 171.616C60.36 92.018 61.8796 55.8368 64.4123 43.68C70.9249 50.265 88.2194 73.2038 124.618 152.223C125.43 153.931 126.867 155.262 128.632 155.94C130.397 156.618 132.356 156.592 134.102 155.867C135.849 155.143 137.251 153.775 138.017 152.046C138.784 150.317 138.857 148.36 138.222 146.579C102.909 50.6991 118.25 18.2084 124.111 14.518C131.709 14.518 153.056 51.1333 166.371 99.1095C167.167 102.076 167.963 104.971 168.686 107.793C166.818 111.076 165.36 114.575 164.345 118.213C157.108 144.77 149.872 205.048 163.838 221.619C165.228 223.355 167.025 224.719 169.071 225.59C171.117 226.462 173.346 226.813 175.561 226.612C178.365 226.307 181.066 225.383 183.468 223.906C185.871 222.429 187.916 220.437 189.454 218.073C202.407 199.186 194.809 151.789 184.461 110.326C191.51 100.355 201.703 93.0416 213.406 89.5576C215.907 88.7716 218.574 88.6796 221.123 89.2913C223.672 89.9031 226.007 91.1956 227.879 93.031C233.812 99.6883 244.16 124.581 212.755 212.356C212.432 213.269 212.292 214.236 212.342 215.202C212.393 216.169 212.633 217.116 213.05 217.989C213.891 219.753 215.399 221.111 217.241 221.763C219.084 222.416 221.11 222.31 222.874 221.469C224.638 220.627 225.996 219.119 226.648 217.277C251.686 147.303 255.593 102.221 238.878 83.2621C235.24 79.3993 230.597 76.6282 225.471 75.2603C220.345 73.8924 214.939 73.9822 209.86 75.5194V75.5194ZM177.297 209.896C176.756 210.869 175.883 211.613 174.837 211.995C169.41 205.554 169.41 167.419 175.344 136.159C186.56 190.214 180.047 206.061 177.297 209.896V209.896Z" fill="url(#paint1_linear)"/>
</g>
<defs>
<linearGradient id="paint0_linear" x1="-13.7645" y1="133.82" x2="594.587" y2="133.82" gradientUnits="userSpaceOnUse">
<stop stop-color="#2D6DD0"/>
<stop offset="0.99" stop-color="#6C139C"/>
</linearGradient>
<linearGradient id="paint1_linear" x1="139089" y1="-8.9756e+06" x2="290564" y2="-8.9756e+06" gradientUnits="userSpaceOnUse">
<stop stop-color="#2D6DD0"/>
<stop offset="0.99" stop-color="#6C139C"/>
</linearGradient>
</defs>
</svg>
