<?xml version="1.0" encoding="UTF-8" standalone="no"?>
<svg
   xmlns:dc="http://purl.org/dc/elements/1.1/"
   xmlns:cc="http://creativecommons.org/ns#"
   xmlns:rdf="http://www.w3.org/1999/02/22-rdf-syntax-ns#"
   xmlns:svg="http://www.w3.org/2000/svg"
   xmlns="http://www.w3.org/2000/svg"
   xmlns:sodipodi="http://sodipodi.sourceforge.net/DTD/sodipodi-0.dtd"
   xmlns:inkscape="http://www.inkscape.org/namespaces/inkscape"
   width="137.30281mm"
   height="85.598122mm"
   viewBox="0 0 137.30281 85.598122"
   version="1.1"
   id="svg8"
   inkscape:version="1.0 (4035a4fb49, 2020-05-01)"
   sodipodi:docname="messageMe.svg">
  <defs
     id="defs2">
    <rect
       x="204.28569"
       y="-358.84692"
       width="760.00001"
       height="451.42858"
       id="rect142" />
  </defs>
  <sodipodi:namedview
     id="base"
     pagecolor="#ffffff"
     bordercolor="#666666"
     borderopacity="1.0"
     inkscape:pageopacity="0.0"
     inkscape:pageshadow="2"
     inkscape:zoom="0.7"
     inkscape:cx="477.88736"
     inkscape:cy="203.08744"
     inkscape:document-units="mm"
     inkscape:current-layer="g134"
     inkscape:document-rotation="0"
     showgrid="false"
     inkscape:window-width="1274"
     inkscape:window-height="729"
     inkscape:window-x="76"
     inkscape:window-y="0"
     inkscape:window-maximized="0" />
  <metadata
     id="metadata5">
    <rdf:RDF>
      <cc:Work
         rdf:about="">
        <dc:format>image/svg+xml</dc:format>
        <dc:type
           rdf:resource="http://purl.org/dc/dcmitype/StillImage" />
        <dc:title />
      </cc:Work>
    </rdf:RDF>
  </metadata>
  <g
     inkscape:label="Layer 1"
     inkscape:groupmode="layer"
     id="layer1"
     transform="translate(-49.064358,-6.8138061)">
    <g
       id="g134"
       transform="matrix(0.26458333,0,0,0.26458333,-39.382064,94.955149)">
      <path
         id="path61"
         fill="#e6e6e6"
         d="m 401.80513,-130.88406 -22.98989,25.33626 c 19.09883,7.964617 38.43183,-3.0923 46.35677,-8.63574 a 114.81705,112.87914 0 1 0 -23.36688,-16.70048 z"
         style="stroke-width:0.920102" />
      <path
         id="path63"
         fill="#ffffff"
         d="m 418.5185,-231.61932 c 23.71748,-0.24278 47.43194,-0.65964 71.14834,-0.97639 q 11.85976,-0.1584 23.72,-0.2777 c 6.81277,-0.0696 6.83019,-10.48486 0,-10.41495 -23.71747,0.24278 -47.43195,0.65964 -71.14835,0.97639 q -11.85976,0.1584 -23.71999,0.2777 c -6.81277,0.0696 -6.83019,10.48486 0,10.41495 z"
         style="stroke-width:0.920102" />
      <path
         id="path65"
         fill="#ffffff"
         d="m 418.5185,-207.31774 95.85644,-0.97641 27.26192,-0.2777 c 6.81281,-0.0695 6.8302,-10.48452 0,-10.41495 l -95.85643,0.97641 -27.26193,0.27769 c -6.8128,0.0695 -6.83018,10.48453 0,10.41496 z"
         style="stroke-width:0.920102" />
      <path
         id="path67"
         fill="#ffffff"
         d="m 418.5185,-183.01618 95.85644,-0.9764 27.26192,-0.27769 c 6.81281,-0.0695 6.8302,-10.48454 0,-10.41496 l -95.85643,0.9764 -27.26193,0.27769 c -6.8128,0.0695 -6.83018,10.48454 0,10.41496 z"
         style="stroke-width:0.920102" />
      <path
         id="path97"
         fill="#6c63ff"
         d="m 740.26601,-126.60773 a 114.59977,112.66552 0 1 0 -59.52267,98.844987 c 7.92495,5.543435 27.25795,16.600362 46.35678,8.635745 l -22.9899,-25.336223 a 114.31979,112.39027 0 0 0 36.15579,-82.144509 z"
         style="stroke-width:0.920102" />
      <path
         id="path99"
         fill="#ffffff"
         d="m 567.01461,-145.19848 c 23.71748,-0.24277 47.43193,-0.65965 71.14834,-0.97641 q 11.85975,-0.1584 23.71998,-0.27768 c 6.81279,-0.0696 6.8302,-10.48488 0,-10.41497 -23.71746,0.24279 -47.43194,0.65965 -71.14834,0.97641 q -11.85975,0.15839 -23.71998,0.2777 c -6.81278,0.0696 -6.8302,10.48486 0,10.41495 z"
         style="stroke-width:0.920102" />
      <path
         id="path101"
         fill="#ffffff"
         d="m 567.01461,-120.89691 95.85643,-0.9764 27.26192,-0.2777 c 6.81281,-0.0695 6.8302,-10.48453 0,-10.41496 l -95.85644,0.97644 -27.26191,0.2777 c -6.81281,0.0695 -6.83019,10.48452 0,10.41495 z"
         style="stroke-width:0.920102" />
      <path
         id="path103"
         fill="#ffffff"
         d="m 567.01461,-96.595363 95.85643,-0.9764 27.26192,-0.27769 c 6.81281,-0.0695 6.8302,-10.484537 0,-10.414967 l -95.85644,0.97641 -27.26191,0.2777 c -6.81281,0.0695 -6.83019,10.484517 0,10.414947 z"
         style="stroke-width:0.920102" />
      <text
         xml:space="preserve"
         style="font-style:normal;font-weight:normal;font-size:38.6877px;line-height:1.25;font-family:sans-serif;fill:#dbe3db;fill-opacity:1;stroke:none;stroke-width:0.967193;"
         x="607.16522"
         y="-260.51913"
         id="text138"
         transform="scale(1.002611,0.99739579)"><tspan
           sodipodi:role="line"
           id="tspan136"
           x="607.16522"
           y="-260.51913"
           style="stroke-width:0.967193;fill:#dbe3db;">Message Me</tspan></text>
      <text
         xml:space="preserve"
         id="text140"
         style="fill:black;fill-opacity:1;line-height:1.25;stroke:none;font-family:sans-serif;font-style:normal;font-weight:normal;font-size:40.0000005px;white-space:pre;shape-inside:url(#rect142);" />
    </g>
  </g>
</svg>
