<?xml version="1.0" encoding="UTF-8" standalone="no"?>
<svg
   xmlns:dc="http://purl.org/dc/elements/1.1/"
   xmlns:cc="http://creativecommons.org/ns#"
   xmlns:rdf="http://www.w3.org/1999/02/22-rdf-syntax-ns#"
   xmlns:svg="http://www.w3.org/2000/svg"
   xmlns="http://www.w3.org/2000/svg"
   xmlns:sodipodi="http://sodipodi.sourceforge.net/DTD/sodipodi-0.dtd"
   xmlns:inkscape="http://www.inkscape.org/namespaces/inkscape"
   sodipodi:docname="send.svg"
   inkscape:version="1.0 (4035a4fb49, 2020-05-01)"
   id="svg152"
   version="1.1"
   viewBox="0 0 50.170289 50.170289"
   height="50.170288mm"
   width="50.170288mm">
  <defs
     id="defs146">
    <linearGradient
       id="afd189d7-11a7-4088-a6cf-cbbc8456f501"
       x1="564.5"
       y1="810"
       x2="564.5"
       y2="126"
       gradientUnits="userSpaceOnUse">
      <stop
         offset="0"
         stop-color="gray"
         stop-opacity="0.25"
         id="stop1591" />
      <stop
         offset="0.54"
         stop-color="gray"
         stop-opacity="0.12"
         id="stop1593" />
      <stop
         offset="1"
         stop-color="gray"
         stop-opacity="0.1"
         id="stop1595" />
    </linearGradient>
    <radialGradient
       id="fa3ab0ab-d0ab-491b-9f5d-880d1af9de28"
       cx="625.65002"
       cy="270.91"
       r="30.01"
       gradientUnits="userSpaceOnUse">
      <stop
         offset="0"
         stop-color="#fff"
         id="stop1598" />
      <stop
         offset="1"
         id="stop1600" />
    </radialGradient>
  </defs>
  <sodipodi:namedview
     inkscape:window-maximized="0"
     inkscape:window-y="126"
     inkscape:window-x="35"
     inkscape:window-height="729"
     inkscape:window-width="1274"
     showgrid="false"
     inkscape:document-rotation="0"
     inkscape:current-layer="g1721"
     inkscape:document-units="mm"
     inkscape:cy="112.41274"
     inkscape:cx="293.67807"
     inkscape:zoom="0.98994949"
     inkscape:pageshadow="2"
     inkscape:pageopacity="0.0"
     borderopacity="1.0"
     bordercolor="#666666"
     pagecolor="#ffffff"
     id="base" />
  <metadata
     id="metadata149">
    <rdf:RDF>
      <cc:Work
         rdf:about="">
        <dc:format>image/svg+xml</dc:format>
        <dc:type
           rdf:resource="http://purl.org/dc/dcmitype/StillImage" />
        <dc:title></dc:title>
      </cc:Work>
    </rdf:RDF>
  </metadata>
  <g
     transform="translate(-23.820308,-58.199311)"
     id="layer1"
     inkscape:groupmode="layer"
     inkscape:label="Layer 1">
    <g
       transform="matrix(0.26458333,0,0,0.26458333,25.575744,42.233541)"
       id="g1500">
      <g
         transform="translate(-223.50398,-52.192117)"
         id="g1721">
        <circle
           cx="311.67926"
           cy="207.34518"
           r="94.809998"
           opacity="0.1"
           id="circle1669" />
        <circle
           cx="311.67926"
           cy="207.34518"
           r="90.790001"
           fill="#6c63ff"
           id="circle1671" />
        <path
           d="m 359.26925,157.09519 -97,52.51 a 2,2 0 0 0 0.14,3.61 l 16.56,6.24 a 3.9,3.9 0 0 1 2.18,2 l 12.83,26.51 c 0.24,1.17 2.4,1.48 2.43,0.29 l -2,-21.89 a 7.81,7.81 0 0 1 1.77,-4.42 l 50.31,-49.29 a 1.19,1.19 0 0 1 1.09,-0.31 1.14,1.14 0 0 1 0.63,1.84 l -43.37,53.06 a 9.69,9.69 0 0 0 -1.7,4.37 l -2.6,18.91 c 0.22,1.65 1.51,2.28 2.55,0.8 l 9.34,-11 a 2,2 0 0 1 2.75,-0.46 l 24.08,17.55 a 1.94,1.94 0 0 0 3.06,-1.19 l 19.75,-97 a 2,2 0 0 0 -2.84,-2.19 z"
           fill="#ffffff"
           id="path1673" />
      </g>
    </g>
  </g>
</svg>
