<svg width="264" height="278" viewBox="0 0 264 278" fill="none" xmlns="http://www.w3.org/2000/svg">
<g id="tools">
<path id="Cmd" d="M36.793 104.094C36.793 105.5 36.9531 106.727 37.2734 107.773C37.5938 108.82 38.0156 109.691 38.5391 110.387C39.0703 111.082 39.6719 111.605 40.3438 111.957C41.0234 112.301 41.7188 112.473 42.4297 112.473C42.9375 112.473 43.4375 112.379 43.9297 112.191C44.4297 112.004 44.9141 111.723 45.3828 111.348C45.8516 110.973 46.3008 110.504 46.7305 109.941C47.168 109.379 47.5742 108.719 47.9492 107.961L48.0781 107.715L48.5586 108.078L48.4297 108.324C48 109.191 47.5234 109.953 47 110.609C46.4844 111.266 45.9336 111.816 45.3477 112.262C44.7617 112.699 44.1523 113.031 43.5195 113.258C42.8945 113.484 42.2539 113.598 41.5977 113.598C41.0352 113.598 40.4766 113.516 39.9219 113.352C39.375 113.195 38.8516 112.957 38.3516 112.637C37.8594 112.309 37.3984 111.898 36.9688 111.406C36.5469 110.914 36.1797 110.34 35.8672 109.684C35.5547 109.02 35.3086 108.273 35.1289 107.445C34.957 106.609 34.8711 105.691 34.8711 104.691C34.8711 103.371 34.9805 102.176 35.1992 101.105C35.4258 100.027 35.7266 99.0703 36.1016 98.2344C36.4844 97.3906 36.9258 96.6602 37.4258 96.043C37.9336 95.4258 38.4648 94.918 39.0195 94.5195C39.5742 94.1133 40.1406 93.8125 40.7188 93.6172C41.2969 93.4219 41.8516 93.3242 42.3828 93.3242C43.0781 93.3242 43.7188 93.4453 44.3047 93.6875C44.8906 93.9219 45.3945 94.2578 45.8164 94.6953C46.2383 95.125 46.5664 95.6523 46.8008 96.2773C47.043 96.8945 47.1641 97.582 47.1641 98.3398C47.1641 99.0664 47.0508 99.75 46.8242 100.391C46.6055 101.031 46.3086 101.594 45.9336 102.078C45.5664 102.555 45.1406 102.934 44.6562 103.215C44.1797 103.496 43.6797 103.637 43.1562 103.637C42.8047 103.637 42.4766 103.574 42.1719 103.449C41.8672 103.324 41.6016 103.148 41.375 102.922C41.1484 102.695 40.9688 102.418 40.8359 102.09C40.7031 101.762 40.6367 101.398 40.6367 101C40.6367 100.617 40.6953 100.25 40.8125 99.8984C40.9297 99.5391 41.0781 99.2109 41.2578 98.9141C41.4375 98.6094 41.6328 98.3438 41.8438 98.1172C42.0625 97.8828 42.2734 97.6992 42.4766 97.5664L42.793 97.8828C42.6289 98.0703 42.4727 98.2734 42.3242 98.4922C42.1836 98.7031 42.0586 98.9336 41.9492 99.1836C41.8398 99.4258 41.7539 99.6875 41.6914 99.9688C41.6289 100.25 41.5977 100.555 41.5977 100.883C41.5977 101.219 41.6367 101.52 41.7148 101.785C41.8008 102.051 41.9141 102.277 42.0547 102.465C42.2031 102.652 42.3711 102.797 42.5586 102.898C42.7461 102.992 42.9453 103.039 43.1562 103.039C43.4453 103.039 43.7344 102.934 44.0234 102.723C44.3125 102.504 44.5703 102.188 44.7969 101.773C45.0234 101.352 45.207 100.836 45.3477 100.227C45.4883 99.6172 45.5586 98.9141 45.5586 98.1172C45.5586 97.3984 45.4766 96.7773 45.3125 96.2539C45.1562 95.7227 44.9375 95.2852 44.6562 94.9414C44.375 94.5977 44.043 94.3438 43.6602 94.1797C43.2773 94.0078 42.8672 93.9219 42.4297 93.9219C42.1172 93.9219 41.7617 93.9922 41.3633 94.1328C40.9648 94.2656 40.5547 94.4883 40.1328 94.8008C39.7188 95.1133 39.3125 95.5273 38.9141 96.043C38.5156 96.5508 38.1562 97.1836 37.8359 97.9414C37.5234 98.6914 37.2695 99.5742 37.0742 100.59C36.8867 101.605 36.793 102.773 36.793 104.094ZM51.8984 104.234C51.6719 104.234 51.4531 104.316 51.2422 104.48C51.0391 104.637 50.8438 104.855 50.6562 105.137C50.4688 105.41 50.2852 105.734 50.1055 106.109C49.9336 106.477 49.7617 106.871 49.5898 107.293V107.434C49.5664 108.121 49.543 108.852 49.5195 109.625C49.5039 110.398 49.4961 111.242 49.4961 112.156C49.4961 112.312 49.4414 112.445 49.332 112.555C49.2305 112.656 49.1094 112.742 48.9688 112.812C48.8281 112.875 48.6836 112.922 48.5352 112.953C48.3867 112.984 48.2656 113 48.1719 113C48.0547 113 47.9453 112.965 47.8438 112.895C47.7422 112.824 47.6914 112.668 47.6914 112.426C47.6914 112.309 47.7031 112.164 47.7266 111.992C47.75 111.812 47.7812 111.621 47.8203 111.418C47.8516 111.215 47.8906 111.008 47.9375 110.797C47.9766 110.578 48.0156 110.375 48.0547 110.188C48.0547 109.523 48.0547 108.926 48.0547 108.395C48.0469 107.863 48.043 107.391 48.043 106.977C48.043 106.562 48.043 106.199 48.043 105.887C48.0352 105.574 48.0312 105.305 48.0312 105.078C48.0312 104.703 48.0391 104.43 48.0547 104.258C48.0625 104.078 48.0781 103.953 48.1016 103.883C48.1406 103.773 48.2109 103.688 48.3125 103.625C48.4219 103.562 48.5352 103.516 48.6523 103.484C48.7695 103.445 48.8867 103.422 49.0039 103.414C49.1211 103.406 49.2109 103.402 49.2734 103.402C49.4219 103.402 49.5195 103.445 49.5664 103.531C49.6133 103.617 49.6367 103.75 49.6367 103.93C49.6367 104.336 49.6367 104.703 49.6367 105.031C49.6367 105.359 49.6289 105.688 49.6133 106.016C49.7617 105.664 49.9336 105.332 50.1289 105.02C50.332 104.699 50.5547 104.422 50.7969 104.188C51.0391 103.945 51.293 103.754 51.5586 103.613C51.832 103.473 52.1133 103.402 52.4023 103.402C52.7539 103.402 53.043 103.477 53.2695 103.625C53.5039 103.766 53.6875 103.965 53.8203 104.223C53.9609 104.48 54.0625 104.785 54.125 105.137C54.1953 105.48 54.2422 105.855 54.2656 106.262C54.4844 105.863 54.7188 105.492 54.9688 105.148C55.2266 104.797 55.4961 104.492 55.7773 104.234C56.0664 103.977 56.3672 103.773 56.6797 103.625C57 103.477 57.332 103.402 57.6758 103.402C58.2695 103.402 58.7031 103.59 58.9766 103.965C59.25 104.332 59.3867 104.832 59.3867 105.465C59.3867 105.863 59.3555 106.309 59.293 106.801C59.2305 107.293 59.1641 107.793 59.0938 108.301C59.0234 108.801 58.957 109.293 58.8945 109.777C58.832 110.262 58.8008 110.703 58.8008 111.102C58.8008 111.586 58.9219 111.828 59.1641 111.828C59.2891 111.828 59.4258 111.754 59.5742 111.605C59.7227 111.449 59.8906 111.215 60.0781 110.902C60.2734 110.582 60.4961 110.18 60.7461 109.695C61.0039 109.211 61.3008 108.633 61.6367 107.961L61.7539 107.715L62.2344 108.078L62.1172 108.324C61.6562 109.246 61.2617 110.008 60.9336 110.609C60.6133 111.211 60.3242 111.691 60.0664 112.051C59.8086 112.402 59.5625 112.648 59.3281 112.789C59.1016 112.93 58.8477 113 58.5664 113C58.4023 113 58.2422 112.977 58.0859 112.93C57.9297 112.883 57.793 112.801 57.6758 112.684C57.5586 112.566 57.4648 112.41 57.3945 112.215C57.3242 112.012 57.2891 111.754 57.2891 111.441C57.2891 110.973 57.3203 110.445 57.3828 109.859C57.4453 109.273 57.5156 108.688 57.5938 108.102C57.6719 107.516 57.7422 106.965 57.8047 106.449C57.8672 105.926 57.8984 105.5 57.8984 105.172C57.8984 104.883 57.8359 104.652 57.7109 104.48C57.5859 104.301 57.3984 104.211 57.1484 104.211C56.8984 104.211 56.6367 104.309 56.3633 104.504C56.0977 104.699 55.8359 104.953 55.5781 105.266C55.3281 105.57 55.0898 105.914 54.8633 106.297C54.6445 106.68 54.4531 107.059 54.2891 107.434C54.2891 108.254 54.2812 108.973 54.2656 109.59C54.25 110.199 54.2266 110.715 54.1953 111.137C54.1719 111.559 54.1367 111.895 54.0898 112.145C54.043 112.387 53.9922 112.551 53.9375 112.637C53.8984 112.691 53.832 112.742 53.7383 112.789C53.6445 112.836 53.5391 112.875 53.4219 112.906C53.3125 112.938 53.2031 112.961 53.0938 112.977C52.9922 112.992 52.9141 113 52.8594 113C52.7344 113 52.625 112.965 52.5312 112.895C52.4453 112.816 52.4023 112.668 52.4023 112.449C52.4023 112.348 52.4102 112.211 52.4258 112.039C52.4492 111.867 52.4766 111.676 52.5078 111.465C52.5391 111.254 52.5742 111.027 52.6133 110.785C52.6523 110.543 52.6914 110.297 52.7305 110.047C52.7383 109.812 52.7461 109.551 52.7539 109.262C52.7617 108.973 52.7695 108.688 52.7773 108.406C52.7852 108.117 52.7891 107.844 52.7891 107.586C52.7969 107.32 52.8008 107.094 52.8008 106.906C52.8008 106.508 52.7891 106.145 52.7656 105.816C52.7422 105.488 52.6953 105.207 52.625 104.973C52.5625 104.738 52.4727 104.559 52.3555 104.434C52.2383 104.301 52.0859 104.234 51.8984 104.234ZM64.1445 113C63.668 113 63.2539 112.898 62.9023 112.695C62.5586 112.492 62.2734 112.219 62.0469 111.875C61.8203 111.523 61.6523 111.121 61.543 110.668C61.4336 110.215 61.3789 109.734 61.3789 109.227C61.3789 108.781 61.4219 108.328 61.5078 107.867C61.5938 107.406 61.7148 106.961 61.8711 106.531C62.0352 106.094 62.2383 105.688 62.4805 105.312C62.7227 104.93 63 104.598 63.3125 104.316C63.625 104.035 63.9727 103.812 64.3555 103.648C64.7461 103.484 65.1641 103.402 65.6094 103.402C66.1172 103.402 66.5469 103.516 66.8984 103.742C67.2578 103.969 67.5469 104.246 67.7656 104.574C67.7734 103.098 67.8477 101.793 67.9883 100.66C68.1289 99.5273 68.3242 98.5781 68.5742 97.8125C68.832 97.0469 69.1367 96.4688 69.4883 96.0781C69.8398 95.6797 70.2266 95.4805 70.6484 95.4805C70.7969 95.4805 70.9297 95.5 71.0469 95.5391C71.1719 95.5703 71.2734 95.6328 71.3516 95.7266C71.4375 95.8203 71.5 95.9492 71.5391 96.1133C71.5859 96.2695 71.6094 96.4727 71.6094 96.7227C71.6094 97.2383 71.5586 97.832 71.457 98.5039C71.3555 99.168 71.2109 99.8945 71.0234 100.684C70.8359 101.465 70.6055 102.301 70.332 103.191C70.0664 104.074 69.7695 104.992 69.4414 105.945C69.4492 106.781 69.4609 107.504 69.4766 108.113C69.4922 108.723 69.5117 109.238 69.5352 109.66C69.5664 110.082 69.6016 110.426 69.6406 110.691C69.6875 110.957 69.7383 111.164 69.793 111.312C69.8555 111.453 69.9258 111.551 70.0039 111.605C70.0898 111.652 70.1836 111.676 70.2852 111.676C70.4648 111.676 70.6445 111.598 70.8242 111.441C71.0117 111.277 71.2109 111.039 71.4219 110.727C71.6328 110.406 71.8594 110.016 72.1016 109.555C72.3516 109.094 72.625 108.562 72.9219 107.961L73.0508 107.715L73.5312 108.078L73.4023 108.324C72.9492 109.238 72.5508 109.996 72.207 110.598C71.8633 111.191 71.5469 111.668 71.2578 112.027C70.9766 112.387 70.707 112.641 70.4492 112.789C70.1914 112.93 69.9219 113 69.6406 113C69.3672 113 69.1289 112.934 68.9258 112.801C68.7305 112.66 68.5625 112.445 68.4219 112.156C68.2812 111.859 68.168 111.484 68.082 111.031C67.9961 110.57 67.9297 110.02 67.8828 109.379C67.6094 109.926 67.3281 110.422 67.0391 110.867C66.75 111.312 66.4492 111.695 66.1367 112.016C65.832 112.328 65.5117 112.57 65.1758 112.742C64.8398 112.914 64.4961 113 64.1445 113ZM65.8438 104C65.4141 104 65.0391 104.133 64.7188 104.398C64.3984 104.656 64.1328 104.996 63.9219 105.418C63.7109 105.832 63.5547 106.301 63.4531 106.824C63.3516 107.348 63.3008 107.871 63.3008 108.395C63.3008 108.824 63.332 109.238 63.3945 109.637C63.4648 110.027 63.5664 110.375 63.6992 110.68C63.8398 110.984 64.0078 111.227 64.2031 111.406C64.3984 111.586 64.625 111.676 64.8828 111.676C65.1328 111.676 65.375 111.613 65.6094 111.488C65.8516 111.363 66.0898 111.164 66.3242 110.891C66.5586 110.609 66.7969 110.25 67.0391 109.812C67.2812 109.367 67.5391 108.828 67.8125 108.195C67.7969 107.82 67.7852 107.422 67.7773 107C67.7695 106.57 67.7656 106.113 67.7656 105.629C67.5938 105.121 67.332 104.723 66.9805 104.434C66.6367 104.145 66.2578 104 65.8438 104ZM70.7656 97.1562C70.7656 96.7969 70.7227 96.5469 70.6367 96.4062C70.5586 96.2656 70.4648 96.1953 70.3555 96.1953C70.168 96.1953 70.0156 96.3789 69.8984 96.7461C69.7812 97.1055 69.6875 97.5938 69.6172 98.2109C69.5547 98.8281 69.5078 99.543 69.4766 100.355C69.4531 101.168 69.4414 102.023 69.4414 102.922V104.211C69.6836 103.422 69.8906 102.711 70.0625 102.078C70.2344 101.445 70.3711 100.855 70.4727 100.309C70.5742 99.7617 70.6484 99.2344 70.6953 98.7266C70.7422 98.2188 70.7656 97.6953 70.7656 97.1562Z" fill="black"/>
<path id="Figma" d="M34.6094 262.402V260.234C34.6094 259.297 34.6367 258.445 34.6914 257.68C34.7539 256.906 34.8867 256.191 35.0898 255.535C34.4727 255.441 33.8398 255.332 33.1914 255.207C32.543 255.074 31.9062 254.949 31.2812 254.832C30.6641 254.715 30.0742 254.617 29.5117 254.539C28.957 254.453 28.457 254.41 28.0117 254.41C27.4102 254.41 26.9102 254.461 26.5117 254.562C26.1133 254.656 25.793 254.785 25.5508 254.949C25.3086 255.113 25.1367 255.305 25.0352 255.523C24.9414 255.734 24.8945 255.961 24.8945 256.203C24.8945 256.445 24.9492 256.668 25.0586 256.871C25.1758 257.074 25.3398 257.254 25.5508 257.41C25.7617 257.559 26.0117 257.676 26.3008 257.762C26.5977 257.848 26.9258 257.891 27.2852 257.891C27.6836 257.891 28.0352 257.848 28.3398 257.762C28.6523 257.668 28.918 257.566 29.1367 257.457C29.3945 257.332 29.6211 257.188 29.8164 257.023L30.0508 257.527C29.8086 257.707 29.543 257.867 29.2539 258.008C29.0039 258.133 28.7109 258.246 28.375 258.348C28.0469 258.441 27.6836 258.488 27.2852 258.488C26.7617 258.488 26.2969 258.418 25.8906 258.277C25.4922 258.137 25.1562 257.949 24.8828 257.715C24.6094 257.473 24.4023 257.191 24.2617 256.871C24.1211 256.551 24.0508 256.211 24.0508 255.852C24.0508 255.469 24.1172 255.098 24.25 254.738C24.375 254.379 24.5898 254.059 24.8945 253.777C25.1914 253.496 25.5859 253.273 26.0781 253.109C26.5703 252.938 27.1758 252.852 27.8945 252.852C28.5586 252.852 29.2227 252.906 29.8867 253.016C30.5586 253.117 31.2188 253.246 31.8672 253.402C32.5234 253.551 33.1602 253.715 33.7773 253.895C34.4023 254.066 35 254.223 35.5703 254.363C35.9062 253.746 36.3242 253.254 36.8242 252.887C37.3242 252.512 37.8672 252.324 38.4531 252.324C38.7031 252.324 38.9258 252.367 39.1211 252.453C39.3164 252.531 39.4805 252.637 39.6133 252.77C39.7461 252.902 39.8438 253.059 39.9062 253.238C39.9766 253.41 40.0117 253.594 40.0117 253.789C40.0117 254.117 39.9336 254.402 39.7773 254.645C39.6289 254.879 39.4219 255.078 39.1562 255.242C38.8906 255.398 38.5781 255.516 38.2188 255.594C37.8594 255.664 37.4727 255.699 37.0586 255.699C36.9648 255.699 36.8672 255.699 36.7656 255.699C36.6719 255.699 36.5781 255.691 36.4844 255.676C36.4219 256.066 36.3711 256.504 36.332 256.988C36.3008 257.465 36.2852 258.004 36.2852 258.605V262.402H37.8555L37.6094 263.117H36.2852V266C36.2852 266.656 36.2773 267.23 36.2617 267.723C36.2461 268.207 36.2031 268.641 36.1328 269.023C36.0625 269.398 35.957 269.738 35.8164 270.043C35.6758 270.34 35.4805 270.633 35.2305 270.922C34.8008 271.414 34.2031 271.816 33.4375 272.129C32.6719 272.441 31.7422 272.598 30.6484 272.598C29.9766 272.598 29.3359 272.504 28.7266 272.316C28.1172 272.129 27.582 271.867 27.1211 271.531C26.6602 271.195 26.293 270.793 26.0195 270.324C25.7461 269.855 25.6094 269.336 25.6094 268.766C25.6094 268.344 25.6758 267.965 25.8086 267.629C25.9492 267.293 26.1289 266.996 26.3477 266.738C26.5664 266.473 26.8047 266.246 27.0625 266.059C27.3281 265.871 27.5859 265.715 27.8359 265.59C28.0859 265.465 28.3125 265.367 28.5156 265.297C28.7188 265.227 28.8711 265.18 28.9727 265.156L29.207 265.637C29.0273 265.73 28.8242 265.859 28.5977 266.023C28.3789 266.18 28.1719 266.383 27.9766 266.633C27.7812 266.875 27.6172 267.172 27.4844 267.523C27.3516 267.875 27.2852 268.289 27.2852 268.766C27.2852 269.273 27.3711 269.73 27.543 270.137C27.7148 270.535 27.9531 270.875 28.2578 271.156C28.5703 271.43 28.9375 271.641 29.3594 271.789C29.7891 271.93 30.2578 272 30.7656 272C31.3359 272 31.8555 271.922 32.3242 271.766C32.8008 271.609 33.207 271.348 33.543 270.98C33.8789 270.613 34.1406 270.125 34.3281 269.516C34.5156 268.906 34.6094 268.148 34.6094 267.242V263.117H32.3359L32.5703 262.402H34.6094ZM38.4531 252.969C38.1016 252.969 37.7773 253.098 37.4805 253.355C37.1836 253.605 36.9375 254.035 36.7422 254.645C36.9844 254.684 37.2188 254.715 37.4453 254.738C37.6719 254.762 37.8867 254.773 38.0898 254.773C38.3008 254.773 38.4805 254.746 38.6289 254.691C38.7852 254.629 38.9102 254.551 39.0039 254.457C39.0977 254.363 39.168 254.258 39.2148 254.141C39.2617 254.023 39.2852 253.906 39.2852 253.789C39.2852 253.562 39.207 253.371 39.0508 253.215C38.8945 253.051 38.6953 252.969 38.4531 252.969ZM39.543 266.844L39.4258 267.078L39.3086 267.324L38.8281 266.961L38.9453 266.715C39.1406 266.316 39.3008 265.918 39.4258 265.52C39.5586 265.113 39.6641 264.734 39.7422 264.383C39.8281 264.031 39.8984 263.723 39.9531 263.457C40.0078 263.191 40.0625 263 40.1172 262.883C40.1641 262.789 40.2305 262.715 40.3164 262.66C40.4102 262.598 40.5039 262.547 40.5977 262.508C40.6992 262.469 40.793 262.441 40.8789 262.426C40.9727 262.41 41.0391 262.402 41.0781 262.402C41.25 262.402 41.3633 262.438 41.418 262.508C41.4805 262.578 41.5117 262.703 41.5117 262.883C41.5117 262.969 41.4922 263.184 41.4531 263.527C41.4219 263.863 41.3828 264.289 41.3359 264.805C41.2969 265.312 41.2578 265.887 41.2188 266.527C41.1875 267.16 41.1719 267.816 41.1719 268.496C41.1719 268.988 41.1953 269.379 41.2422 269.668C41.2891 269.949 41.3477 270.16 41.418 270.301C41.4961 270.441 41.5781 270.531 41.6641 270.57C41.7578 270.609 41.8516 270.629 41.9453 270.629C42.0703 270.629 42.2109 270.574 42.3672 270.465C42.5234 270.355 42.707 270.164 42.918 269.891C43.1289 269.609 43.3711 269.234 43.6445 268.766C43.918 268.289 44.2383 267.688 44.6055 266.961L44.7344 266.715L45.2148 267.078L45.0859 267.324C44.7891 267.902 44.4922 268.473 44.1953 269.035C43.9062 269.598 43.6094 270.098 43.3047 270.535C43.0078 270.973 42.707 271.328 42.4023 271.602C42.0977 271.867 41.793 272 41.4883 272C41.168 272 40.8906 271.938 40.6562 271.812C40.4297 271.68 40.2383 271.465 40.082 271.168C39.9336 270.871 39.8203 270.48 39.7422 269.996C39.6719 269.504 39.6367 268.898 39.6367 268.18C39.6367 267.977 39.6367 267.766 39.6367 267.547C39.6367 267.32 39.6445 267.086 39.6602 266.844H39.543ZM41.9453 260C41.9453 260.273 41.8516 260.504 41.6641 260.691C41.4844 260.871 41.2578 260.961 40.9844 260.961C40.7188 260.961 40.4922 260.871 40.3047 260.691C40.1172 260.504 40.0234 260.273 40.0234 260C40.0234 259.734 40.1172 259.508 40.3047 259.32C40.4922 259.133 40.7188 259.039 40.9844 259.039C41.2578 259.039 41.4844 259.133 41.6641 259.32C41.8516 259.508 41.9453 259.734 41.9453 260ZM48.0039 276.441C48.0039 276.098 48.0664 275.75 48.1914 275.398C48.3242 275.047 48.5039 274.688 48.7305 274.32C48.957 273.953 49.2188 273.57 49.5156 273.172C49.8203 272.781 50.1484 272.375 50.5 271.953V269.738C50.3125 270.105 50.1016 270.43 49.8672 270.711C49.6328 270.992 49.3828 271.23 49.1172 271.426C48.8594 271.613 48.5898 271.758 48.3086 271.859C48.0352 271.953 47.7656 272 47.5 272C47.1328 272 46.7773 271.91 46.4336 271.73C46.0977 271.551 45.7969 271.281 45.5312 270.922C45.2656 270.555 45.0547 270.094 44.8984 269.539C44.7422 268.984 44.6641 268.332 44.6641 267.582C44.6641 266.949 44.7383 266.324 44.8867 265.707C45.0352 265.09 45.2578 264.539 45.5547 264.055C45.8516 263.562 46.2188 263.164 46.6562 262.859C47.0938 262.555 47.6055 262.402 48.1914 262.402C48.6523 262.402 49.082 262.496 49.4805 262.684C49.8867 262.871 50.2266 263.145 50.5 263.504V263.363C50.5 263.215 50.543 263.082 50.6289 262.965C50.7227 262.84 50.8359 262.738 50.9688 262.66C51.1094 262.574 51.2539 262.512 51.4023 262.473C51.5586 262.426 51.6953 262.402 51.8125 262.402C51.9453 262.402 52.0391 262.422 52.0938 262.461C52.1484 262.492 52.1758 262.551 52.1758 262.637C52.1758 262.762 52.1602 263.043 52.1289 263.48C52.0977 263.918 52.082 264.559 52.082 265.402V270.488C52.2773 270.246 52.4844 269.977 52.7031 269.68C52.9219 269.383 53.1406 269.074 53.3594 268.754C53.5781 268.426 53.7891 268.09 53.9922 267.746C54.2031 267.402 54.3984 267.059 54.5781 266.715L54.6953 266.48L55.1758 266.844L55.0586 267.078C54.8711 267.453 54.6523 267.844 54.4023 268.25C54.1602 268.648 53.9023 269.043 53.6289 269.434C53.3633 269.816 53.0938 270.188 52.8203 270.547C52.5547 270.898 52.3086 271.215 52.082 271.496V274.039C52.082 274.758 52.0156 275.367 51.8828 275.867C51.7578 276.375 51.582 276.785 51.3555 277.098C51.1367 277.418 50.8711 277.648 50.5586 277.789C50.2539 277.93 49.9219 278 49.5625 278C49.1172 278 48.7461 277.859 48.4492 277.578C48.1523 277.305 48.0039 276.926 48.0039 276.441ZM48.2148 270.805C48.457 270.805 48.6953 270.734 48.9297 270.594C49.1719 270.453 49.3945 270.273 49.5977 270.055C49.8008 269.836 49.9805 269.598 50.1367 269.34C50.3008 269.074 50.4219 268.816 50.5 268.566V265.262C50.5 264.91 50.4453 264.594 50.3359 264.312C50.2266 264.023 50.082 263.781 49.9023 263.586C49.7227 263.383 49.5156 263.227 49.2812 263.117C49.0547 263.008 48.8203 262.953 48.5781 262.953C48.2031 262.953 47.875 263.066 47.5938 263.293C47.3125 263.512 47.0781 263.805 46.8906 264.172C46.7031 264.531 46.5625 264.945 46.4688 265.414C46.3828 265.883 46.3398 266.359 46.3398 266.844C46.3398 267.445 46.375 267.988 46.4453 268.473C46.5234 268.957 46.6406 269.375 46.7969 269.727C46.9531 270.07 47.1484 270.336 47.3828 270.523C47.6172 270.711 47.8945 270.805 48.2148 270.805ZM49.4336 277.285C49.5586 277.285 49.6836 277.258 49.8086 277.203C49.9414 277.156 50.0586 277.043 50.1602 276.863C50.2617 276.684 50.3438 276.418 50.4062 276.066C50.4688 275.715 50.5 275.238 50.5 274.637V272.891C49.9609 273.539 49.5195 274.152 49.1758 274.73C48.8398 275.316 48.6719 275.863 48.6719 276.371C48.6719 276.613 48.7383 276.824 48.8711 277.004C49.0039 277.191 49.1914 277.285 49.4336 277.285ZM58.5156 263.234C58.2891 263.234 58.0703 263.316 57.8594 263.48C57.6562 263.637 57.4609 263.855 57.2734 264.137C57.0859 264.41 56.9023 264.734 56.7227 265.109C56.5508 265.477 56.3789 265.871 56.207 266.293V266.434C56.1836 267.121 56.1602 267.852 56.1367 268.625C56.1211 269.398 56.1133 270.242 56.1133 271.156C56.1133 271.312 56.0586 271.445 55.9492 271.555C55.8477 271.656 55.7266 271.742 55.5859 271.812C55.4453 271.875 55.3008 271.922 55.1523 271.953C55.0039 271.984 54.8828 272 54.7891 272C54.6719 272 54.5625 271.965 54.4609 271.895C54.3594 271.824 54.3086 271.668 54.3086 271.426C54.3086 271.309 54.3203 271.164 54.3438 270.992C54.3672 270.812 54.3984 270.621 54.4375 270.418C54.4688 270.215 54.5078 270.008 54.5547 269.797C54.5938 269.578 54.6328 269.375 54.6719 269.188C54.6719 268.523 54.6719 267.926 54.6719 267.395C54.6641 266.863 54.6602 266.391 54.6602 265.977C54.6602 265.562 54.6602 265.199 54.6602 264.887C54.6523 264.574 54.6484 264.305 54.6484 264.078C54.6484 263.703 54.6562 263.43 54.6719 263.258C54.6797 263.078 54.6953 262.953 54.7188 262.883C54.7578 262.773 54.8281 262.688 54.9297 262.625C55.0391 262.562 55.1523 262.516 55.2695 262.484C55.3867 262.445 55.5039 262.422 55.6211 262.414C55.7383 262.406 55.8281 262.402 55.8906 262.402C56.0391 262.402 56.1367 262.445 56.1836 262.531C56.2305 262.617 56.2539 262.75 56.2539 262.93C56.2539 263.336 56.2539 263.703 56.2539 264.031C56.2539 264.359 56.2461 264.688 56.2305 265.016C56.3789 264.664 56.5508 264.332 56.7461 264.02C56.9492 263.699 57.1719 263.422 57.4141 263.188C57.6562 262.945 57.9102 262.754 58.1758 262.613C58.4492 262.473 58.7305 262.402 59.0195 262.402C59.3711 262.402 59.6602 262.477 59.8867 262.625C60.1211 262.766 60.3047 262.965 60.4375 263.223C60.5781 263.48 60.6797 263.785 60.7422 264.137C60.8125 264.48 60.8594 264.855 60.8828 265.262C61.1016 264.863 61.3359 264.492 61.5859 264.148C61.8438 263.797 62.1133 263.492 62.3945 263.234C62.6836 262.977 62.9844 262.773 63.2969 262.625C63.6172 262.477 63.9492 262.402 64.293 262.402C64.8867 262.402 65.3203 262.59 65.5938 262.965C65.8672 263.332 66.0039 263.832 66.0039 264.465C66.0039 264.863 65.9727 265.309 65.9102 265.801C65.8477 266.293 65.7812 266.793 65.7109 267.301C65.6406 267.801 65.5742 268.293 65.5117 268.777C65.4492 269.262 65.418 269.703 65.418 270.102C65.418 270.586 65.5391 270.828 65.7812 270.828C65.9062 270.828 66.043 270.754 66.1914 270.605C66.3398 270.449 66.5078 270.215 66.6953 269.902C66.8906 269.582 67.1133 269.18 67.3633 268.695C67.6211 268.211 67.918 267.633 68.2539 266.961L68.3711 266.715L68.8516 267.078L68.7344 267.324C68.2734 268.246 67.8789 269.008 67.5508 269.609C67.2305 270.211 66.9414 270.691 66.6836 271.051C66.4258 271.402 66.1797 271.648 65.9453 271.789C65.7188 271.93 65.4648 272 65.1836 272C65.0195 272 64.8594 271.977 64.7031 271.93C64.5469 271.883 64.4102 271.801 64.293 271.684C64.1758 271.566 64.082 271.41 64.0117 271.215C63.9414 271.012 63.9062 270.754 63.9062 270.441C63.9062 269.973 63.9375 269.445 64 268.859C64.0625 268.273 64.1328 267.688 64.2109 267.102C64.2891 266.516 64.3594 265.965 64.4219 265.449C64.4844 264.926 64.5156 264.5 64.5156 264.172C64.5156 263.883 64.4531 263.652 64.3281 263.48C64.2031 263.301 64.0156 263.211 63.7656 263.211C63.5156 263.211 63.2539 263.309 62.9805 263.504C62.7148 263.699 62.4531 263.953 62.1953 264.266C61.9453 264.57 61.707 264.914 61.4805 265.297C61.2617 265.68 61.0703 266.059 60.9062 266.434C60.9062 267.254 60.8984 267.973 60.8828 268.59C60.8672 269.199 60.8438 269.715 60.8125 270.137C60.7891 270.559 60.7539 270.895 60.707 271.145C60.6602 271.387 60.6094 271.551 60.5547 271.637C60.5156 271.691 60.4492 271.742 60.3555 271.789C60.2617 271.836 60.1562 271.875 60.0391 271.906C59.9297 271.938 59.8203 271.961 59.7109 271.977C59.6094 271.992 59.5312 272 59.4766 272C59.3516 272 59.2422 271.965 59.1484 271.895C59.0625 271.816 59.0195 271.668 59.0195 271.449C59.0195 271.348 59.0273 271.211 59.043 271.039C59.0664 270.867 59.0938 270.676 59.125 270.465C59.1562 270.254 59.1914 270.027 59.2305 269.785C59.2695 269.543 59.3086 269.297 59.3477 269.047C59.3555 268.812 59.3633 268.551 59.3711 268.262C59.3789 267.973 59.3867 267.688 59.3945 267.406C59.4023 267.117 59.4062 266.844 59.4062 266.586C59.4141 266.32 59.418 266.094 59.418 265.906C59.418 265.508 59.4062 265.145 59.3828 264.816C59.3594 264.488 59.3125 264.207 59.2422 263.973C59.1797 263.738 59.0898 263.559 58.9727 263.434C58.8555 263.301 58.7031 263.234 58.5156 263.234ZM75.4844 269.094C75.4844 269.539 75.5234 269.914 75.6016 270.219C75.6797 270.523 75.8164 270.676 76.0117 270.676C76.1289 270.676 76.2539 270.621 76.3867 270.512C76.5273 270.395 76.6875 270.207 76.8672 269.949C77.0469 269.691 77.25 269.359 77.4766 268.953C77.7109 268.539 77.9766 268.035 78.2734 267.441L78.625 266.715L79.1055 267.078L78.7539 267.805C78.4258 268.461 78.1172 269.051 77.8281 269.574C77.5469 270.09 77.2773 270.527 77.0195 270.887C76.7617 271.246 76.5078 271.523 76.2578 271.719C76.0156 271.906 75.7734 272 75.5312 272C75.2734 272 75.0547 271.93 74.875 271.789C74.7031 271.648 74.5586 271.457 74.4414 271.215C74.3242 270.965 74.2344 270.68 74.1719 270.359C74.1094 270.031 74.0664 269.684 74.043 269.316C73.8555 269.691 73.6484 270.043 73.4219 270.371C73.1953 270.691 72.957 270.973 72.707 271.215C72.4648 271.457 72.2109 271.648 71.9453 271.789C71.6797 271.93 71.4141 272 71.1484 272C70.7578 272 70.3789 271.918 70.0117 271.754C69.6445 271.59 69.3164 271.34 69.0273 271.004C68.7461 270.668 68.5195 270.246 68.3477 269.738C68.1758 269.223 68.0898 268.617 68.0898 267.922C68.0898 267.109 68.1953 266.367 68.4062 265.695C68.6172 265.016 68.9023 264.434 69.2617 263.949C69.6211 263.457 70.0352 263.078 70.5039 262.812C70.9727 262.539 71.4648 262.402 71.9805 262.402C72.293 262.402 72.582 262.473 72.8477 262.613C73.1133 262.754 73.3438 262.926 73.5391 263.129C73.7422 263.324 73.9102 263.535 74.043 263.762C74.1758 263.98 74.2656 264.168 74.3125 264.324L74.4531 263.188C74.4688 263.039 74.5391 262.914 74.6641 262.812C74.7969 262.711 74.9414 262.633 75.0977 262.578C75.2539 262.516 75.4062 262.473 75.5547 262.449C75.7031 262.418 75.8086 262.402 75.8711 262.402C75.9648 262.402 76.0273 262.418 76.0586 262.449C76.0898 262.48 76.1055 262.543 76.1055 262.637C76.1055 262.754 76.0703 262.992 76 263.352C75.9375 263.703 75.8672 264.156 75.7891 264.711C75.7188 265.258 75.6484 265.902 75.5781 266.645C75.5156 267.387 75.4844 268.203 75.4844 269.094ZM74.1953 266C74.1953 265.641 74.1406 265.289 74.0312 264.945C73.9219 264.594 73.7734 264.285 73.5859 264.02C73.3984 263.746 73.1797 263.527 72.9297 263.363C72.6875 263.199 72.4297 263.117 72.1562 263.117C71.8203 263.117 71.5039 263.215 71.207 263.41C70.918 263.598 70.6641 263.867 70.4453 264.219C70.2344 264.562 70.0664 264.98 69.9414 265.473C69.8164 265.957 69.7539 266.492 69.7539 267.078C69.7539 268.25 69.9375 269.145 70.3047 269.762C70.6719 270.371 71.1602 270.676 71.7695 270.676C72.0352 270.676 72.3086 270.57 72.5898 270.359C72.8789 270.141 73.1406 269.832 73.375 269.434C73.6172 269.027 73.8125 268.535 73.9609 267.957C74.1172 267.379 74.1953 266.727 74.1953 266Z" fill="black"/>
<path id="Vs code" d="M186.68 101.441C187.156 101.441 187.562 101.566 187.898 101.816C188.234 102.059 188.512 102.41 188.73 102.871C188.949 103.324 189.109 103.879 189.211 104.535C189.312 105.184 189.363 105.91 189.363 106.715C189.363 107.465 189.32 108.25 189.234 109.07C189.148 109.891 189.02 110.723 188.848 111.566C188.684 112.402 188.477 113.23 188.227 114.051C187.984 114.871 187.707 115.652 187.395 116.395C187.082 117.137 186.734 117.828 186.352 118.469C185.969 119.102 185.555 119.652 185.109 120.121C184.664 120.582 184.188 120.941 183.68 121.199C183.18 121.465 182.652 121.598 182.098 121.598C181.512 121.598 181.004 121.492 180.574 121.281C180.152 121.078 179.793 120.801 179.496 120.449C179.207 120.09 178.973 119.68 178.793 119.219C178.613 118.75 178.473 118.258 178.371 117.742C178.277 117.227 178.215 116.703 178.184 116.172C178.152 115.633 178.137 115.121 178.137 114.637C178.137 113.707 178.176 112.805 178.254 111.93C178.332 111.047 178.418 110.195 178.512 109.375C178.613 108.555 178.703 107.77 178.781 107.02C178.859 106.27 178.898 105.555 178.898 104.875C178.898 104.305 178.867 103.832 178.805 103.457C178.742 103.074 178.645 102.77 178.512 102.543C178.387 102.316 178.227 102.156 178.031 102.062C177.836 101.969 177.605 101.922 177.34 101.922C176.996 101.922 176.656 102 176.32 102.156C175.984 102.312 175.66 102.531 175.348 102.812C175.043 103.086 174.762 103.414 174.504 103.797C174.246 104.172 174.023 104.582 173.836 105.027C173.641 105.473 173.488 105.941 173.379 106.434C173.27 106.918 173.215 107.406 173.215 107.898C173.215 108.406 173.25 108.832 173.32 109.176C173.391 109.52 173.488 109.797 173.613 110.008C173.73 110.219 173.875 110.371 174.047 110.465C174.227 110.559 174.422 110.605 174.633 110.605C175 110.605 175.332 110.508 175.629 110.312C175.926 110.109 176.184 109.828 176.402 109.469C176.621 109.102 176.801 108.664 176.941 108.156C177.082 107.641 177.184 107.074 177.246 106.457L177.797 106.48C177.773 106.746 177.73 107.051 177.668 107.395C177.613 107.73 177.531 108.074 177.422 108.426C177.312 108.77 177.176 109.109 177.012 109.445C176.848 109.781 176.645 110.078 176.402 110.336C176.16 110.594 175.879 110.805 175.559 110.969C175.238 111.125 174.867 111.203 174.445 111.203C174.141 111.203 173.824 111.145 173.496 111.027C173.168 110.91 172.867 110.727 172.594 110.477C172.32 110.227 172.098 109.902 171.926 109.504C171.746 109.098 171.656 108.609 171.656 108.039C171.656 107.477 171.738 106.922 171.902 106.375C172.059 105.828 172.277 105.305 172.559 104.805C172.832 104.305 173.16 103.844 173.543 103.422C173.918 103 174.328 102.633 174.773 102.32C175.219 102.008 175.688 101.766 176.18 101.594C176.672 101.414 177.164 101.324 177.656 101.324C179.75 101.324 180.797 102.844 180.797 105.883C180.797 106.625 180.762 107.414 180.691 108.25C180.629 109.086 180.559 109.941 180.48 110.816C180.41 111.684 180.34 112.555 180.27 113.43C180.207 114.297 180.176 115.133 180.176 115.938C180.176 116.984 180.223 117.832 180.316 118.48C180.41 119.129 180.547 119.633 180.727 119.992C180.906 120.344 181.125 120.582 181.383 120.707C181.641 120.824 181.934 120.883 182.262 120.883C182.754 120.883 183.238 120.703 183.715 120.344C184.191 119.977 184.645 119.484 185.074 118.867C185.504 118.242 185.898 117.516 186.258 116.688C186.625 115.852 186.941 114.965 187.207 114.027C187.473 113.082 187.68 112.109 187.828 111.109C187.977 110.102 188.051 109.117 188.051 108.156C188.051 107.07 187.992 106.168 187.875 105.449C187.758 104.723 187.598 104.145 187.395 103.715C187.191 103.277 186.957 102.969 186.691 102.789C186.426 102.609 186.141 102.52 185.836 102.52C185.625 102.52 185.422 102.559 185.227 102.637C185.039 102.707 184.863 102.797 184.699 102.906C184.535 103.016 184.387 103.133 184.254 103.258C184.121 103.383 184.012 103.496 183.926 103.598L183.445 103.234C183.555 103.094 183.715 102.922 183.926 102.719C184.145 102.516 184.395 102.32 184.676 102.133C184.965 101.945 185.277 101.785 185.613 101.652C185.957 101.512 186.312 101.441 186.68 101.441ZM196.805 116.922C196.805 117.453 196.723 117.965 196.559 118.457C196.402 118.941 196.168 119.375 195.855 119.758C195.551 120.133 195.168 120.434 194.707 120.66C194.254 120.887 193.734 121 193.148 121C192.727 121 192.348 120.934 192.012 120.801C191.684 120.66 191.402 120.477 191.168 120.25C190.934 120.016 190.754 119.754 190.629 119.465C190.504 119.168 190.441 118.863 190.441 118.551C190.441 118.238 190.5 117.949 190.617 117.684C190.742 117.41 190.906 117.18 191.109 116.992C191.32 116.797 191.559 116.645 191.824 116.535C192.09 116.426 192.371 116.371 192.668 116.371C192.855 116.371 193.051 116.395 193.254 116.441V116.781C193.004 116.781 192.758 116.832 192.516 116.934C192.281 117.035 192.07 117.176 191.883 117.355C191.703 117.527 191.559 117.738 191.449 117.988C191.34 118.23 191.285 118.492 191.285 118.773C191.285 119.289 191.461 119.703 191.812 120.016C192.172 120.32 192.66 120.473 193.277 120.473C193.59 120.473 193.875 120.414 194.133 120.297C194.391 120.172 194.609 120.004 194.789 119.793C194.977 119.574 195.117 119.316 195.211 119.02C195.312 118.723 195.363 118.398 195.363 118.047C195.363 117.711 195.297 117.398 195.164 117.109C195.031 116.82 194.855 116.547 194.637 116.289C194.418 116.031 194.168 115.789 193.887 115.562C193.613 115.336 193.332 115.121 193.043 114.918C192.762 114.707 192.484 114.504 192.211 114.309C191.938 114.113 191.699 113.918 191.496 113.723L190.324 116.324L189.844 115.961L191.039 113.348C190.75 113.074 190.535 112.816 190.395 112.574C190.262 112.324 190.195 112.027 190.195 111.684C190.195 111.496 190.227 111.32 190.289 111.156C190.359 110.984 190.449 110.84 190.559 110.723C190.676 110.598 190.809 110.5 190.957 110.43C191.105 110.359 191.262 110.324 191.426 110.324C191.723 110.324 191.945 110.41 192.094 110.582C192.242 110.746 192.316 110.953 192.316 111.203C192.316 111.32 192.305 111.445 192.281 111.578C192.258 111.703 192.227 111.832 192.188 111.965C192.156 112.09 192.121 112.207 192.082 112.316C192.051 112.426 192.023 112.52 192 112.598C192.234 112.777 192.516 112.953 192.844 113.125C193.172 113.289 193.512 113.461 193.863 113.641C194.223 113.82 194.578 114.016 194.93 114.227C195.281 114.438 195.594 114.672 195.867 114.93C196.148 115.188 196.375 115.48 196.547 115.809C196.719 116.137 196.805 116.508 196.805 116.922ZM191.449 110.852C191.34 110.852 191.25 110.891 191.18 110.969C191.117 111.039 191.086 111.137 191.086 111.262C191.086 111.402 191.121 111.559 191.191 111.73C191.262 111.902 191.387 112.07 191.566 112.234C191.645 112.07 191.703 111.91 191.742 111.754C191.789 111.598 191.812 111.441 191.812 111.285C191.812 111.16 191.777 111.059 191.707 110.98C191.645 110.895 191.559 110.852 191.449 110.852ZM207.258 114.309C207.352 114.16 207.43 113.977 207.492 113.758C207.562 113.539 207.598 113.32 207.598 113.102C207.598 112.836 207.531 112.605 207.398 112.41C207.266 112.215 207.027 112.117 206.684 112.117C206.457 112.117 206.227 112.199 205.992 112.363C205.758 112.527 205.539 112.773 205.336 113.102C205.141 113.43 204.98 113.844 204.855 114.344C204.73 114.844 204.668 115.43 204.668 116.102C204.668 116.633 204.723 117.117 204.832 117.555C204.941 117.992 205.102 118.367 205.312 118.68C205.523 118.992 205.777 119.238 206.074 119.418C206.379 119.59 206.719 119.676 207.094 119.676C207.367 119.676 207.645 119.605 207.926 119.465C208.215 119.324 208.504 119.105 208.793 118.809C209.09 118.512 209.395 118.129 209.707 117.66C210.02 117.184 210.34 116.617 210.668 115.961L210.785 115.715L211.266 116.078L211.148 116.324C210.727 117.16 210.305 117.875 209.883 118.469C209.469 119.062 209.059 119.547 208.652 119.922C208.246 120.297 207.848 120.57 207.457 120.742C207.074 120.914 206.703 121 206.344 121C205.836 121 205.383 120.895 204.984 120.684C204.586 120.473 204.25 120.188 203.977 119.828C203.703 119.461 203.492 119.039 203.344 118.562C203.203 118.078 203.133 117.57 203.133 117.039C203.133 116.195 203.246 115.43 203.473 114.742C203.707 114.047 204.008 113.453 204.375 112.961C204.742 112.469 205.156 112.086 205.617 111.812C206.078 111.539 206.543 111.402 207.012 111.402C207.371 111.402 207.672 111.453 207.914 111.555C208.156 111.656 208.352 111.785 208.5 111.941C208.648 112.098 208.754 112.266 208.816 112.445C208.879 112.625 208.91 112.797 208.91 112.961C208.91 113.125 208.875 113.297 208.805 113.477C208.734 113.648 208.629 113.812 208.488 113.969C208.355 114.117 208.195 114.254 208.008 114.379C207.82 114.496 207.609 114.582 207.375 114.637L207.258 114.309ZM220.617 116.078L220.488 116.324C220.223 116.855 219.867 117.281 219.422 117.602C218.984 117.914 218.508 118.117 217.992 118.211C217.852 118.609 217.668 118.98 217.441 119.324C217.223 119.66 216.969 119.953 216.68 120.203C216.398 120.453 216.078 120.648 215.719 120.789C215.367 120.93 214.984 121 214.57 121C213.969 121 213.426 120.875 212.941 120.625C212.465 120.367 212.059 120.023 211.723 119.594C211.387 119.156 211.129 118.648 210.949 118.07C210.77 117.484 210.68 116.859 210.68 116.195C210.68 115.617 210.746 115.094 210.879 114.625C211.012 114.148 211.18 113.727 211.383 113.359C211.586 112.984 211.812 112.66 212.062 112.387C212.312 112.105 212.559 111.875 212.801 111.695C213.043 111.516 213.262 111.383 213.457 111.297C213.66 111.203 213.812 111.156 213.914 111.156L214.066 111.566C213.746 111.801 213.461 112.129 213.211 112.551C212.992 112.91 212.793 113.387 212.613 113.98C212.441 114.574 212.355 115.312 212.355 116.195C212.355 116.734 212.406 117.258 212.508 117.766C212.609 118.273 212.758 118.723 212.953 119.113C213.148 119.504 213.387 119.816 213.668 120.051C213.957 120.285 214.281 120.402 214.641 120.402C215.133 120.402 215.539 120.207 215.859 119.816C216.188 119.418 216.43 118.875 216.586 118.188C216.18 118.102 215.793 117.941 215.426 117.707C215.059 117.473 214.734 117.184 214.453 116.84C214.172 116.488 213.945 116.086 213.773 115.633C213.609 115.18 213.527 114.688 213.527 114.156C213.527 113.719 213.582 113.336 213.691 113.008C213.809 112.672 213.961 112.395 214.148 112.176C214.336 111.949 214.551 111.781 214.793 111.672C215.043 111.555 215.305 111.496 215.578 111.496C215.898 111.496 216.227 111.59 216.562 111.777C216.898 111.957 217.203 112.23 217.477 112.598C217.75 112.957 217.973 113.41 218.145 113.957C218.316 114.504 218.402 115.141 218.402 115.867C218.402 116.141 218.387 116.41 218.355 116.676C218.324 116.941 218.277 117.199 218.215 117.449C218.59 117.34 218.93 117.164 219.234 116.922C219.547 116.68 219.805 116.359 220.008 115.961L220.137 115.715L220.617 116.078ZM214.301 114.062C214.301 114.523 214.363 114.949 214.488 115.34C214.621 115.723 214.797 116.062 215.016 116.359C215.234 116.648 215.488 116.891 215.777 117.086C216.066 117.281 216.375 117.418 216.703 117.496C216.742 117.277 216.766 117.051 216.773 116.816C216.789 116.574 216.797 116.328 216.797 116.078C216.797 115.523 216.754 115.023 216.668 114.578C216.582 114.125 216.469 113.742 216.328 113.43C216.188 113.109 216.023 112.863 215.836 112.691C215.648 112.52 215.457 112.434 215.262 112.434C214.996 112.434 214.77 112.578 214.582 112.867C214.395 113.148 214.301 113.547 214.301 114.062ZM222.527 121C222.051 121 221.637 120.898 221.285 120.695C220.941 120.492 220.656 120.219 220.43 119.875C220.203 119.523 220.035 119.121 219.926 118.668C219.816 118.215 219.762 117.734 219.762 117.227C219.762 116.781 219.805 116.328 219.891 115.867C219.977 115.406 220.098 114.961 220.254 114.531C220.418 114.094 220.621 113.688 220.863 113.312C221.105 112.93 221.383 112.598 221.695 112.316C222.008 112.035 222.355 111.812 222.738 111.648C223.129 111.484 223.547 111.402 223.992 111.402C224.5 111.402 224.93 111.516 225.281 111.742C225.641 111.969 225.93 112.246 226.148 112.574C226.156 111.098 226.23 109.793 226.371 108.66C226.512 107.527 226.707 106.578 226.957 105.812C227.215 105.047 227.52 104.469 227.871 104.078C228.223 103.68 228.609 103.48 229.031 103.48C229.18 103.48 229.312 103.5 229.43 103.539C229.555 103.57 229.656 103.633 229.734 103.727C229.82 103.82 229.883 103.949 229.922 104.113C229.969 104.27 229.992 104.473 229.992 104.723C229.992 105.238 229.941 105.832 229.84 106.504C229.738 107.168 229.594 107.895 229.406 108.684C229.219 109.465 228.988 110.301 228.715 111.191C228.449 112.074 228.152 112.992 227.824 113.945C227.832 114.781 227.844 115.504 227.859 116.113C227.875 116.723 227.895 117.238 227.918 117.66C227.949 118.082 227.984 118.426 228.023 118.691C228.07 118.957 228.121 119.164 228.176 119.312C228.238 119.453 228.309 119.551 228.387 119.605C228.473 119.652 228.566 119.676 228.668 119.676C228.848 119.676 229.027 119.598 229.207 119.441C229.395 119.277 229.594 119.039 229.805 118.727C230.016 118.406 230.242 118.016 230.484 117.555C230.734 117.094 231.008 116.562 231.305 115.961L231.434 115.715L231.914 116.078L231.785 116.324C231.332 117.238 230.934 117.996 230.59 118.598C230.246 119.191 229.93 119.668 229.641 120.027C229.359 120.387 229.09 120.641 228.832 120.789C228.574 120.93 228.305 121 228.023 121C227.75 121 227.512 120.934 227.309 120.801C227.113 120.66 226.945 120.445 226.805 120.156C226.664 119.859 226.551 119.484 226.465 119.031C226.379 118.57 226.312 118.02 226.266 117.379C225.992 117.926 225.711 118.422 225.422 118.867C225.133 119.312 224.832 119.695 224.52 120.016C224.215 120.328 223.895 120.57 223.559 120.742C223.223 120.914 222.879 121 222.527 121ZM224.227 112C223.797 112 223.422 112.133 223.102 112.398C222.781 112.656 222.516 112.996 222.305 113.418C222.094 113.832 221.938 114.301 221.836 114.824C221.734 115.348 221.684 115.871 221.684 116.395C221.684 116.824 221.715 117.238 221.777 117.637C221.848 118.027 221.949 118.375 222.082 118.68C222.223 118.984 222.391 119.227 222.586 119.406C222.781 119.586 223.008 119.676 223.266 119.676C223.516 119.676 223.758 119.613 223.992 119.488C224.234 119.363 224.473 119.164 224.707 118.891C224.941 118.609 225.18 118.25 225.422 117.812C225.664 117.367 225.922 116.828 226.195 116.195C226.18 115.82 226.168 115.422 226.16 115C226.152 114.57 226.148 114.113 226.148 113.629C225.977 113.121 225.715 112.723 225.363 112.434C225.02 112.145 224.641 112 224.227 112ZM229.148 105.156C229.148 104.797 229.105 104.547 229.02 104.406C228.941 104.266 228.848 104.195 228.738 104.195C228.551 104.195 228.398 104.379 228.281 104.746C228.164 105.105 228.07 105.594 228 106.211C227.938 106.828 227.891 107.543 227.859 108.355C227.836 109.168 227.824 110.023 227.824 110.922V112.211C228.066 111.422 228.273 110.711 228.445 110.078C228.617 109.445 228.754 108.855 228.855 108.309C228.957 107.762 229.031 107.234 229.078 106.727C229.125 106.219 229.148 105.695 229.148 105.156ZM234.902 119.676C235.176 119.676 235.453 119.605 235.734 119.465C236.023 119.324 236.312 119.105 236.602 118.809C236.898 118.512 237.203 118.129 237.516 117.66C237.828 117.184 238.148 116.617 238.477 115.961L238.594 115.715L239.074 116.078L238.957 116.324C238.535 117.16 238.113 117.875 237.691 118.469C237.277 119.062 236.867 119.547 236.461 119.922C236.062 120.297 235.668 120.57 235.277 120.742C234.887 120.914 234.512 121 234.152 121C233.645 121 233.191 120.895 232.793 120.684C232.395 120.473 232.059 120.188 231.785 119.828C231.512 119.461 231.305 119.039 231.164 118.562C231.016 118.078 230.941 117.57 230.941 117.039C230.941 116.195 231.059 115.43 231.293 114.742C231.52 114.047 231.824 113.453 232.207 112.961C232.598 112.469 233.039 112.086 233.531 111.812C234.023 111.539 234.535 111.402 235.066 111.402C235.605 111.402 236.016 111.539 236.297 111.812C236.586 112.086 236.73 112.43 236.73 112.844C236.73 113.242 236.617 113.617 236.391 113.969C236.164 114.312 235.855 114.652 235.465 114.988C235.082 115.316 234.637 115.645 234.129 115.973C233.621 116.293 233.086 116.625 232.523 116.969C232.578 117.375 232.672 117.746 232.805 118.082C232.938 118.41 233.105 118.695 233.309 118.938C233.512 119.172 233.746 119.355 234.012 119.488C234.277 119.613 234.574 119.676 234.902 119.676ZM235.266 113.195C235.266 112.883 235.18 112.637 235.008 112.457C234.844 112.277 234.641 112.188 234.398 112.188C234.195 112.188 233.98 112.262 233.754 112.41C233.527 112.551 233.32 112.781 233.133 113.102C232.945 113.414 232.789 113.816 232.664 114.309C232.539 114.801 232.477 115.398 232.477 116.102V116.371C232.742 116.23 233.035 116.047 233.355 115.82C233.684 115.586 233.988 115.328 234.27 115.047C234.551 114.766 234.785 114.469 234.973 114.156C235.168 113.836 235.266 113.516 235.266 113.195Z" fill="black"/>
<path id="Inkscape" d="M176.934 267.242C176.934 267.031 176.926 266.828 176.91 266.633C176.902 266.43 176.891 266.223 176.875 266.012C176.859 265.801 176.84 265.578 176.816 265.344C176.793 265.102 176.77 264.832 176.746 264.535C176.426 264.66 176.086 264.758 175.727 264.828C175.367 264.891 174.969 264.922 174.531 264.922C174.047 264.922 173.582 264.848 173.137 264.699C172.691 264.543 172.297 264.316 171.953 264.02C171.609 263.723 171.332 263.352 171.121 262.906C170.918 262.453 170.816 261.926 170.816 261.324C170.816 260.941 170.859 260.574 170.945 260.223C171.039 259.863 171.199 259.488 171.426 259.098C171.652 258.707 171.953 258.285 172.328 257.832C172.711 257.371 173.191 256.848 173.77 256.262C174.348 255.676 175.031 255.012 175.82 254.27C176.617 253.527 177.547 252.676 178.609 251.715L179.09 252.078C178.918 252.312 178.766 252.57 178.633 252.852C178.5 253.133 178.387 253.457 178.293 253.824C178.199 254.191 178.129 254.617 178.082 255.102C178.035 255.578 178.012 256.133 178.012 256.766C178.012 257.711 178.047 258.672 178.117 259.648C178.188 260.617 178.266 261.566 178.352 262.496C178.508 262.277 178.645 262.047 178.762 261.805C178.887 261.562 178.996 261.32 179.09 261.078L179.57 261.324C179.414 261.699 179.242 262.051 179.055 262.379C178.875 262.707 178.664 263.012 178.422 263.293C178.461 263.691 178.5 264.059 178.539 264.395C178.578 264.723 178.609 265.031 178.633 265.32C178.664 265.609 178.688 265.887 178.703 266.152C178.727 266.418 178.738 266.688 178.738 266.961C178.738 267.805 178.66 268.555 178.504 269.211C178.355 269.867 178.062 270.438 177.625 270.922C177.195 271.414 176.582 271.816 175.785 272.129C174.996 272.441 174.059 272.598 172.973 272.598C172.301 272.598 171.66 272.504 171.051 272.316C170.441 272.129 169.906 271.867 169.445 271.531C168.984 271.195 168.617 270.793 168.344 270.324C168.07 269.855 167.934 269.336 167.934 268.766C167.934 268.344 168.004 267.965 168.145 267.629C168.277 267.293 168.453 266.996 168.672 266.738C168.891 266.473 169.129 266.246 169.387 266.059C169.652 265.871 169.91 265.715 170.16 265.59C170.41 265.465 170.637 265.367 170.84 265.297C171.043 265.227 171.195 265.18 171.297 265.156L171.531 265.637C171.352 265.73 171.148 265.859 170.922 266.023C170.703 266.18 170.496 266.383 170.301 266.633C170.105 266.875 169.941 267.172 169.809 267.523C169.676 267.875 169.609 268.289 169.609 268.766C169.609 269.273 169.695 269.73 169.867 270.137C170.039 270.535 170.277 270.875 170.582 271.156C170.895 271.43 171.262 271.641 171.684 271.789C172.113 271.93 172.582 272 173.09 272C173.66 272 174.18 271.922 174.648 271.766C175.125 271.609 175.531 271.348 175.867 270.98C176.203 270.613 176.465 270.125 176.652 269.516C176.84 268.906 176.934 268.148 176.934 267.242ZM176.934 254.117C176.324 254.703 175.785 255.23 175.316 255.699C174.848 256.168 174.438 256.598 174.086 256.988C173.742 257.379 173.453 257.742 173.219 258.078C172.984 258.406 172.797 258.73 172.656 259.051C172.516 259.371 172.414 259.695 172.352 260.023C172.289 260.352 172.258 260.703 172.258 261.078C172.258 262.219 172.512 263.047 173.02 263.562C173.527 264.07 174.23 264.324 175.129 264.324C175.426 264.324 175.703 264.297 175.961 264.242C176.227 264.18 176.473 264.094 176.699 263.984C176.645 263.445 176.586 262.906 176.523 262.367C176.469 261.82 176.418 261.297 176.371 260.797C176.324 260.289 176.285 259.812 176.254 259.367C176.23 258.922 176.219 258.531 176.219 258.195C176.219 257.859 176.234 257.492 176.266 257.094C176.305 256.695 176.355 256.309 176.418 255.934C176.48 255.551 176.555 255.199 176.641 254.879C176.727 254.551 176.824 254.297 176.934 254.117ZM185.277 263.211C185.059 263.211 184.812 263.309 184.539 263.504C184.273 263.699 184.004 263.953 183.73 264.266C183.457 264.57 183.191 264.914 182.934 265.297C182.684 265.68 182.465 266.059 182.277 266.434C182.254 267.121 182.23 267.871 182.207 268.684C182.191 269.496 182.184 270.363 182.184 271.285C182.184 271.402 182.129 271.508 182.02 271.602C181.918 271.688 181.797 271.762 181.656 271.824C181.516 271.879 181.371 271.922 181.223 271.953C181.074 271.984 180.953 272 180.859 272C180.742 272 180.633 271.965 180.531 271.895C180.43 271.824 180.379 271.668 180.379 271.426C180.379 271.309 180.391 271.164 180.414 270.992C180.438 270.812 180.469 270.621 180.508 270.418C180.539 270.215 180.578 270.008 180.625 269.797C180.664 269.578 180.703 269.375 180.742 269.188V263.457C180.742 263.301 180.746 263.18 180.754 263.094C180.754 263 180.766 262.93 180.789 262.883C180.836 262.773 180.918 262.688 181.035 262.625C181.152 262.562 181.277 262.516 181.41 262.484C181.543 262.445 181.672 262.422 181.797 262.414C181.922 262.406 182.02 262.402 182.09 262.402C182.223 262.402 182.312 262.438 182.359 262.508C182.414 262.578 182.441 262.703 182.441 262.883C182.441 262.859 182.422 263.051 182.383 263.457C182.352 263.863 182.324 264.445 182.301 265.203C182.535 264.836 182.789 264.484 183.062 264.148C183.336 263.812 183.621 263.516 183.918 263.258C184.215 263 184.52 262.793 184.832 262.637C185.152 262.48 185.477 262.402 185.805 262.402C186.391 262.402 186.82 262.59 187.094 262.965C187.367 263.332 187.504 263.832 187.504 264.465C187.504 264.863 187.477 265.309 187.422 265.801C187.375 266.285 187.316 266.781 187.246 267.289C187.184 267.789 187.125 268.281 187.07 268.766C187.023 269.242 187 269.68 187 270.078C187 270.594 187.16 270.852 187.48 270.852C187.582 270.852 187.699 270.801 187.832 270.699C187.973 270.59 188.145 270.391 188.348 270.102C188.559 269.812 188.809 269.418 189.098 268.918C189.387 268.41 189.73 267.758 190.129 266.961L190.246 266.715L190.727 267.078L190.609 267.324C190.141 268.262 189.723 269.031 189.355 269.633C188.996 270.234 188.668 270.711 188.371 271.062C188.074 271.414 187.797 271.66 187.539 271.801C187.281 271.934 187.023 272 186.766 272C186.602 272 186.438 271.977 186.273 271.93C186.109 271.883 185.965 271.801 185.84 271.684C185.715 271.566 185.613 271.41 185.535 271.215C185.457 271.012 185.418 270.754 185.418 270.441C185.418 269.973 185.449 269.445 185.512 268.859C185.574 268.273 185.645 267.688 185.723 267.102C185.801 266.516 185.871 265.965 185.934 265.449C185.996 264.926 186.027 264.5 186.027 264.172C186.027 263.883 185.965 263.652 185.84 263.48C185.715 263.301 185.527 263.211 185.277 263.211ZM200.172 267.078L200.055 267.324C199.727 267.98 199.414 268.594 199.117 269.164C198.82 269.734 198.523 270.23 198.227 270.652C197.93 271.074 197.625 271.406 197.312 271.648C197.008 271.883 196.68 272 196.328 272C195.977 272 195.633 271.906 195.297 271.719C194.961 271.531 194.625 271.27 194.289 270.934C193.961 270.598 193.629 270.207 193.293 269.762C192.965 269.309 192.625 268.816 192.273 268.285L191.863 268.355C191.848 269.043 191.824 269.664 191.793 270.219C191.762 270.766 191.723 271.215 191.676 271.566C191.652 271.723 191.586 271.836 191.477 271.906C191.375 271.969 191.234 272 191.055 272C190.844 272 190.668 271.973 190.527 271.918C190.387 271.863 190.277 271.797 190.199 271.719C190.113 271.633 190.055 271.543 190.023 271.449C189.984 271.348 189.965 271.25 189.965 271.156C189.965 270.656 190.047 270.035 190.211 269.293V263.234C190.211 261.734 190.289 260.438 190.445 259.344C190.602 258.242 190.812 257.332 191.078 256.613C191.344 255.887 191.652 255.352 192.004 255.008C192.363 254.656 192.742 254.48 193.141 254.48C193.57 254.48 193.875 254.621 194.055 254.902C194.242 255.176 194.336 255.555 194.336 256.039C194.336 256.461 194.273 257.004 194.148 257.668C194.023 258.324 193.848 259.047 193.621 259.836C193.402 260.625 193.145 261.449 192.848 262.309C192.551 263.16 192.23 263.992 191.887 264.805V265.062C192.105 264.711 192.359 264.375 192.648 264.055C192.945 263.734 193.262 263.453 193.598 263.211C193.934 262.961 194.277 262.766 194.629 262.625C194.988 262.477 195.34 262.402 195.684 262.402C195.988 262.402 196.266 262.445 196.516 262.531C196.773 262.617 196.996 262.742 197.184 262.906C197.371 263.07 197.516 263.277 197.617 263.527C197.719 263.77 197.77 264.051 197.77 264.371C197.77 264.699 197.695 265.027 197.547 265.355C197.406 265.684 197.18 266 196.867 266.305C196.562 266.609 196.168 266.898 195.684 267.172C195.199 267.438 194.613 267.672 193.926 267.875C193.973 267.945 194.051 268.062 194.16 268.227C194.27 268.391 194.398 268.578 194.547 268.789C194.703 268.992 194.871 269.207 195.051 269.434C195.23 269.652 195.414 269.855 195.602 270.043C195.797 270.223 195.988 270.375 196.176 270.5C196.363 270.617 196.535 270.676 196.691 270.676C196.902 270.676 197.117 270.59 197.336 270.418C197.555 270.238 197.781 269.988 198.016 269.668C198.258 269.34 198.508 268.949 198.766 268.496C199.023 268.035 199.293 267.523 199.574 266.961L199.691 266.715L200.172 267.078ZM191.887 266.07C191.887 266.25 191.883 266.41 191.875 266.551C191.875 266.684 191.875 266.816 191.875 266.949C191.875 267.074 191.871 267.203 191.863 267.336C191.863 267.469 191.863 267.617 191.863 267.781C192.66 267.664 193.332 267.508 193.879 267.312C194.434 267.117 194.883 266.891 195.227 266.633C195.57 266.375 195.82 266.094 195.977 265.789C196.133 265.477 196.211 265.148 196.211 264.805C196.211 264.625 196.18 264.453 196.117 264.289C196.062 264.117 195.98 263.969 195.871 263.844C195.762 263.711 195.625 263.605 195.461 263.527C195.305 263.449 195.129 263.41 194.934 263.41C194.66 263.41 194.383 263.484 194.102 263.633C193.828 263.773 193.555 263.965 193.281 264.207C193.016 264.449 192.762 264.734 192.52 265.062C192.285 265.383 192.074 265.719 191.887 266.07ZM192.918 255.078C192.754 255.078 192.609 255.238 192.484 255.559C192.367 255.879 192.266 256.379 192.18 257.059C192.094 257.73 192.023 258.59 191.969 259.637C191.914 260.676 191.871 261.918 191.84 263.363C192.168 262.496 192.434 261.684 192.637 260.926C192.84 260.16 192.996 259.473 193.105 258.863C193.223 258.246 193.301 257.711 193.34 257.258C193.379 256.797 193.398 256.43 193.398 256.156C193.398 255.742 193.359 255.461 193.281 255.312C193.211 255.156 193.09 255.078 192.918 255.078ZM206.547 267.922C206.547 268.453 206.465 268.965 206.301 269.457C206.145 269.941 205.91 270.375 205.598 270.758C205.293 271.133 204.91 271.434 204.449 271.66C203.996 271.887 203.477 272 202.891 272C202.469 272 202.09 271.934 201.754 271.801C201.426 271.66 201.145 271.477 200.91 271.25C200.676 271.016 200.496 270.754 200.371 270.465C200.246 270.168 200.184 269.863 200.184 269.551C200.184 269.238 200.242 268.949 200.359 268.684C200.484 268.41 200.648 268.18 200.852 267.992C201.062 267.797 201.301 267.645 201.566 267.535C201.832 267.426 202.113 267.371 202.41 267.371C202.598 267.371 202.793 267.395 202.996 267.441V267.781C202.746 267.781 202.5 267.832 202.258 267.934C202.023 268.035 201.812 268.176 201.625 268.355C201.445 268.527 201.301 268.738 201.191 268.988C201.082 269.23 201.027 269.492 201.027 269.773C201.027 270.289 201.203 270.703 201.555 271.016C201.914 271.32 202.402 271.473 203.02 271.473C203.332 271.473 203.617 271.414 203.875 271.297C204.133 271.172 204.352 271.004 204.531 270.793C204.719 270.574 204.859 270.316 204.953 270.02C205.055 269.723 205.105 269.398 205.105 269.047C205.105 268.711 205.039 268.398 204.906 268.109C204.773 267.82 204.598 267.547 204.379 267.289C204.16 267.031 203.91 266.789 203.629 266.562C203.355 266.336 203.074 266.121 202.785 265.918C202.504 265.707 202.227 265.504 201.953 265.309C201.68 265.113 201.441 264.918 201.238 264.723L200.066 267.324L199.586 266.961L200.781 264.348C200.492 264.074 200.277 263.816 200.137 263.574C200.004 263.324 199.938 263.027 199.938 262.684C199.938 262.496 199.969 262.32 200.031 262.156C200.102 261.984 200.191 261.84 200.301 261.723C200.418 261.598 200.551 261.5 200.699 261.43C200.848 261.359 201.004 261.324 201.168 261.324C201.465 261.324 201.688 261.41 201.836 261.582C201.984 261.746 202.059 261.953 202.059 262.203C202.059 262.32 202.047 262.445 202.023 262.578C202 262.703 201.969 262.832 201.93 262.965C201.898 263.09 201.863 263.207 201.824 263.316C201.793 263.426 201.766 263.52 201.742 263.598C201.977 263.777 202.258 263.953 202.586 264.125C202.914 264.289 203.254 264.461 203.605 264.641C203.965 264.82 204.32 265.016 204.672 265.227C205.023 265.438 205.336 265.672 205.609 265.93C205.891 266.188 206.117 266.48 206.289 266.809C206.461 267.137 206.547 267.508 206.547 267.922ZM201.191 261.852C201.082 261.852 200.992 261.891 200.922 261.969C200.859 262.039 200.828 262.137 200.828 262.262C200.828 262.402 200.863 262.559 200.934 262.73C201.004 262.902 201.129 263.07 201.309 263.234C201.387 263.07 201.445 262.91 201.484 262.754C201.531 262.598 201.555 262.441 201.555 262.285C201.555 262.16 201.52 262.059 201.449 261.98C201.387 261.895 201.301 261.852 201.191 261.852ZM211.469 265.309C211.562 265.16 211.641 264.977 211.703 264.758C211.773 264.539 211.809 264.32 211.809 264.102C211.809 263.836 211.742 263.605 211.609 263.41C211.477 263.215 211.238 263.117 210.895 263.117C210.668 263.117 210.438 263.199 210.203 263.363C209.969 263.527 209.75 263.773 209.547 264.102C209.352 264.43 209.191 264.844 209.066 265.344C208.941 265.844 208.879 266.43 208.879 267.102C208.879 267.633 208.934 268.117 209.043 268.555C209.152 268.992 209.312 269.367 209.523 269.68C209.734 269.992 209.988 270.238 210.285 270.418C210.59 270.59 210.93 270.676 211.305 270.676C211.578 270.676 211.855 270.605 212.137 270.465C212.426 270.324 212.715 270.105 213.004 269.809C213.301 269.512 213.605 269.129 213.918 268.66C214.23 268.184 214.551 267.617 214.879 266.961L214.996 266.715L215.477 267.078L215.359 267.324C214.938 268.16 214.516 268.875 214.094 269.469C213.68 270.062 213.27 270.547 212.863 270.922C212.457 271.297 212.059 271.57 211.668 271.742C211.285 271.914 210.914 272 210.555 272C210.047 272 209.594 271.895 209.195 271.684C208.797 271.473 208.461 271.188 208.188 270.828C207.914 270.461 207.703 270.039 207.555 269.562C207.414 269.078 207.344 268.57 207.344 268.039C207.344 267.195 207.457 266.43 207.684 265.742C207.918 265.047 208.219 264.453 208.586 263.961C208.953 263.469 209.367 263.086 209.828 262.812C210.289 262.539 210.754 262.402 211.223 262.402C211.582 262.402 211.883 262.453 212.125 262.555C212.367 262.656 212.562 262.785 212.711 262.941C212.859 263.098 212.965 263.266 213.027 263.445C213.09 263.625 213.121 263.797 213.121 263.961C213.121 264.125 213.086 264.297 213.016 264.477C212.945 264.648 212.84 264.812 212.699 264.969C212.566 265.117 212.406 265.254 212.219 265.379C212.031 265.496 211.82 265.582 211.586 265.637L211.469 265.309ZM222.109 269.094C222.109 269.539 222.148 269.914 222.227 270.219C222.305 270.523 222.441 270.676 222.637 270.676C222.754 270.676 222.879 270.621 223.012 270.512C223.152 270.395 223.312 270.207 223.492 269.949C223.672 269.691 223.875 269.359 224.102 268.953C224.336 268.539 224.602 268.035 224.898 267.441L225.25 266.715L225.73 267.078L225.379 267.805C225.051 268.461 224.742 269.051 224.453 269.574C224.172 270.09 223.902 270.527 223.645 270.887C223.387 271.246 223.133 271.523 222.883 271.719C222.641 271.906 222.398 272 222.156 272C221.898 272 221.68 271.93 221.5 271.789C221.328 271.648 221.184 271.457 221.066 271.215C220.949 270.965 220.859 270.68 220.797 270.359C220.734 270.031 220.691 269.684 220.668 269.316C220.48 269.691 220.273 270.043 220.047 270.371C219.82 270.691 219.582 270.973 219.332 271.215C219.09 271.457 218.836 271.648 218.57 271.789C218.305 271.93 218.039 272 217.773 272C217.383 272 217.004 271.918 216.637 271.754C216.27 271.59 215.941 271.34 215.652 271.004C215.371 270.668 215.145 270.246 214.973 269.738C214.801 269.223 214.715 268.617 214.715 267.922C214.715 267.109 214.82 266.367 215.031 265.695C215.242 265.016 215.527 264.434 215.887 263.949C216.246 263.457 216.66 263.078 217.129 262.812C217.598 262.539 218.09 262.402 218.605 262.402C218.918 262.402 219.207 262.473 219.473 262.613C219.738 262.754 219.969 262.926 220.164 263.129C220.367 263.324 220.535 263.535 220.668 263.762C220.801 263.98 220.891 264.168 220.938 264.324L221.078 263.188C221.094 263.039 221.164 262.914 221.289 262.812C221.422 262.711 221.566 262.633 221.723 262.578C221.879 262.516 222.031 262.473 222.18 262.449C222.328 262.418 222.434 262.402 222.496 262.402C222.59 262.402 222.652 262.418 222.684 262.449C222.715 262.48 222.73 262.543 222.73 262.637C222.73 262.754 222.695 262.992 222.625 263.352C222.562 263.703 222.492 264.156 222.414 264.711C222.344 265.258 222.273 265.902 222.203 266.645C222.141 267.387 222.109 268.203 222.109 269.094ZM220.82 266C220.82 265.641 220.766 265.289 220.656 264.945C220.547 264.594 220.398 264.285 220.211 264.02C220.023 263.746 219.805 263.527 219.555 263.363C219.312 263.199 219.055 263.117 218.781 263.117C218.445 263.117 218.129 263.215 217.832 263.41C217.543 263.598 217.289 263.867 217.07 264.219C216.859 264.562 216.691 264.98 216.566 265.473C216.441 265.957 216.379 266.492 216.379 267.078C216.379 268.25 216.562 269.145 216.93 269.762C217.297 270.371 217.785 270.676 218.395 270.676C218.66 270.676 218.934 270.57 219.215 270.359C219.504 270.141 219.766 269.832 220 269.434C220.242 269.027 220.438 268.535 220.586 267.957C220.742 267.379 220.82 266.727 220.82 266ZM226.785 264.605C226.918 264.316 227.078 264.039 227.266 263.773C227.453 263.508 227.668 263.273 227.91 263.07C228.152 262.867 228.422 262.707 228.719 262.59C229.016 262.465 229.34 262.402 229.691 262.402C230.16 262.402 230.574 262.516 230.934 262.742C231.293 262.961 231.594 263.258 231.836 263.633C232.078 264 232.262 264.43 232.387 264.922C232.512 265.406 232.574 265.91 232.574 266.434C232.574 267.238 232.492 267.965 232.328 268.613C232.172 269.254 231.957 269.816 231.684 270.301C232.105 269.98 232.531 269.555 232.961 269.023C233.398 268.492 233.828 267.805 234.25 266.961L234.367 266.715L234.848 267.078L234.73 267.324C234.371 268.043 233.977 268.691 233.547 269.27C233.117 269.848 232.66 270.34 232.176 270.746C231.699 271.145 231.199 271.453 230.676 271.672C230.152 271.891 229.617 272 229.07 272C228.586 272 228.137 271.895 227.723 271.684C227.316 271.473 227.004 271.211 226.785 270.898V276.441C226.785 276.738 226.762 276.984 226.715 277.18C226.676 277.383 226.605 277.543 226.504 277.66C226.41 277.785 226.281 277.871 226.117 277.918C225.953 277.973 225.754 278 225.52 278C225.34 278 225.215 277.969 225.145 277.906C225.074 277.852 225.039 277.762 225.039 277.637C225.039 277.582 225.047 277.484 225.062 277.344C225.078 277.203 225.094 276.988 225.109 276.699C225.125 276.418 225.141 276.043 225.156 275.574C225.172 275.113 225.18 274.523 225.18 273.805V267.324C225.18 266.457 225.176 265.766 225.168 265.25C225.16 264.727 225.152 264.32 225.145 264.031C225.137 263.734 225.129 263.523 225.121 263.398C225.113 263.273 225.109 263.164 225.109 263.07C225.109 262.992 225.148 262.914 225.227 262.836C225.305 262.758 225.406 262.688 225.531 262.625C225.656 262.562 225.789 262.512 225.93 262.473C226.078 262.426 226.219 262.402 226.352 262.402C226.484 262.402 226.59 262.438 226.668 262.508C226.746 262.578 226.785 262.703 226.785 262.883V264.605ZM229.07 263.434C228.742 263.434 228.438 263.547 228.156 263.773C227.883 264 227.645 264.293 227.441 264.652C227.246 265.004 227.09 265.395 226.973 265.824C226.863 266.254 226.809 266.672 226.809 267.078V268.426C226.809 268.848 226.863 269.23 226.973 269.574C227.09 269.918 227.242 270.211 227.43 270.453C227.617 270.695 227.836 270.883 228.086 271.016C228.344 271.141 228.613 271.203 228.895 271.203C229.559 271.203 230.059 270.859 230.395 270.172C230.738 269.484 230.91 268.406 230.91 266.938C230.91 266.438 230.875 265.973 230.805 265.543C230.734 265.113 230.625 264.742 230.477 264.43C230.328 264.117 230.137 263.875 229.902 263.703C229.668 263.523 229.391 263.434 229.07 263.434ZM237.824 270.676C238.098 270.676 238.375 270.605 238.656 270.465C238.945 270.324 239.234 270.105 239.523 269.809C239.82 269.512 240.125 269.129 240.438 268.66C240.75 268.184 241.07 267.617 241.398 266.961L241.516 266.715L241.996 267.078L241.879 267.324C241.457 268.16 241.035 268.875 240.613 269.469C240.199 270.062 239.789 270.547 239.383 270.922C238.984 271.297 238.59 271.57 238.199 271.742C237.809 271.914 237.434 272 237.074 272C236.566 272 236.113 271.895 235.715 271.684C235.316 271.473 234.98 271.188 234.707 270.828C234.434 270.461 234.227 270.039 234.086 269.562C233.938 269.078 233.863 268.57 233.863 268.039C233.863 267.195 233.98 266.43 234.215 265.742C234.441 265.047 234.746 264.453 235.129 263.961C235.52 263.469 235.961 263.086 236.453 262.812C236.945 262.539 237.457 262.402 237.988 262.402C238.527 262.402 238.938 262.539 239.219 262.812C239.508 263.086 239.652 263.43 239.652 263.844C239.652 264.242 239.539 264.617 239.312 264.969C239.086 265.312 238.777 265.652 238.387 265.988C238.004 266.316 237.559 266.645 237.051 266.973C236.543 267.293 236.008 267.625 235.445 267.969C235.5 268.375 235.594 268.746 235.727 269.082C235.859 269.41 236.027 269.695 236.23 269.938C236.434 270.172 236.668 270.355 236.934 270.488C237.199 270.613 237.496 270.676 237.824 270.676ZM238.188 264.195C238.188 263.883 238.102 263.637 237.93 263.457C237.766 263.277 237.562 263.188 237.32 263.188C237.117 263.188 236.902 263.262 236.676 263.41C236.449 263.551 236.242 263.781 236.055 264.102C235.867 264.414 235.711 264.816 235.586 265.309C235.461 265.801 235.398 266.398 235.398 267.102V267.371C235.664 267.23 235.957 267.047 236.277 266.82C236.605 266.586 236.91 266.328 237.191 266.047C237.473 265.766 237.707 265.469 237.895 265.156C238.09 264.836 238.188 264.516 238.188 264.195Z" fill="black"/>
<g id="cmd">
<path id="Vector" fill-rule="evenodd" clip-rule="evenodd" d="M4.86237 0H104.359C107.034 0 109.221 2.09029 109.221 4.64792V83.3142C109.221 85.8718 107.034 87.9621 104.359 87.9621H4.86237C2.18673 87.9621 0 85.8718 0 83.3142V4.64792C0 2.09029 2.18673 0 4.86237 0ZM28.3031 32.7564L44.1169 48.408L46.0191 50.2179L44.1346 52.0533L28.1608 68.2403L23.654 63.9917L37.7433 50.2689L23.8318 37.0474L28.3031 32.7564ZM83.6469 67.4755H48.6148V61.6635H83.6469V67.4755ZM33.9477 8.35266C36.7833 8.35266 39.0856 10.5534 39.0856 13.264C39.0856 15.9746 36.7833 18.1753 33.9477 18.1753C31.112 18.1753 28.8097 15.9746 28.8097 13.264C28.8097 10.5534 31.112 8.35266 33.9477 8.35266ZM16.8449 8.35266C19.6806 8.35266 21.9829 10.5534 21.9829 13.264C21.9829 15.9746 19.6806 18.1753 16.8449 18.1753C14.0093 18.1753 11.707 15.9746 11.707 13.264C11.707 10.5534 14.0004 8.35266 16.8449 8.35266ZM6.65798 4.59694H102.581C103.603 4.59694 104.439 5.39566 104.439 6.37283V21.9395H4.80014V6.37283C4.80014 5.39566 5.63572 4.59694 6.65798 4.59694Z" fill="black"/>
</g>
<g id="inkscape logo">
<path id="Vector_2" d="M190.737 153.021L155.668 186.707C143.819 200.48 163.732 198.878 172.268 202.845C175.33 205.783 160.531 207.951 163.593 210.892C166.656 213.83 182.11 216.552 185.177 219.49C188.239 222.428 178.909 225.545 181.971 228.483C185.033 231.421 192.116 228.637 193.442 235.42C194.387 240.267 206.205 237.503 211.984 233.533C215.046 230.593 206.126 230.87 209.188 227.932C216.803 220.622 223.893 225.276 226.499 217.951C227.786 214.332 215.289 212.372 218.356 209.434C227.167 204.604 257.618 201.46 243.169 187.898L206.818 153.021C202.372 149.015 194.953 148.971 190.737 153.021ZM231.02 217.951C231.02 219.623 244.138 220.718 244.138 217.557C242.269 212.48 232.571 212.823 231.02 217.951ZM171.929 226.832C175.035 229.353 179.833 226.204 181.272 222.686C178.262 218.932 166.995 222.82 171.929 226.832ZM229.375 221.384C225.371 224.756 229.824 228.177 233.771 225.998C234.651 225.16 233.748 222.222 229.375 221.384Z" fill="black"/>
<path id="Vector_3" d="M182.345 204.668C183.282 205.214 197.457 207.917 200.921 208.456C202.122 208.694 201.271 209.855 199.616 210.639C195.883 211.571 177.776 204.668 182.345 204.668Z" fill="white"/>
<path id="Vector_4" d="M204.698 155.384L218.573 168.611C219.889 169.873 219.871 172.318 219.134 173.021L212.245 167.849L210.89 175.508L205.134 172.656L195.917 178.123L192.865 166.599L187.913 174.641H180.342C177.257 174.641 176.894 170.965 179.698 168.334C184.595 163.372 190.215 158.314 193.27 155.384C196.34 152.438 201.688 152.521 204.698 155.384Z" fill="white"/>
</g>
<g id="figma">
<path id="Vector_5" d="M49 191.5C49 187.389 50.2643 183.447 52.5147 180.54C54.7652 177.633 57.8174 176 61 176C64.1826 176 67.2348 177.633 69.4853 180.54C71.7357 183.447 73 187.389 73 191.5C73 195.611 71.7357 199.553 69.4853 202.46C67.2348 205.367 64.1826 207 61 207C57.8174 207 54.7652 205.367 52.5147 202.46C50.2643 199.553 49 195.611 49 191.5V191.5Z" fill="#1ABCFE"/>
<path id="Vector_6" d="M25 191.5C25 195.611 26.2643 199.553 28.5147 202.46C30.7652 205.367 33.8174 207 37 207H49V176H37C33.8174 176 30.7652 177.633 28.5147 180.54C26.2643 183.447 25 187.389 25 191.5V191.5Z" fill="#A259FF"/>
<path id="Vector_7" d="M25 222.5C25 218.389 26.2643 214.447 28.5147 211.54C30.7652 208.633 33.8174 207 37 207H49V222.5C49 226.611 47.7357 230.553 45.4853 233.46C43.2348 236.367 40.1826 238 37 238C33.8174 238 30.7652 236.367 28.5147 233.46C26.2643 230.553 25 226.611 25 222.5V222.5Z" fill="#0ACF83"/>
<path id="Vector_8" d="M49 145V176H61C64.1826 176 67.2348 174.367 69.4853 171.46C71.7357 168.553 73 164.611 73 160.5C73 156.389 71.7357 152.447 69.4853 149.54C67.2348 146.633 64.1826 145 61 145H49Z" fill="#FF7262"/>
<path id="Vector_9" d="M25 160.5C25 164.611 26.2643 168.553 28.5147 171.46C30.7652 174.367 33.8174 176 37 176H49V145H37C33.8174 145 30.7652 146.633 28.5147 149.54C26.2643 152.447 25 156.389 25 160.5V160.5Z" fill="#F24E1E"/>
</g>
<g id="vscode">
<path id="Vector_10" d="M152.925 33.5294C152.925 33.5294 150.557 31.8231 153.398 29.5446L160.016 23.6266C160.016 23.6266 161.91 21.6342 163.912 23.3702L224.987 69.6097V91.7826C224.987 91.7826 224.957 95.2644 220.489 94.8797L152.925 33.5294Z" fill="#2489CA"/>
<path id="Vector_11" d="M168.667 47.8216L152.925 62.1334C152.925 62.1334 151.307 63.3367 152.925 65.4869L160.233 72.1349C160.233 72.1349 161.969 73.999 164.534 71.8784L181.223 59.2237L168.667 47.8216Z" fill="#1070B3"/>
<path id="Vector_12" d="M196.304 47.9399L225.174 25.8952L224.987 3.84062C224.987 3.84062 223.754 -0.972724 219.641 1.53258L181.223 36.4984L196.304 47.9399Z" fill="#0877B9"/>
<path id="Vector_13" d="M220.489 94.9094C222.166 96.6256 224.198 96.0634 224.198 96.0634L246.696 84.977C249.576 83.0142 249.172 80.5779 249.172 80.5779V14.3748C249.172 11.4651 246.193 10.459 246.193 10.459L226.693 1.05917C222.432 -1.57435 219.641 1.53262 219.641 1.53262C219.641 1.53262 223.231 -1.05159 224.987 3.84065V91.3783C224.987 91.98 224.858 92.5718 224.602 93.1044C224.089 94.1401 222.975 95.1067 220.302 94.7023L220.489 94.9094Z" fill="#3C99D4"/>
</g>
</g>
</svg>
