<svg width="281" height="339" viewBox="0 0 281 339" fill="none" xmlns="http://www.w3.org/2000/svg">
<g id="tools">
<path id="Cmd" d="M37.793 182.094C37.793 183.5 37.9531 184.727 38.2734 185.773C38.5938 186.82 39.0156 187.691 39.5391 188.387C40.0703 189.082 40.6719 189.605 41.3438 189.957C42.0234 190.301 42.7188 190.473 43.4297 190.473C43.9375 190.473 44.4375 190.379 44.9297 190.191C45.4297 190.004 45.9141 189.723 46.3828 189.348C46.8516 188.973 47.3008 188.504 47.7305 187.941C48.168 187.379 48.5742 186.719 48.9492 185.961L49.0781 185.715L49.5586 186.078L49.4297 186.324C49 187.191 48.5234 187.953 48 188.609C47.4844 189.266 46.9336 189.816 46.3477 190.262C45.7617 190.699 45.1523 191.031 44.5195 191.258C43.8945 191.484 43.2539 191.598 42.5977 191.598C42.0352 191.598 41.4766 191.516 40.9219 191.352C40.375 191.195 39.8516 190.957 39.3516 190.637C38.8594 190.309 38.3984 189.898 37.9688 189.406C37.5469 188.914 37.1797 188.34 36.8672 187.684C36.5547 187.02 36.3086 186.273 36.1289 185.445C35.957 184.609 35.8711 183.691 35.8711 182.691C35.8711 181.371 35.9805 180.176 36.1992 179.105C36.4258 178.027 36.7266 177.07 37.1016 176.234C37.4844 175.391 37.9258 174.66 38.4258 174.043C38.9336 173.426 39.4648 172.918 40.0195 172.52C40.5742 172.113 41.1406 171.812 41.7188 171.617C42.2969 171.422 42.8516 171.324 43.3828 171.324C44.0781 171.324 44.7188 171.445 45.3047 171.688C45.8906 171.922 46.3945 172.258 46.8164 172.695C47.2383 173.125 47.5664 173.652 47.8008 174.277C48.043 174.895 48.1641 175.582 48.1641 176.34C48.1641 177.066 48.0508 177.75 47.8242 178.391C47.6055 179.031 47.3086 179.594 46.9336 180.078C46.5664 180.555 46.1406 180.934 45.6562 181.215C45.1797 181.496 44.6797 181.637 44.1562 181.637C43.8047 181.637 43.4766 181.574 43.1719 181.449C42.8672 181.324 42.6016 181.148 42.375 180.922C42.1484 180.695 41.9688 180.418 41.8359 180.09C41.7031 179.762 41.6367 179.398 41.6367 179C41.6367 178.617 41.6953 178.25 41.8125 177.898C41.9297 177.539 42.0781 177.211 42.2578 176.914C42.4375 176.609 42.6328 176.344 42.8438 176.117C43.0625 175.883 43.2734 175.699 43.4766 175.566L43.793 175.883C43.6289 176.07 43.4727 176.273 43.3242 176.492C43.1836 176.703 43.0586 176.934 42.9492 177.184C42.8398 177.426 42.7539 177.688 42.6914 177.969C42.6289 178.25 42.5977 178.555 42.5977 178.883C42.5977 179.219 42.6367 179.52 42.7148 179.785C42.8008 180.051 42.9141 180.277 43.0547 180.465C43.2031 180.652 43.3711 180.797 43.5586 180.898C43.7461 180.992 43.9453 181.039 44.1562 181.039C44.4453 181.039 44.7344 180.934 45.0234 180.723C45.3125 180.504 45.5703 180.188 45.7969 179.773C46.0234 179.352 46.207 178.836 46.3477 178.227C46.4883 177.617 46.5586 176.914 46.5586 176.117C46.5586 175.398 46.4766 174.777 46.3125 174.254C46.1562 173.723 45.9375 173.285 45.6562 172.941C45.375 172.598 45.043 172.344 44.6602 172.18C44.2773 172.008 43.8672 171.922 43.4297 171.922C43.1172 171.922 42.7617 171.992 42.3633 172.133C41.9648 172.266 41.5547 172.488 41.1328 172.801C40.7188 173.113 40.3125 173.527 39.9141 174.043C39.5156 174.551 39.1562 175.184 38.8359 175.941C38.5234 176.691 38.2695 177.574 38.0742 178.59C37.8867 179.605 37.793 180.773 37.793 182.094ZM52.8984 182.234C52.6719 182.234 52.4531 182.316 52.2422 182.48C52.0391 182.637 51.8438 182.855 51.6562 183.137C51.4688 183.41 51.2852 183.734 51.1055 184.109C50.9336 184.477 50.7617 184.871 50.5898 185.293V185.434C50.5664 186.121 50.543 186.852 50.5195 187.625C50.5039 188.398 50.4961 189.242 50.4961 190.156C50.4961 190.312 50.4414 190.445 50.332 190.555C50.2305 190.656 50.1094 190.742 49.9688 190.812C49.8281 190.875 49.6836 190.922 49.5352 190.953C49.3867 190.984 49.2656 191 49.1719 191C49.0547 191 48.9453 190.965 48.8438 190.895C48.7422 190.824 48.6914 190.668 48.6914 190.426C48.6914 190.309 48.7031 190.164 48.7266 189.992C48.75 189.812 48.7812 189.621 48.8203 189.418C48.8516 189.215 48.8906 189.008 48.9375 188.797C48.9766 188.578 49.0156 188.375 49.0547 188.188C49.0547 187.523 49.0547 186.926 49.0547 186.395C49.0469 185.863 49.043 185.391 49.043 184.977C49.043 184.562 49.043 184.199 49.043 183.887C49.0352 183.574 49.0312 183.305 49.0312 183.078C49.0312 182.703 49.0391 182.43 49.0547 182.258C49.0625 182.078 49.0781 181.953 49.1016 181.883C49.1406 181.773 49.2109 181.688 49.3125 181.625C49.4219 181.562 49.5352 181.516 49.6523 181.484C49.7695 181.445 49.8867 181.422 50.0039 181.414C50.1211 181.406 50.2109 181.402 50.2734 181.402C50.4219 181.402 50.5195 181.445 50.5664 181.531C50.6133 181.617 50.6367 181.75 50.6367 181.93C50.6367 182.336 50.6367 182.703 50.6367 183.031C50.6367 183.359 50.6289 183.688 50.6133 184.016C50.7617 183.664 50.9336 183.332 51.1289 183.02C51.332 182.699 51.5547 182.422 51.7969 182.188C52.0391 181.945 52.293 181.754 52.5586 181.613C52.832 181.473 53.1133 181.402 53.4023 181.402C53.7539 181.402 54.043 181.477 54.2695 181.625C54.5039 181.766 54.6875 181.965 54.8203 182.223C54.9609 182.48 55.0625 182.785 55.125 183.137C55.1953 183.48 55.2422 183.855 55.2656 184.262C55.4844 183.863 55.7188 183.492 55.9688 183.148C56.2266 182.797 56.4961 182.492 56.7773 182.234C57.0664 181.977 57.3672 181.773 57.6797 181.625C58 181.477 58.332 181.402 58.6758 181.402C59.2695 181.402 59.7031 181.59 59.9766 181.965C60.25 182.332 60.3867 182.832 60.3867 183.465C60.3867 183.863 60.3555 184.309 60.293 184.801C60.2305 185.293 60.1641 185.793 60.0938 186.301C60.0234 186.801 59.957 187.293 59.8945 187.777C59.832 188.262 59.8008 188.703 59.8008 189.102C59.8008 189.586 59.9219 189.828 60.1641 189.828C60.2891 189.828 60.4258 189.754 60.5742 189.605C60.7227 189.449 60.8906 189.215 61.0781 188.902C61.2734 188.582 61.4961 188.18 61.7461 187.695C62.0039 187.211 62.3008 186.633 62.6367 185.961L62.7539 185.715L63.2344 186.078L63.1172 186.324C62.6562 187.246 62.2617 188.008 61.9336 188.609C61.6133 189.211 61.3242 189.691 61.0664 190.051C60.8086 190.402 60.5625 190.648 60.3281 190.789C60.1016 190.93 59.8477 191 59.5664 191C59.4023 191 59.2422 190.977 59.0859 190.93C58.9297 190.883 58.793 190.801 58.6758 190.684C58.5586 190.566 58.4648 190.41 58.3945 190.215C58.3242 190.012 58.2891 189.754 58.2891 189.441C58.2891 188.973 58.3203 188.445 58.3828 187.859C58.4453 187.273 58.5156 186.688 58.5938 186.102C58.6719 185.516 58.7422 184.965 58.8047 184.449C58.8672 183.926 58.8984 183.5 58.8984 183.172C58.8984 182.883 58.8359 182.652 58.7109 182.48C58.5859 182.301 58.3984 182.211 58.1484 182.211C57.8984 182.211 57.6367 182.309 57.3633 182.504C57.0977 182.699 56.8359 182.953 56.5781 183.266C56.3281 183.57 56.0898 183.914 55.8633 184.297C55.6445 184.68 55.4531 185.059 55.2891 185.434C55.2891 186.254 55.2812 186.973 55.2656 187.59C55.25 188.199 55.2266 188.715 55.1953 189.137C55.1719 189.559 55.1367 189.895 55.0898 190.145C55.043 190.387 54.9922 190.551 54.9375 190.637C54.8984 190.691 54.832 190.742 54.7383 190.789C54.6445 190.836 54.5391 190.875 54.4219 190.906C54.3125 190.938 54.2031 190.961 54.0938 190.977C53.9922 190.992 53.9141 191 53.8594 191C53.7344 191 53.625 190.965 53.5312 190.895C53.4453 190.816 53.4023 190.668 53.4023 190.449C53.4023 190.348 53.4102 190.211 53.4258 190.039C53.4492 189.867 53.4766 189.676 53.5078 189.465C53.5391 189.254 53.5742 189.027 53.6133 188.785C53.6523 188.543 53.6914 188.297 53.7305 188.047C53.7383 187.812 53.7461 187.551 53.7539 187.262C53.7617 186.973 53.7695 186.688 53.7773 186.406C53.7852 186.117 53.7891 185.844 53.7891 185.586C53.7969 185.32 53.8008 185.094 53.8008 184.906C53.8008 184.508 53.7891 184.145 53.7656 183.816C53.7422 183.488 53.6953 183.207 53.625 182.973C53.5625 182.738 53.4727 182.559 53.3555 182.434C53.2383 182.301 53.0859 182.234 52.8984 182.234ZM65.1445 191C64.668 191 64.2539 190.898 63.9023 190.695C63.5586 190.492 63.2734 190.219 63.0469 189.875C62.8203 189.523 62.6523 189.121 62.543 188.668C62.4336 188.215 62.3789 187.734 62.3789 187.227C62.3789 186.781 62.4219 186.328 62.5078 185.867C62.5938 185.406 62.7148 184.961 62.8711 184.531C63.0352 184.094 63.2383 183.688 63.4805 183.312C63.7227 182.93 64 182.598 64.3125 182.316C64.625 182.035 64.9727 181.812 65.3555 181.648C65.7461 181.484 66.1641 181.402 66.6094 181.402C67.1172 181.402 67.5469 181.516 67.8984 181.742C68.2578 181.969 68.5469 182.246 68.7656 182.574C68.7734 181.098 68.8477 179.793 68.9883 178.66C69.1289 177.527 69.3242 176.578 69.5742 175.812C69.832 175.047 70.1367 174.469 70.4883 174.078C70.8398 173.68 71.2266 173.48 71.6484 173.48C71.7969 173.48 71.9297 173.5 72.0469 173.539C72.1719 173.57 72.2734 173.633 72.3516 173.727C72.4375 173.82 72.5 173.949 72.5391 174.113C72.5859 174.27 72.6094 174.473 72.6094 174.723C72.6094 175.238 72.5586 175.832 72.457 176.504C72.3555 177.168 72.2109 177.895 72.0234 178.684C71.8359 179.465 71.6055 180.301 71.332 181.191C71.0664 182.074 70.7695 182.992 70.4414 183.945C70.4492 184.781 70.4609 185.504 70.4766 186.113C70.4922 186.723 70.5117 187.238 70.5352 187.66C70.5664 188.082 70.6016 188.426 70.6406 188.691C70.6875 188.957 70.7383 189.164 70.793 189.312C70.8555 189.453 70.9258 189.551 71.0039 189.605C71.0898 189.652 71.1836 189.676 71.2852 189.676C71.4648 189.676 71.6445 189.598 71.8242 189.441C72.0117 189.277 72.2109 189.039 72.4219 188.727C72.6328 188.406 72.8594 188.016 73.1016 187.555C73.3516 187.094 73.625 186.562 73.9219 185.961L74.0508 185.715L74.5312 186.078L74.4023 186.324C73.9492 187.238 73.5508 187.996 73.207 188.598C72.8633 189.191 72.5469 189.668 72.2578 190.027C71.9766 190.387 71.707 190.641 71.4492 190.789C71.1914 190.93 70.9219 191 70.6406 191C70.3672 191 70.1289 190.934 69.9258 190.801C69.7305 190.66 69.5625 190.445 69.4219 190.156C69.2812 189.859 69.168 189.484 69.082 189.031C68.9961 188.57 68.9297 188.02 68.8828 187.379C68.6094 187.926 68.3281 188.422 68.0391 188.867C67.75 189.312 67.4492 189.695 67.1367 190.016C66.832 190.328 66.5117 190.57 66.1758 190.742C65.8398 190.914 65.4961 191 65.1445 191ZM66.8438 182C66.4141 182 66.0391 182.133 65.7188 182.398C65.3984 182.656 65.1328 182.996 64.9219 183.418C64.7109 183.832 64.5547 184.301 64.4531 184.824C64.3516 185.348 64.3008 185.871 64.3008 186.395C64.3008 186.824 64.332 187.238 64.3945 187.637C64.4648 188.027 64.5664 188.375 64.6992 188.68C64.8398 188.984 65.0078 189.227 65.2031 189.406C65.3984 189.586 65.625 189.676 65.8828 189.676C66.1328 189.676 66.375 189.613 66.6094 189.488C66.8516 189.363 67.0898 189.164 67.3242 188.891C67.5586 188.609 67.7969 188.25 68.0391 187.812C68.2812 187.367 68.5391 186.828 68.8125 186.195C68.7969 185.82 68.7852 185.422 68.7773 185C68.7695 184.57 68.7656 184.113 68.7656 183.629C68.5938 183.121 68.332 182.723 67.9805 182.434C67.6367 182.145 67.2578 182 66.8438 182ZM71.7656 175.156C71.7656 174.797 71.7227 174.547 71.6367 174.406C71.5586 174.266 71.4648 174.195 71.3555 174.195C71.168 174.195 71.0156 174.379 70.8984 174.746C70.7812 175.105 70.6875 175.594 70.6172 176.211C70.5547 176.828 70.5078 177.543 70.4766 178.355C70.4531 179.168 70.4414 180.023 70.4414 180.922V182.211C70.6836 181.422 70.8906 180.711 71.0625 180.078C71.2344 179.445 71.3711 178.855 71.4727 178.309C71.5742 177.762 71.6484 177.234 71.6953 176.727C71.7422 176.219 71.7656 175.695 71.7656 175.156Z" fill="black"/>
<path id="Tools I use everyday" d="M18.9785 16.1172C18.9785 17.3125 19.043 18.4785 19.1719 19.6152C19.3008 20.7402 19.4414 21.8652 19.5938 22.9902C19.7578 24.1152 19.9043 25.2578 20.0332 26.418C20.1738 27.5781 20.2441 28.791 20.2441 30.0566C20.2441 31.2402 20.0859 32.3184 19.7695 33.291C19.4531 34.252 18.9492 35.0781 18.2578 35.7695C17.5664 36.4492 16.6758 36.9707 15.5859 37.334C14.5078 37.709 13.207 37.8965 11.6836 37.8965C10.6758 37.8965 9.71484 37.7559 8.80078 37.4746C7.88672 37.1934 7.08398 36.8008 6.39258 36.2969C5.70117 35.793 5.15039 35.1895 4.74023 34.4863C4.33008 33.7832 4.125 33.0039 4.125 32.1484C4.125 31.5156 4.22461 30.9473 4.42383 30.4434C4.63477 29.9395 4.89844 29.4941 5.21484 29.1074C5.54297 28.709 5.90039 28.3691 6.28711 28.0879C6.68555 27.8066 7.07227 27.5723 7.44727 27.3848C7.82227 27.1973 8.16211 27.0508 8.4668 26.9453C8.77148 26.8398 9 26.7695 9.15234 26.7344L9.52148 27.4551C9.25195 27.5957 8.94727 27.7891 8.60742 28.0352C8.2793 28.2695 7.96875 28.5742 7.67578 28.9492C7.38281 29.3125 7.13672 29.7578 6.9375 30.2852C6.73828 30.8125 6.63867 31.4336 6.63867 32.1484C6.63867 32.9102 6.76758 33.5957 7.02539 34.2051C7.2832 34.8027 7.64062 35.3125 8.09766 35.7344C8.56641 36.1445 9.11719 36.4609 9.75 36.6836C10.3945 36.8945 11.0977 37 11.8594 37C12.6445 37 13.3887 36.9062 14.0918 36.7188C14.8066 36.5195 15.4336 36.1914 15.9727 35.7344C16.5117 35.2773 16.9395 34.6738 17.2559 33.9238C17.5723 33.1738 17.7305 32.2422 17.7305 31.1289C17.7305 30.0156 17.666 28.9023 17.5371 27.7891C17.4199 26.6641 17.291 25.5391 17.1504 24.4141C17.0098 23.2773 16.875 22.1406 16.7461 21.0039C16.6289 19.8555 16.5703 18.6953 16.5703 17.5234C16.5703 16.5039 16.623 15.5723 16.7285 14.7285C16.8457 13.873 17.0215 13.0645 17.2559 12.3027C16.3301 12.1621 15.3809 11.998 14.4082 11.8105C13.4355 11.6113 12.4805 11.4238 11.543 11.248C10.6172 11.0723 9.73242 10.9258 8.88867 10.8086C8.05664 10.6797 7.30664 10.6152 6.63867 10.6152C5.73633 10.6152 4.98633 10.6914 4.38867 10.8438C3.79102 10.9844 3.31055 11.1777 2.94727 11.4238C2.58398 11.6699 2.33203 11.957 2.19141 12.2852C2.03906 12.6016 1.96289 12.9414 1.96289 13.3047C1.96289 13.668 2.05078 14.002 2.22656 14.3066C2.39062 14.6113 2.63086 14.8809 2.94727 15.1152C3.26367 15.3379 3.63867 15.5137 4.07227 15.6426C4.51758 15.7715 5.00977 15.8359 5.54883 15.8359C6.14648 15.8359 6.67383 15.7715 7.13086 15.6426C7.59961 15.502 7.99805 15.3496 8.32617 15.1855C8.71289 14.998 9.05273 14.7812 9.3457 14.5352L9.69727 15.291C9.33398 15.5605 8.93555 15.8008 8.50195 16.0117C8.12695 16.1992 7.6875 16.3691 7.18359 16.5215C6.69141 16.6621 6.14648 16.7324 5.54883 16.7324C4.76367 16.7324 4.06641 16.627 3.45703 16.416C2.85938 16.2051 2.35547 15.9238 1.94531 15.5723C1.53516 15.209 1.22461 14.7871 1.01367 14.3066C0.802734 13.8262 0.697266 13.3164 0.697266 12.7773C0.697266 12.2031 0.796875 11.6465 0.996094 11.1074C1.18359 10.5684 1.50586 10.0879 1.96289 9.66602C2.4082 9.24414 3 8.91016 3.73828 8.66406C4.47656 8.40625 5.38477 8.27734 6.46289 8.27734C7.45898 8.27734 8.45508 8.35938 9.45117 8.52344C10.459 8.67578 11.4492 8.86914 12.4219 9.10352C13.4062 9.32617 14.3613 9.57227 15.2871 9.8418C16.2246 10.0996 17.1211 10.334 17.9766 10.5449C18.4805 9.61914 19.1074 8.88086 19.8574 8.33008C20.6074 7.76758 21.4219 7.48633 22.3008 7.48633C22.6758 7.48633 23.0098 7.55078 23.3027 7.67969C23.5957 7.79688 23.8418 7.95508 24.041 8.1543C24.2402 8.35352 24.3867 8.58789 24.4805 8.85742C24.5859 9.11523 24.6387 9.39062 24.6387 9.68359C24.6387 10.1758 24.5215 10.6035 24.2871 10.9668C24.0645 11.3184 23.7539 11.6172 23.3555 11.8633C22.957 12.0977 22.4883 12.2734 21.9492 12.3906C21.4102 12.4961 20.8301 12.5488 20.209 12.5488C20.0684 12.5488 19.9219 12.5488 19.7695 12.5488C19.6289 12.5488 19.4883 12.5371 19.3477 12.5137C19.2422 12.9121 19.1543 13.4277 19.084 14.0605C19.0137 14.6934 18.9785 15.3789 18.9785 16.1172ZM22.3008 8.45312C21.7734 8.45312 21.2871 8.64648 20.8418 9.0332C20.3965 9.4082 20.0273 10.0527 19.7344 10.9668C20.0977 11.0254 20.4492 11.0723 20.7891 11.1074C21.1289 11.1426 21.4512 11.1602 21.7559 11.1602C22.0723 11.1602 22.3418 11.1191 22.5645 11.0371C22.7988 10.9434 22.9863 10.8262 23.127 10.6855C23.2676 10.5449 23.373 10.3867 23.4434 10.2109C23.5137 10.0352 23.5488 9.85938 23.5488 9.68359C23.5488 9.34375 23.4316 9.05664 23.1973 8.82227C22.9629 8.57617 22.6641 8.45312 22.3008 8.45312ZM38.6484 29.6172L38.4551 29.9863C38.0566 30.7832 37.5234 31.4219 36.8555 31.9023C36.1992 32.3711 35.4844 32.6758 34.7109 32.8164C34.5 33.4141 34.2246 33.9707 33.8848 34.4863C33.5566 34.9902 33.1758 35.4297 32.7422 35.8047C32.3203 36.1797 31.8398 36.4727 31.3008 36.6836C30.7734 36.8945 30.1992 37 29.5781 37C28.6758 37 27.8613 36.8125 27.1348 36.4375C26.4199 36.0508 25.8105 35.5352 25.3066 34.8906C24.8027 34.2344 24.416 33.4727 24.1465 32.6055C23.877 31.7266 23.7422 30.7891 23.7422 29.793C23.7422 28.9258 23.8418 28.1406 24.041 27.4375C24.2402 26.7227 24.4922 26.0898 24.7969 25.5391C25.1016 24.9766 25.4414 24.4902 25.8164 24.0801C26.1914 23.6582 26.5605 23.3125 26.9238 23.043C27.2871 22.7734 27.6152 22.5742 27.9082 22.4453C28.2129 22.3047 28.4414 22.2344 28.5938 22.2344L28.8223 22.8496C28.3418 23.2012 27.9141 23.6934 27.5391 24.3262C27.2109 24.8652 26.9121 25.5801 26.6426 26.4707C26.3848 27.3613 26.2559 28.4688 26.2559 29.793C26.2559 30.6016 26.332 31.3867 26.4844 32.1484C26.6367 32.9102 26.8594 33.584 27.1523 34.1699C27.4453 34.7559 27.8027 35.2246 28.2246 35.5762C28.6582 35.9277 29.1445 36.1035 29.6836 36.1035C30.4219 36.1035 31.0312 35.8105 31.5117 35.2246C32.0039 34.627 32.3672 33.8125 32.6016 32.7812C31.9922 32.6523 31.4121 32.4121 30.8613 32.0605C30.3105 31.709 29.8242 31.2754 29.4023 30.7598C28.9805 30.2324 28.6406 29.6289 28.3828 28.9492C28.1367 28.2695 28.0137 27.5312 28.0137 26.7344C28.0137 26.0781 28.0957 25.5039 28.2598 25.0117C28.4355 24.5078 28.6641 24.0918 28.9453 23.7637C29.2266 23.4238 29.5488 23.1719 29.9121 23.0078C30.2871 22.832 30.6797 22.7441 31.0898 22.7441C31.5703 22.7441 32.0625 22.8848 32.5664 23.166C33.0703 23.4355 33.5273 23.8457 33.9375 24.3965C34.3477 24.9355 34.6816 25.6152 34.9395 26.4355C35.1973 27.2559 35.3262 28.2109 35.3262 29.3008C35.3262 29.7109 35.3027 30.1152 35.2559 30.5137C35.209 30.9121 35.1387 31.2988 35.0449 31.6738C35.6074 31.5098 36.1172 31.2461 36.5742 30.8828C37.043 30.5195 37.4297 30.0391 37.7344 29.4414L37.9277 29.0723L38.6484 29.6172ZM29.1738 26.5938C29.1738 27.2852 29.2676 27.9238 29.4551 28.5098C29.6543 29.084 29.918 29.5938 30.2461 30.0391C30.5742 30.4727 30.9551 30.8359 31.3887 31.1289C31.8223 31.4219 32.2852 31.627 32.7773 31.7441C32.8359 31.416 32.8711 31.0762 32.8828 30.7246C32.9062 30.3613 32.918 29.9922 32.918 29.6172C32.918 28.7852 32.8535 28.0352 32.7246 27.3672C32.5957 26.6875 32.4258 26.1133 32.2148 25.6445C32.0039 25.1641 31.7578 24.7949 31.4766 24.5371C31.1953 24.2793 30.9082 24.1504 30.6152 24.1504C30.2168 24.1504 29.877 24.3672 29.5957 24.8008C29.3145 25.2227 29.1738 25.8203 29.1738 26.5938ZM52.6758 29.6172L52.4824 29.9863C52.084 30.7832 51.5508 31.4219 50.8828 31.9023C50.2266 32.3711 49.5117 32.6758 48.7383 32.8164C48.5273 33.4141 48.252 33.9707 47.9121 34.4863C47.584 34.9902 47.2031 35.4297 46.7695 35.8047C46.3477 36.1797 45.8672 36.4727 45.3281 36.6836C44.8008 36.8945 44.2266 37 43.6055 37C42.7031 37 41.8887 36.8125 41.1621 36.4375C40.4473 36.0508 39.8379 35.5352 39.334 34.8906C38.8301 34.2344 38.4434 33.4727 38.1738 32.6055C37.9043 31.7266 37.7695 30.7891 37.7695 29.793C37.7695 28.9258 37.8691 28.1406 38.0684 27.4375C38.2676 26.7227 38.5195 26.0898 38.8242 25.5391C39.1289 24.9766 39.4688 24.4902 39.8438 24.0801C40.2188 23.6582 40.5879 23.3125 40.9512 23.043C41.3145 22.7734 41.6426 22.5742 41.9355 22.4453C42.2402 22.3047 42.4688 22.2344 42.6211 22.2344L42.8496 22.8496C42.3691 23.2012 41.9414 23.6934 41.5664 24.3262C41.2383 24.8652 40.9395 25.5801 40.6699 26.4707C40.4121 27.3613 40.2832 28.4688 40.2832 29.793C40.2832 30.6016 40.3594 31.3867 40.5117 32.1484C40.6641 32.9102 40.8867 33.584 41.1797 34.1699C41.4727 34.7559 41.8301 35.2246 42.252 35.5762C42.6855 35.9277 43.1719 36.1035 43.7109 36.1035C44.4492 36.1035 45.0586 35.8105 45.5391 35.2246C46.0312 34.627 46.3945 33.8125 46.6289 32.7812C46.0195 32.6523 45.4395 32.4121 44.8887 32.0605C44.3379 31.709 43.8516 31.2754 43.4297 30.7598C43.0078 30.2324 42.668 29.6289 42.4102 28.9492C42.1641 28.2695 42.041 27.5312 42.041 26.7344C42.041 26.0781 42.123 25.5039 42.2871 25.0117C42.4629 24.5078 42.6914 24.0918 42.9727 23.7637C43.2539 23.4238 43.5762 23.1719 43.9395 23.0078C44.3145 22.832 44.707 22.7441 45.1172 22.7441C45.5977 22.7441 46.0898 22.8848 46.5938 23.166C47.0977 23.4355 47.5547 23.8457 47.9648 24.3965C48.375 24.9355 48.709 25.6152 48.9668 26.4355C49.2246 27.2559 49.3535 28.2109 49.3535 29.3008C49.3535 29.7109 49.3301 30.1152 49.2832 30.5137C49.2363 30.9121 49.166 31.2988 49.0723 31.6738C49.6348 31.5098 50.1445 31.2461 50.6016 30.8828C51.0703 30.5195 51.457 30.0391 51.7617 29.4414L51.9551 29.0723L52.6758 29.6172ZM43.2012 26.5938C43.2012 27.2852 43.2949 27.9238 43.4824 28.5098C43.6816 29.084 43.9453 29.5938 44.2734 30.0391C44.6016 30.4727 44.9824 30.8359 45.416 31.1289C45.8496 31.4219 46.3125 31.627 46.8047 31.7441C46.8633 31.416 46.8984 31.0762 46.9102 30.7246C46.9336 30.3613 46.9453 29.9922 46.9453 29.6172C46.9453 28.7852 46.8809 28.0352 46.752 27.3672C46.623 26.6875 46.4531 26.1133 46.2422 25.6445C46.0312 25.1641 45.7852 24.7949 45.5039 24.5371C45.2227 24.2793 44.9355 24.1504 44.6426 24.1504C44.2441 24.1504 43.9043 24.3672 43.623 24.8008C43.3418 25.2227 43.2012 25.8203 43.2012 26.5938ZM55.752 34.7676C55.9629 34.7676 56.2031 34.6328 56.4727 34.3633C56.7539 34.082 57.0527 33.7012 57.3691 33.2207C57.6855 32.7402 58.0195 32.1777 58.3711 31.5332C58.7227 30.8887 59.0859 30.1914 59.4609 29.4414L59.6367 29.0723L60.3574 29.6172L60.1816 29.9863C59.5605 31.2285 59.0039 32.2949 58.5117 33.1855C58.0312 34.0645 57.5801 34.791 57.1582 35.3652C56.7363 35.9277 56.332 36.3438 55.9453 36.6133C55.5703 36.8711 55.1836 37 54.7852 37C54.2578 37 53.8008 36.8301 53.4141 36.4902C53.0391 36.1387 52.7227 35.5586 52.4648 34.75C52.2188 33.9297 52.0371 32.8516 51.9199 31.5156C51.791 30.1797 51.7266 28.5273 51.7266 26.5586C51.7266 23.7695 51.8438 21.3789 52.0781 19.3867C52.3125 17.3828 52.6289 15.7422 53.0273 14.4648C53.4375 13.1758 53.9062 12.2324 54.4336 11.6348C54.9727 11.0254 55.5352 10.7207 56.1211 10.7207C56.4727 10.7207 56.7656 10.8672 57 11.1602C57.2461 11.4414 57.3691 11.957 57.3691 12.707C57.3691 13.293 57.3223 13.9609 57.2285 14.7109C57.1348 15.4609 57.0117 16.2637 56.8594 17.1191C56.707 17.9746 56.5254 18.8652 56.3145 19.791C56.1035 20.7051 55.8809 21.6191 55.6465 22.5332C55.4121 23.4355 55.1719 24.3262 54.9258 25.2051C54.6797 26.0723 54.4395 26.8867 54.2051 27.6484C54.2754 29.0898 54.3516 30.2734 54.4336 31.1992C54.5273 32.1133 54.6328 32.834 54.75 33.3613C54.8789 33.8887 55.0254 34.2578 55.1895 34.4688C55.3535 34.668 55.541 34.7676 55.752 34.7676ZM56.2266 13.1289C56.2266 12.8828 56.1973 12.6895 56.1387 12.5488C56.0801 12.4082 55.9863 12.3379 55.8574 12.3379C55.7285 12.3379 55.5996 12.5195 55.4707 12.8828C55.3418 13.2461 55.2129 13.7383 55.084 14.3594C54.9668 14.9805 54.8555 15.7012 54.75 16.5215C54.6562 17.3418 54.5684 18.2148 54.4863 19.1406C54.4043 20.0547 54.3398 20.9922 54.293 21.9531C54.2461 22.9141 54.2168 23.8398 54.2051 24.7305C54.4863 23.6992 54.7441 22.6445 54.9785 21.5664C55.2246 20.4766 55.4414 19.4219 55.6289 18.4023C55.8164 17.3828 55.9629 16.4219 56.0684 15.5195C56.1738 14.6055 56.2266 13.8086 56.2266 13.1289ZM69.9023 30.8828C69.9023 31.6797 69.7793 32.4473 69.5332 33.1855C69.2988 33.9121 68.9473 34.5625 68.4785 35.1367C68.0215 35.6992 67.4473 36.1504 66.7559 36.4902C66.0762 36.8301 65.2969 37 64.418 37C63.7852 37 63.2168 36.9004 62.7129 36.7012C62.2207 36.4902 61.7988 36.2148 61.4473 35.875C61.0957 35.5234 60.8262 35.1309 60.6387 34.6973C60.4512 34.252 60.3574 33.7949 60.3574 33.3262C60.3574 32.8574 60.4453 32.4238 60.6211 32.0254C60.8086 31.6152 61.0547 31.2695 61.3594 30.9883C61.6758 30.6953 62.0332 30.4668 62.4316 30.3027C62.8301 30.1387 63.252 30.0566 63.6973 30.0566C63.9785 30.0566 64.2715 30.0918 64.5762 30.1621V30.6719C64.2012 30.6719 63.832 30.748 63.4688 30.9004C63.1172 31.0527 62.8008 31.2637 62.5195 31.5332C62.25 31.791 62.0332 32.1074 61.8691 32.4824C61.7051 32.8457 61.623 33.2383 61.623 33.6602C61.623 34.4336 61.8867 35.0547 62.4141 35.5234C62.9531 35.9805 63.6855 36.209 64.6113 36.209C65.0801 36.209 65.5078 36.1211 65.8945 35.9453C66.2812 35.7578 66.6094 35.5059 66.8789 35.1895C67.1602 34.8613 67.3711 34.4746 67.5117 34.0293C67.6641 33.584 67.7402 33.0977 67.7402 32.5703C67.7402 32.0664 67.6406 31.5977 67.4414 31.1641C67.2422 30.7305 66.9785 30.3203 66.6504 29.9336C66.3223 29.5469 65.9473 29.1836 65.5254 28.8438C65.1152 28.5039 64.6934 28.1816 64.2598 27.877C63.8379 27.5605 63.4219 27.2559 63.0117 26.9629C62.6016 26.6699 62.2441 26.377 61.9395 26.084L60.1816 29.9863L59.4609 29.4414L61.2539 25.5215C60.8203 25.1113 60.498 24.7246 60.2871 24.3613C60.0879 23.9863 59.9883 23.541 59.9883 23.0254C59.9883 22.7441 60.0352 22.4805 60.1289 22.2344C60.2344 21.9766 60.3691 21.7598 60.5332 21.584C60.709 21.3965 60.9082 21.25 61.1309 21.1445C61.3535 21.0391 61.5879 20.9863 61.834 20.9863C62.2793 20.9863 62.6133 21.1152 62.8359 21.373C63.0586 21.6191 63.1699 21.9297 63.1699 22.3047C63.1699 22.4805 63.1523 22.668 63.1172 22.8672C63.082 23.0547 63.0352 23.248 62.9766 23.4473C62.9297 23.6348 62.877 23.8105 62.8184 23.9746C62.7715 24.1387 62.7305 24.2793 62.6953 24.3965C63.0469 24.666 63.4688 24.9297 63.9609 25.1875C64.4531 25.4336 64.9629 25.6914 65.4902 25.9609C66.0293 26.2305 66.5625 26.5234 67.0898 26.8398C67.6172 27.1562 68.0859 27.5078 68.4961 27.8945C68.918 28.2812 69.2578 28.7207 69.5156 29.2129C69.7734 29.7051 69.9023 30.2617 69.9023 30.8828ZM61.8691 21.7773C61.7051 21.7773 61.5703 21.8359 61.4648 21.9531C61.3711 22.0586 61.3242 22.2051 61.3242 22.3926C61.3242 22.6035 61.377 22.8379 61.4824 23.0957C61.5879 23.3535 61.7754 23.6055 62.0449 23.8516C62.1621 23.6055 62.25 23.3652 62.3086 23.1309C62.3789 22.8965 62.4141 22.6621 62.4141 22.4277C62.4141 22.2402 62.3613 22.0879 62.2559 21.9707C62.1621 21.8418 62.0332 21.7773 61.8691 21.7773ZM91.541 29.8633C91.541 29.5469 91.5293 29.2422 91.5059 28.9492C91.4941 28.6445 91.4766 28.334 91.4531 28.0176C91.4297 27.7012 91.4004 27.3672 91.3652 27.0156C91.3301 26.6523 91.2949 26.248 91.2598 25.8027C90.7793 25.9902 90.2695 26.1367 89.7305 26.2422C89.1914 26.3359 88.5938 26.3828 87.9375 26.3828C87.2109 26.3828 86.5137 26.2715 85.8457 26.0488C85.1777 25.8145 84.5859 25.4746 84.0703 25.0293C83.5547 24.584 83.1387 24.0273 82.8223 23.3594C82.5176 22.6797 82.3652 21.8887 82.3652 20.9863C82.3652 20.4121 82.4297 19.8613 82.5586 19.334C82.6992 18.7949 82.9395 18.2324 83.2793 17.6465C83.6191 17.0605 84.0703 16.4277 84.6328 15.748C85.207 15.0566 85.9277 14.2715 86.7949 13.3926C87.6621 12.5137 88.6875 11.5176 89.8711 10.4043C91.0664 9.29102 92.4609 8.01367 94.0547 6.57227L94.7754 7.11719C94.5176 7.46875 94.2891 7.85547 94.0898 8.27734C93.8906 8.69922 93.7207 9.18555 93.5801 9.73633C93.4395 10.2871 93.334 10.9258 93.2637 11.6523C93.1934 12.3672 93.1582 13.1992 93.1582 14.1484C93.1582 15.5664 93.2109 17.0078 93.3164 18.4727C93.4219 19.9258 93.5391 21.3496 93.668 22.7441C93.9023 22.416 94.1074 22.0703 94.2832 21.707C94.4707 21.3438 94.6348 20.9805 94.7754 20.6172L95.4961 20.9863C95.2617 21.5488 95.0039 22.0762 94.7227 22.5684C94.4531 23.0605 94.1367 23.5176 93.7734 23.9395C93.832 24.5371 93.8906 25.0879 93.9492 25.5918C94.0078 26.084 94.0547 26.5469 94.0898 26.9805C94.1367 27.4141 94.1719 27.8301 94.1953 28.2285C94.2305 28.627 94.248 29.0312 94.248 29.4414C94.248 30.707 94.1309 31.832 93.8965 32.8164C93.6738 33.8008 93.2344 34.6562 92.5781 35.3828C91.9336 36.1211 91.0137 36.7246 89.8184 37.1934C88.6348 37.6621 87.2285 37.8965 85.5996 37.8965C84.5918 37.8965 83.6309 37.7559 82.7168 37.4746C81.8027 37.1934 81 36.8008 80.3086 36.2969C79.6172 35.793 79.0664 35.1895 78.6562 34.4863C78.2461 33.7832 78.041 33.0039 78.041 32.1484C78.041 31.5156 78.1465 30.9473 78.3574 30.4434C78.5566 29.9395 78.8203 29.4941 79.1484 29.1074C79.4766 28.709 79.834 28.3691 80.2207 28.0879C80.6191 27.8066 81.0059 27.5723 81.3809 27.3848C81.7559 27.1973 82.0957 27.0508 82.4004 26.9453C82.7051 26.8398 82.9336 26.7695 83.0859 26.7344L83.4375 27.4551C83.168 27.5957 82.8633 27.7891 82.5234 28.0352C82.1953 28.2695 81.8848 28.5742 81.5918 28.9492C81.2988 29.3125 81.0527 29.7578 80.8535 30.2852C80.6543 30.8125 80.5547 31.4336 80.5547 32.1484C80.5547 32.9102 80.6836 33.5957 80.9414 34.2051C81.1992 34.8027 81.5566 35.3125 82.0137 35.7344C82.4824 36.1445 83.0332 36.4609 83.666 36.6836C84.3105 36.8945 85.0137 37 85.7754 37C86.6309 37 87.4102 36.8828 88.1133 36.6484C88.8281 36.4141 89.4375 36.0215 89.9414 35.4707C90.4453 34.9199 90.8379 34.1875 91.1191 33.2734C91.4004 32.3594 91.541 31.2227 91.541 29.8633ZM91.541 10.1758C90.627 11.0547 89.8184 11.8457 89.1152 12.5488C88.4121 13.252 87.7969 13.8965 87.2695 14.4824C86.7539 15.0684 86.3203 15.6133 85.9688 16.1172C85.6172 16.6094 85.3359 17.0957 85.125 17.5762C84.9141 18.0566 84.7617 18.543 84.668 19.0352C84.5742 19.5273 84.5273 20.0547 84.5273 20.6172C84.5273 22.3281 84.9082 23.5703 85.6699 24.3438C86.4316 25.1055 87.4863 25.4863 88.834 25.4863C89.2793 25.4863 89.6953 25.4453 90.082 25.3633C90.4805 25.2695 90.8496 25.1406 91.1895 24.9766C91.1074 24.168 91.0195 23.3594 90.9258 22.5508C90.8438 21.7305 90.7676 20.9453 90.6973 20.1953C90.627 19.4336 90.5684 18.7188 90.5215 18.0508C90.4863 17.3828 90.4688 16.7969 90.4688 16.293C90.4688 15.7891 90.4922 15.2383 90.5391 14.6406C90.5977 14.043 90.6738 13.4629 90.7676 12.9004C90.8613 12.3262 90.9727 11.7988 91.1016 11.3184C91.2305 10.8262 91.377 10.4453 91.541 10.1758ZM112.793 33.1855C112.734 33.2793 112.646 33.4434 112.529 33.6777C112.424 33.9004 112.283 34.1523 112.107 34.4336C111.943 34.7148 111.744 35.0078 111.51 35.3125C111.287 35.6172 111.029 35.8926 110.736 36.1387C110.443 36.3848 110.115 36.5898 109.752 36.7539C109.4 36.918 109.008 37 108.574 37C108.234 37 107.883 36.9297 107.52 36.7891C107.156 36.6484 106.816 36.3906 106.5 36.0156C106.195 35.6406 105.943 35.1309 105.744 34.4863C105.545 33.8301 105.445 32.9863 105.445 31.9551C105.445 30.9707 105.48 29.9863 105.551 29.002C105.621 28.0059 105.703 27.0977 105.797 26.2773C105.902 25.457 106.002 24.7715 106.096 24.2207C106.189 23.6699 106.26 23.3359 106.307 23.2188C106.354 23.1133 106.447 23.0195 106.588 22.9375C106.729 22.8555 106.887 22.791 107.062 22.7441C107.25 22.6973 107.438 22.6621 107.625 22.6387C107.824 22.6152 107.994 22.6035 108.135 22.6035C108.322 22.6035 108.469 22.6504 108.574 22.7441C108.691 22.8379 108.75 22.9961 108.75 23.2188C108.75 23.3242 108.727 23.5352 108.68 23.8516C108.645 24.1562 108.598 24.5312 108.539 24.9766C108.48 25.4219 108.416 25.9141 108.346 26.4531C108.287 26.9922 108.229 27.543 108.17 28.1055C108.111 28.6562 108.059 29.207 108.012 29.7578C107.977 30.2969 107.959 30.7891 107.959 31.2344C107.959 32.5117 108.094 33.4609 108.363 34.082C108.645 34.7031 109.102 35.0137 109.734 35.0137C110.273 35.0137 110.818 34.6211 111.369 33.8359C111.932 33.0508 112.418 31.9082 112.828 30.4082C112.887 29.7754 112.939 29.1016 112.986 28.3867C113.045 27.6602 113.098 26.9746 113.145 26.3301C113.191 25.6738 113.232 25.0879 113.268 24.5723C113.314 24.0566 113.355 23.6875 113.391 23.4648C113.426 23.3008 113.52 23.166 113.672 23.0605C113.824 22.9434 113.994 22.8555 114.182 22.7969C114.381 22.7266 114.568 22.6797 114.744 22.6562C114.932 22.6211 115.072 22.6035 115.166 22.6035C115.365 22.6035 115.5 22.6504 115.57 22.7441C115.652 22.8262 115.693 22.9609 115.693 23.1484C115.693 23.3125 115.676 23.6289 115.641 24.0977C115.617 24.5547 115.582 25.0938 115.535 25.7148C115.5 26.3242 115.459 26.9805 115.412 27.6836C115.365 28.3867 115.318 29.0664 115.271 29.7227C115.236 30.3672 115.201 30.9531 115.166 31.4805C115.143 32.0078 115.131 32.4062 115.131 32.6758C115.131 33.4727 115.172 34.0996 115.254 34.5566C115.348 35.0137 115.547 35.2422 115.852 35.2422C116.074 35.2422 116.314 35.1016 116.572 34.8203C116.842 34.5273 117.129 34.123 117.434 33.6074C117.75 33.0918 118.09 32.4824 118.453 31.7793C118.816 31.0645 119.209 30.2852 119.631 29.4414L119.807 29.0723L120.527 29.6172L120.352 29.9863C119.789 31.0996 119.291 32.0957 118.857 32.9746C118.436 33.8418 118.031 34.5742 117.645 35.1719C117.258 35.7695 116.865 36.2266 116.467 36.543C116.068 36.8477 115.623 37 115.131 37C114.674 37 114.293 36.9121 113.988 36.7363C113.695 36.5605 113.461 36.3086 113.285 35.9805C113.109 35.6523 112.98 35.2539 112.898 34.7852C112.828 34.3164 112.793 33.7832 112.793 33.1855ZM130.09 30.8828C130.09 31.6797 129.967 32.4473 129.721 33.1855C129.486 33.9121 129.135 34.5625 128.666 35.1367C128.209 35.6992 127.635 36.1504 126.943 36.4902C126.264 36.8301 125.484 37 124.605 37C123.973 37 123.404 36.9004 122.9 36.7012C122.408 36.4902 121.986 36.2148 121.635 35.875C121.283 35.5234 121.014 35.1309 120.826 34.6973C120.639 34.252 120.545 33.7949 120.545 33.3262C120.545 32.8574 120.633 32.4238 120.809 32.0254C120.996 31.6152 121.242 31.2695 121.547 30.9883C121.863 30.6953 122.221 30.4668 122.619 30.3027C123.018 30.1387 123.439 30.0566 123.885 30.0566C124.166 30.0566 124.459 30.0918 124.764 30.1621V30.6719C124.389 30.6719 124.02 30.748 123.656 30.9004C123.305 31.0527 122.988 31.2637 122.707 31.5332C122.438 31.791 122.221 32.1074 122.057 32.4824C121.893 32.8457 121.811 33.2383 121.811 33.6602C121.811 34.4336 122.074 35.0547 122.602 35.5234C123.141 35.9805 123.873 36.209 124.799 36.209C125.268 36.209 125.695 36.1211 126.082 35.9453C126.469 35.7578 126.797 35.5059 127.066 35.1895C127.348 34.8613 127.559 34.4746 127.699 34.0293C127.852 33.584 127.928 33.0977 127.928 32.5703C127.928 32.0664 127.828 31.5977 127.629 31.1641C127.43 30.7305 127.166 30.3203 126.838 29.9336C126.51 29.5469 126.135 29.1836 125.713 28.8438C125.303 28.5039 124.881 28.1816 124.447 27.877C124.025 27.5605 123.609 27.2559 123.199 26.9629C122.789 26.6699 122.432 26.377 122.127 26.084L120.369 29.9863L119.648 29.4414L121.441 25.5215C121.008 25.1113 120.686 24.7246 120.475 24.3613C120.275 23.9863 120.176 23.541 120.176 23.0254C120.176 22.7441 120.223 22.4805 120.316 22.2344C120.422 21.9766 120.557 21.7598 120.721 21.584C120.896 21.3965 121.096 21.25 121.318 21.1445C121.541 21.0391 121.775 20.9863 122.021 20.9863C122.467 20.9863 122.801 21.1152 123.023 21.373C123.246 21.6191 123.357 21.9297 123.357 22.3047C123.357 22.4805 123.34 22.668 123.305 22.8672C123.27 23.0547 123.223 23.248 123.164 23.4473C123.117 23.6348 123.064 23.8105 123.006 23.9746C122.959 24.1387 122.918 24.2793 122.883 24.3965C123.234 24.666 123.656 24.9297 124.148 25.1875C124.641 25.4336 125.15 25.6914 125.678 25.9609C126.217 26.2305 126.75 26.5234 127.277 26.8398C127.805 27.1562 128.273 27.5078 128.684 27.8945C129.105 28.2812 129.445 28.7207 129.703 29.2129C129.961 29.7051 130.09 30.2617 130.09 30.8828ZM122.057 21.7773C121.893 21.7773 121.758 21.8359 121.652 21.9531C121.559 22.0586 121.512 22.2051 121.512 22.3926C121.512 22.6035 121.564 22.8379 121.67 23.0957C121.775 23.3535 121.963 23.6055 122.232 23.8516C122.35 23.6055 122.438 23.3652 122.496 23.1309C122.566 22.8965 122.602 22.6621 122.602 22.4277C122.602 22.2402 122.549 22.0879 122.443 21.9707C122.35 21.8418 122.221 21.7773 122.057 21.7773ZM136.717 35.0137C137.127 35.0137 137.543 34.9082 137.965 34.6973C138.398 34.4863 138.832 34.1582 139.266 33.7129C139.711 33.2676 140.168 32.6934 140.637 31.9902C141.105 31.2754 141.586 30.4258 142.078 29.4414L142.254 29.0723L142.975 29.6172L142.799 29.9863C142.166 31.2402 141.533 32.3125 140.9 33.2031C140.279 34.0938 139.664 34.8203 139.055 35.3828C138.457 35.9453 137.865 36.3555 137.279 36.6133C136.693 36.8711 136.131 37 135.592 37C134.83 37 134.15 36.8418 133.553 36.5254C132.955 36.209 132.451 35.7812 132.041 35.2422C131.631 34.6914 131.32 34.0586 131.109 33.3438C130.887 32.6172 130.775 31.8555 130.775 31.0586C130.775 29.793 130.951 28.6445 131.303 27.6133C131.643 26.5703 132.1 25.6797 132.674 24.9414C133.26 24.2031 133.922 23.6289 134.66 23.2188C135.398 22.8086 136.166 22.6035 136.963 22.6035C137.771 22.6035 138.387 22.8086 138.809 23.2188C139.242 23.6289 139.459 24.1445 139.459 24.7656C139.459 25.3633 139.289 25.9258 138.949 26.4531C138.609 26.9688 138.146 27.4785 137.561 27.9824C136.986 28.4746 136.318 28.9668 135.557 29.459C134.795 29.9395 133.992 30.4375 133.148 30.9531C133.23 31.5625 133.371 32.1191 133.57 32.623C133.77 33.1152 134.021 33.543 134.326 33.9062C134.631 34.2578 134.982 34.5332 135.381 34.7324C135.779 34.9199 136.225 35.0137 136.717 35.0137ZM137.262 25.293C137.262 24.8242 137.133 24.4551 136.875 24.1855C136.629 23.916 136.324 23.7812 135.961 23.7812C135.656 23.7812 135.334 23.8926 134.994 24.1152C134.654 24.3262 134.344 24.6719 134.062 25.1523C133.781 25.6211 133.547 26.2246 133.359 26.9629C133.172 27.7012 133.078 28.5977 133.078 29.6523V30.0566C133.477 29.8457 133.916 29.5703 134.396 29.2305C134.889 28.8789 135.346 28.4922 135.768 28.0703C136.189 27.6484 136.541 27.2031 136.822 26.7344C137.115 26.2539 137.262 25.7734 137.262 25.293ZM155.736 35.0137C156.146 35.0137 156.562 34.9082 156.984 34.6973C157.418 34.4863 157.852 34.1582 158.285 33.7129C158.73 33.2676 159.188 32.6934 159.656 31.9902C160.125 31.2754 160.605 30.4258 161.098 29.4414L161.273 29.0723L161.994 29.6172L161.818 29.9863C161.186 31.2402 160.553 32.3125 159.92 33.2031C159.299 34.0938 158.684 34.8203 158.074 35.3828C157.477 35.9453 156.885 36.3555 156.299 36.6133C155.713 36.8711 155.15 37 154.611 37C153.85 37 153.17 36.8418 152.572 36.5254C151.975 36.209 151.471 35.7812 151.061 35.2422C150.65 34.6914 150.34 34.0586 150.129 33.3438C149.906 32.6172 149.795 31.8555 149.795 31.0586C149.795 29.793 149.971 28.6445 150.322 27.6133C150.662 26.5703 151.119 25.6797 151.693 24.9414C152.279 24.2031 152.941 23.6289 153.68 23.2188C154.418 22.8086 155.186 22.6035 155.982 22.6035C156.791 22.6035 157.406 22.8086 157.828 23.2188C158.262 23.6289 158.479 24.1445 158.479 24.7656C158.479 25.3633 158.309 25.9258 157.969 26.4531C157.629 26.9688 157.166 27.4785 156.58 27.9824C156.006 28.4746 155.338 28.9668 154.576 29.459C153.814 29.9395 153.012 30.4375 152.168 30.9531C152.25 31.5625 152.391 32.1191 152.59 32.623C152.789 33.1152 153.041 33.543 153.346 33.9062C153.65 34.2578 154.002 34.5332 154.4 34.7324C154.799 34.9199 155.244 35.0137 155.736 35.0137ZM156.281 25.293C156.281 24.8242 156.152 24.4551 155.895 24.1855C155.648 23.916 155.344 23.7812 154.98 23.7812C154.676 23.7812 154.354 23.8926 154.014 24.1152C153.674 24.3262 153.363 24.6719 153.082 25.1523C152.801 25.6211 152.566 26.2246 152.379 26.9629C152.191 27.7012 152.098 28.5977 152.098 29.6523V30.0566C152.496 29.8457 152.936 29.5703 153.416 29.2305C153.908 28.8789 154.365 28.4922 154.787 28.0703C155.209 27.6484 155.561 27.2031 155.842 26.7344C156.135 26.2539 156.281 25.7734 156.281 25.293ZM164.227 23.6758C164.227 24.1328 164.186 24.7129 164.104 25.416C164.033 26.1191 163.951 26.9043 163.857 27.7715C163.775 28.627 163.693 29.5469 163.611 30.5312C163.541 31.5156 163.506 32.5176 163.506 33.5371C163.506 34.3574 163.641 34.9258 163.91 35.2422C164.18 35.5469 164.549 35.6992 165.018 35.6992C165.346 35.6992 165.68 35.6113 166.02 35.4355C166.359 35.2598 166.682 35.0195 166.986 34.7148C167.303 34.4102 167.596 34.0469 167.865 33.625C168.135 33.2031 168.375 32.7461 168.586 32.2539C167.918 31.8438 167.355 31.1758 166.898 30.25C166.441 29.3125 166.213 28.1289 166.213 26.6992C166.213 25.9844 166.289 25.3809 166.441 24.8887C166.594 24.3848 166.793 23.9746 167.039 23.6582C167.297 23.3418 167.584 23.1133 167.9 22.9727C168.217 22.8203 168.539 22.7441 168.867 22.7441C169.16 22.7441 169.447 22.8027 169.729 22.9199C170.01 23.0371 170.256 23.2305 170.467 23.5C170.678 23.7578 170.848 24.1035 170.977 24.5371C171.105 24.9707 171.17 25.5039 171.17 26.1367C171.17 26.9336 171.07 27.8301 170.871 28.8262C170.684 29.8105 170.402 30.7949 170.027 31.7793C170.086 31.7793 170.145 31.7852 170.203 31.7969C170.262 31.8086 170.32 31.8145 170.379 31.8145C171.035 31.8145 171.592 31.6035 172.049 31.1816C172.518 30.748 172.934 30.168 173.297 29.4414L173.473 29.0723L174.193 29.6172L174.018 29.9863C173.549 30.9004 172.98 31.5859 172.312 32.043C171.656 32.4883 170.977 32.7109 170.273 32.7109C170.168 32.7109 170.051 32.7051 169.922 32.6934C169.805 32.6816 169.717 32.6641 169.658 32.6406C169.389 33.2383 169.072 33.8008 168.709 34.3281C168.346 34.8555 167.941 35.3184 167.496 35.7168C167.062 36.1035 166.582 36.4141 166.055 36.6484C165.539 36.8828 164.988 37 164.402 37C163.922 37 163.477 36.9297 163.066 36.7891C162.656 36.6367 162.293 36.3672 161.977 35.9805C161.672 35.582 161.432 35.0488 161.256 34.3809C161.08 33.7012 160.992 32.834 160.992 31.7793C160.992 31.3105 161.004 30.7891 161.027 30.2148C161.051 29.6289 161.086 29.0371 161.133 28.4395C161.168 27.8418 161.215 27.2559 161.273 26.6816C161.32 26.1074 161.373 25.5859 161.432 25.1172C161.49 24.6367 161.549 24.2383 161.607 23.9219C161.666 23.5938 161.725 23.3828 161.783 23.2891C161.924 23.0312 162.158 22.8555 162.486 22.7617C162.814 22.6562 163.131 22.6035 163.436 22.6035C163.646 22.6035 163.828 22.6797 163.98 22.832C164.145 22.9844 164.227 23.2656 164.227 23.6758ZM167.18 26.7695C167.18 27.8945 167.344 28.8438 167.672 29.6172C168.012 30.3789 168.434 30.9414 168.938 31.3047C169.195 30.5664 169.395 29.8047 169.535 29.0195C169.688 28.2227 169.764 27.4609 169.764 26.7344C169.764 26.2656 169.723 25.873 169.641 25.5566C169.57 25.2285 169.477 24.9648 169.359 24.7656C169.242 24.5664 169.102 24.4258 168.938 24.3438C168.785 24.2617 168.633 24.2207 168.48 24.2207C168.316 24.2207 168.158 24.2676 168.006 24.3613C167.854 24.4434 167.713 24.584 167.584 24.7832C167.467 24.9824 167.367 25.2461 167.285 25.5742C167.215 25.9023 167.18 26.3008 167.18 26.7695ZM178.658 35.0137C179.068 35.0137 179.484 34.9082 179.906 34.6973C180.34 34.4863 180.773 34.1582 181.207 33.7129C181.652 33.2676 182.109 32.6934 182.578 31.9902C183.047 31.2754 183.527 30.4258 184.02 29.4414L184.195 29.0723L184.916 29.6172L184.74 29.9863C184.107 31.2402 183.475 32.3125 182.842 33.2031C182.221 34.0938 181.605 34.8203 180.996 35.3828C180.398 35.9453 179.807 36.3555 179.221 36.6133C178.635 36.8711 178.072 37 177.533 37C176.771 37 176.092 36.8418 175.494 36.5254C174.896 36.209 174.393 35.7812 173.982 35.2422C173.572 34.6914 173.262 34.0586 173.051 33.3438C172.828 32.6172 172.717 31.8555 172.717 31.0586C172.717 29.793 172.893 28.6445 173.244 27.6133C173.584 26.5703 174.041 25.6797 174.615 24.9414C175.201 24.2031 175.863 23.6289 176.602 23.2188C177.34 22.8086 178.107 22.6035 178.904 22.6035C179.713 22.6035 180.328 22.8086 180.75 23.2188C181.184 23.6289 181.4 24.1445 181.4 24.7656C181.4 25.3633 181.23 25.9258 180.891 26.4531C180.551 26.9688 180.088 27.4785 179.502 27.9824C178.928 28.4746 178.26 28.9668 177.498 29.459C176.736 29.9395 175.934 30.4375 175.09 30.9531C175.172 31.5625 175.312 32.1191 175.512 32.623C175.711 33.1152 175.963 33.543 176.268 33.9062C176.572 34.2578 176.924 34.5332 177.322 34.7324C177.721 34.9199 178.166 35.0137 178.658 35.0137ZM179.203 25.293C179.203 24.8242 179.074 24.4551 178.816 24.1855C178.57 23.916 178.266 23.7812 177.902 23.7812C177.598 23.7812 177.275 23.8926 176.936 24.1152C176.596 24.3262 176.285 24.6719 176.004 25.1523C175.723 25.6211 175.488 26.2246 175.301 26.9629C175.113 27.7012 175.02 28.5977 175.02 29.6523V30.0566C175.418 29.8457 175.857 29.5703 176.338 29.2305C176.83 28.8789 177.287 28.4922 177.709 28.0703C178.131 27.6484 178.482 27.2031 178.764 26.7344C179.057 26.2539 179.203 25.7734 179.203 25.293ZM184.02 29.4414L184.195 29.0723C184.371 28.7207 184.529 28.3574 184.67 27.9824C184.822 27.6074 184.951 27.2559 185.057 26.9277C185.162 26.5879 185.244 26.2891 185.303 26.0312C185.361 25.7617 185.402 25.5566 185.426 25.416C185.121 25.3809 184.828 25.3047 184.547 25.1875C184.266 25.0703 184.02 24.9121 183.809 24.7129C183.598 24.5137 183.434 24.2793 183.316 24.0098C183.188 23.7402 183.123 23.4355 183.123 23.0957C183.123 22.8262 183.17 22.5859 183.264 22.375C183.357 22.1641 183.486 21.9883 183.65 21.8477C183.803 21.707 183.979 21.6016 184.178 21.5312C184.365 21.4492 184.564 21.4082 184.775 21.4082C185.057 21.4082 185.303 21.4668 185.514 21.584C185.725 21.7012 185.9 21.8594 186.041 22.0586C186.182 22.2461 186.287 22.4688 186.357 22.7266C186.428 22.9727 186.463 23.2305 186.463 23.5C186.791 23.5 187.143 23.4531 187.518 23.3594C187.904 23.2656 188.291 23.166 188.678 23.0605C189.064 22.9434 189.445 22.8379 189.82 22.7441C190.195 22.6504 190.541 22.6035 190.857 22.6035C191.127 22.6035 191.344 22.6621 191.508 22.7793C191.672 22.8848 191.754 23.0664 191.754 23.3242C191.754 23.5117 191.695 23.8223 191.578 24.2559C191.473 24.6895 191.338 25.1934 191.174 25.7676C191.01 26.3418 190.828 26.9688 190.629 27.6484C190.441 28.3164 190.266 28.9961 190.102 29.6875C189.938 30.3672 189.797 31.0293 189.68 31.6738C189.574 32.3184 189.521 32.8926 189.521 33.3965C189.521 34.0293 189.592 34.457 189.732 34.6797C189.873 34.9023 190.125 35.0137 190.488 35.0137C190.641 35.0137 190.828 34.9492 191.051 34.8203C191.285 34.6797 191.566 34.416 191.895 34.0293C192.223 33.6309 192.609 33.0684 193.055 32.3418C193.512 31.6035 194.039 30.6367 194.637 29.4414L194.812 29.0723L195.533 29.6172L195.357 29.9863C194.654 31.3926 194.027 32.5469 193.477 33.4492C192.926 34.3516 192.416 35.0664 191.947 35.5938C191.49 36.1211 191.057 36.4902 190.646 36.7012C190.236 36.9004 189.826 37 189.416 37C188.725 37 188.162 36.7363 187.729 36.209C187.295 35.6816 187.078 34.8672 187.078 33.7656C187.078 33.168 187.16 32.5469 187.324 31.9023C187.488 31.2578 187.693 30.6191 187.939 29.9863C188.186 29.3418 188.461 28.709 188.766 28.0879C189.07 27.4668 189.357 26.8809 189.627 26.3301C189.908 25.7676 190.16 25.2461 190.383 24.7656C190.605 24.2852 190.764 23.8633 190.857 23.5L190.752 23.3945C190.564 23.3945 190.312 23.4941 189.996 23.6934C189.68 23.8926 189.322 24.1211 188.924 24.3789C188.537 24.625 188.121 24.8594 187.676 25.082C187.23 25.3047 186.779 25.4395 186.322 25.4863C186.299 25.6504 186.246 25.8906 186.164 26.207C186.094 26.5234 185.994 26.875 185.865 27.2617C185.736 27.6484 185.59 28.0469 185.426 28.457C185.262 28.8672 185.092 29.2539 184.916 29.6172L184.74 29.9863L184.02 29.4414ZM184.881 22.3926C184.775 22.3926 184.688 22.4277 184.617 22.498C184.547 22.5684 184.512 22.6504 184.512 22.7441C184.512 22.8848 184.547 23.0078 184.617 23.1133C184.688 23.207 184.775 23.2891 184.881 23.3594C184.986 23.418 185.092 23.4648 185.197 23.5C185.314 23.5234 185.414 23.5352 185.496 23.5352C185.496 23.207 185.443 22.9375 185.338 22.7266C185.232 22.5039 185.08 22.3926 184.881 22.3926ZM195.92 23.0957C195.967 22.9785 196.078 22.8848 196.254 22.8145C196.43 22.7441 196.617 22.6973 196.816 22.6738C197.016 22.6387 197.203 22.6211 197.379 22.6211C197.555 22.6094 197.672 22.6035 197.73 22.6035C197.906 22.6035 198.018 22.6504 198.064 22.7441C198.123 22.8262 198.152 22.9609 198.152 23.1484C198.152 23.2422 198.123 23.4531 198.064 23.7812C198.006 24.0977 197.93 24.4961 197.836 24.9766C197.754 25.457 197.66 26.002 197.555 26.6113C197.461 27.2207 197.367 27.8477 197.273 28.4922C197.191 29.1367 197.121 29.793 197.062 30.4609C197.004 31.1172 196.975 31.7383 196.975 32.3242C196.975 33.3438 197.145 34.1113 197.484 34.627C197.824 35.1309 198.217 35.3828 198.662 35.3828C199.436 35.3828 200.121 34.8145 200.719 33.6777C201.316 32.541 201.938 30.877 202.582 28.6855V23.5703C202.582 23.3711 202.67 23.2129 202.846 23.0957C203.033 22.9668 203.244 22.8672 203.479 22.7969C203.713 22.7266 203.941 22.6797 204.164 22.6562C204.387 22.6211 204.545 22.6035 204.639 22.6035C205.002 22.6035 205.184 22.7852 205.184 23.1484C205.184 23.2773 205.172 23.4941 205.148 23.7988C205.137 24.0918 205.119 24.4434 205.096 24.8535C205.072 25.252 205.049 25.6973 205.025 26.1895C205.014 26.6699 205.008 27.1562 205.008 27.6484V34.8027C205.219 34.5332 205.482 34.1758 205.799 33.7305C206.127 33.2852 206.461 32.8105 206.801 32.3066C207.152 31.8027 207.486 31.2988 207.803 30.7949C208.131 30.291 208.395 29.8398 208.594 29.4414L208.787 29.0723L209.508 29.6172L209.314 29.9863C209.068 30.4785 208.775 30.9883 208.436 31.5156C208.096 32.043 207.732 32.5762 207.346 33.1152C206.971 33.6426 206.578 34.1699 206.168 34.6973C205.77 35.2129 205.383 35.7051 205.008 36.1738V40.0586C205.008 41.1367 204.908 42.0508 204.709 42.8008C204.521 43.5625 204.258 44.1777 203.918 44.6465C203.578 45.127 203.18 45.4727 202.723 45.6836C202.266 45.8945 201.768 46 201.229 46C200.889 46 200.572 45.9473 200.279 45.8418C199.998 45.7363 199.752 45.5781 199.541 45.3672C199.33 45.168 199.166 44.9219 199.049 44.6289C198.932 44.3477 198.873 44.0254 198.873 43.6621C198.873 43.1348 198.967 42.6074 199.154 42.0801C199.354 41.5527 199.623 41.0078 199.963 40.4453C200.314 39.8828 200.719 39.3027 201.176 38.7051C201.633 38.1191 202.125 37.5039 202.652 36.8594V31.5332C202.359 32.3301 202.043 33.0684 201.703 33.748C201.363 34.416 200.994 34.9902 200.596 35.4707C200.197 35.9512 199.77 36.3262 199.312 36.5957C198.855 36.8652 198.363 37 197.836 37C197.461 37 197.074 36.9414 196.676 36.8242C196.289 36.6953 195.926 36.4668 195.586 36.1387C195.258 35.8105 194.988 35.3711 194.777 34.8203C194.566 34.2578 194.461 33.543 194.461 32.6758C194.461 31.6914 194.52 30.6895 194.637 29.6699C194.754 28.6504 194.889 27.7012 195.041 26.8223C195.205 25.9434 195.369 25.1758 195.533 24.5195C195.697 23.8516 195.826 23.377 195.92 23.0957ZM201.035 44.9277C201.223 44.9277 201.41 44.8867 201.598 44.8047C201.797 44.7344 201.973 44.5645 202.125 44.2949C202.277 44.0254 202.4 43.627 202.494 43.0996C202.6 42.5723 202.652 41.8574 202.652 40.9551V38.3008C202.254 38.793 201.885 39.2676 201.545 39.7246C201.217 40.1934 200.93 40.6445 200.684 41.0781C200.438 41.5234 200.244 41.9512 200.104 42.3613C199.963 42.7715 199.893 43.1699 199.893 43.5566C199.893 43.9199 199.992 44.2363 200.191 44.5059C200.391 44.7871 200.672 44.9277 201.035 44.9277ZM212.373 37C211.658 37 211.037 36.8477 210.51 36.543C209.994 36.2383 209.566 35.8281 209.227 35.3125C208.887 34.7852 208.635 34.1816 208.471 33.502C208.307 32.8223 208.225 32.1016 208.225 31.3398C208.225 30.6719 208.289 29.9922 208.418 29.3008C208.547 28.6094 208.729 27.9414 208.963 27.2969C209.209 26.6406 209.514 26.0312 209.877 25.4688C210.24 24.8945 210.656 24.3965 211.125 23.9746C211.594 23.5527 212.115 23.2188 212.689 22.9727C213.275 22.7266 213.902 22.6035 214.57 22.6035C215.332 22.6035 215.977 22.7734 216.504 23.1133C217.043 23.4531 217.477 23.8691 217.805 24.3613C217.816 22.1465 217.928 20.1895 218.139 18.4902C218.35 16.791 218.643 15.3672 219.018 14.2188C219.404 13.0703 219.861 12.2031 220.389 11.6172C220.916 11.0195 221.496 10.7207 222.129 10.7207C222.352 10.7207 222.551 10.75 222.727 10.8086C222.914 10.8555 223.066 10.9492 223.184 11.0898C223.312 11.2305 223.406 11.4238 223.465 11.6699C223.535 11.9043 223.57 12.209 223.57 12.584C223.57 13.3574 223.494 14.248 223.342 15.2559C223.189 16.252 222.973 17.3418 222.691 18.5254C222.41 19.6973 222.064 20.9512 221.654 22.2871C221.256 23.6113 220.811 24.9883 220.318 26.418C220.33 27.6719 220.348 28.7559 220.371 29.6699C220.395 30.584 220.424 31.3574 220.459 31.9902C220.506 32.623 220.559 33.1387 220.617 33.5371C220.688 33.9355 220.764 34.2461 220.846 34.4688C220.939 34.6797 221.045 34.8262 221.162 34.9082C221.291 34.9785 221.432 35.0137 221.584 35.0137C221.854 35.0137 222.123 34.8965 222.393 34.6621C222.674 34.416 222.973 34.0586 223.289 33.5898C223.605 33.1094 223.945 32.5234 224.309 31.832C224.684 31.1406 225.094 30.3438 225.539 29.4414L225.732 29.0723L226.453 29.6172L226.26 29.9863C225.58 31.3574 224.982 32.4941 224.467 33.3965C223.951 34.2871 223.477 35.002 223.043 35.541C222.621 36.0801 222.217 36.4609 221.83 36.6836C221.443 36.8945 221.039 37 220.617 37C220.207 37 219.85 36.9004 219.545 36.7012C219.252 36.4902 219 36.168 218.789 35.7344C218.578 35.2891 218.408 34.7266 218.279 34.0469C218.15 33.3555 218.051 32.5293 217.98 31.5684C217.57 32.3887 217.148 33.1328 216.715 33.8008C216.281 34.4688 215.83 35.043 215.361 35.5234C214.904 35.9922 214.424 36.3555 213.92 36.6133C213.416 36.8711 212.9 37 212.373 37ZM214.922 23.5C214.277 23.5 213.715 23.6992 213.234 24.0977C212.754 24.4844 212.355 24.9941 212.039 25.627C211.723 26.248 211.488 26.9512 211.336 27.7363C211.184 28.5215 211.107 29.3066 211.107 30.0918C211.107 30.7363 211.154 31.3574 211.248 31.9551C211.354 32.541 211.506 33.0625 211.705 33.5195C211.916 33.9766 212.168 34.3398 212.461 34.6094C212.754 34.8789 213.094 35.0137 213.48 35.0137C213.855 35.0137 214.219 34.9199 214.57 34.7324C214.934 34.5449 215.291 34.2461 215.643 33.8359C215.994 33.4141 216.352 32.875 216.715 32.2188C217.078 31.5508 217.465 30.7422 217.875 29.793C217.852 29.2305 217.834 28.6328 217.822 28C217.811 27.3555 217.805 26.6699 217.805 25.9434C217.547 25.1816 217.154 24.584 216.627 24.1504C216.111 23.7168 215.543 23.5 214.922 23.5ZM222.305 13.2344C222.305 12.6953 222.24 12.3203 222.111 12.1094C221.994 11.8984 221.854 11.793 221.689 11.793C221.408 11.793 221.18 12.0684 221.004 12.6191C220.828 13.1582 220.688 13.8906 220.582 14.8164C220.488 15.7422 220.418 16.8145 220.371 18.0332C220.336 19.252 220.318 20.5352 220.318 21.8828V23.8164C220.682 22.6328 220.992 21.5664 221.25 20.6172C221.508 19.668 221.713 18.7832 221.865 17.9629C222.018 17.1426 222.129 16.3516 222.199 15.5898C222.27 14.8281 222.305 14.043 222.305 13.2344ZM236.402 32.6406C236.402 33.3086 236.461 33.8711 236.578 34.3281C236.695 34.7852 236.9 35.0137 237.193 35.0137C237.369 35.0137 237.557 34.9316 237.756 34.7676C237.967 34.5918 238.207 34.3105 238.477 33.9238C238.746 33.5371 239.051 33.0391 239.391 32.4297C239.742 31.8086 240.141 31.0527 240.586 30.1621L241.113 29.0723L241.834 29.6172L241.307 30.707C240.814 31.6914 240.352 32.5762 239.918 33.3613C239.496 34.1348 239.092 34.791 238.705 35.3301C238.318 35.8691 237.938 36.2852 237.562 36.5781C237.199 36.8594 236.836 37 236.473 37C236.086 37 235.758 36.8945 235.488 36.6836C235.23 36.4727 235.014 36.1855 234.838 35.8223C234.662 35.4473 234.527 35.0195 234.434 34.5391C234.34 34.0469 234.275 33.5254 234.24 32.9746C233.959 33.5371 233.648 34.0645 233.309 34.5566C232.969 35.0371 232.611 35.459 232.236 35.8223C231.873 36.1855 231.492 36.4727 231.094 36.6836C230.695 36.8945 230.297 37 229.898 37C229.312 37 228.744 36.877 228.193 36.6309C227.643 36.3848 227.15 36.0098 226.717 35.5059C226.295 35.002 225.955 34.3691 225.697 33.6074C225.439 32.834 225.311 31.9258 225.311 30.8828C225.311 29.6641 225.469 28.5508 225.785 27.543C226.102 26.5234 226.529 25.6504 227.068 24.9238C227.607 24.1855 228.229 23.6172 228.932 23.2188C229.635 22.8086 230.373 22.6035 231.146 22.6035C231.615 22.6035 232.049 22.709 232.447 22.9199C232.846 23.1309 233.191 23.3887 233.484 23.6934C233.789 23.9863 234.041 24.3027 234.24 24.6426C234.439 24.9707 234.574 25.252 234.645 25.4863L234.855 23.7812C234.879 23.5586 234.984 23.3711 235.172 23.2188C235.371 23.0664 235.588 22.9492 235.822 22.8672C236.057 22.7734 236.285 22.709 236.508 22.6738C236.73 22.627 236.889 22.6035 236.982 22.6035C237.123 22.6035 237.217 22.627 237.264 22.6738C237.311 22.7207 237.334 22.8145 237.334 22.9551C237.334 23.1309 237.281 23.4883 237.176 24.0273C237.082 24.5547 236.977 25.2344 236.859 26.0664C236.754 26.8867 236.648 27.8535 236.543 28.9668C236.449 30.0801 236.402 31.3047 236.402 32.6406ZM234.469 28C234.469 27.4609 234.387 26.9336 234.223 26.418C234.059 25.8906 233.836 25.4277 233.555 25.0293C233.273 24.6191 232.945 24.291 232.57 24.0449C232.207 23.7988 231.82 23.6758 231.41 23.6758C230.906 23.6758 230.432 23.8223 229.986 24.1152C229.553 24.3965 229.172 24.8008 228.844 25.3281C228.527 25.8438 228.275 26.4707 228.088 27.209C227.9 27.9355 227.807 28.7383 227.807 29.6172C227.807 31.375 228.082 32.7168 228.633 33.6426C229.184 34.5566 229.916 35.0137 230.83 35.0137C231.229 35.0137 231.639 34.8555 232.061 34.5391C232.494 34.2109 232.887 33.748 233.238 33.1504C233.602 32.541 233.895 31.8027 234.117 30.9355C234.352 30.0684 234.469 29.0898 234.469 28ZM242.221 23.0957C242.268 22.9785 242.379 22.8848 242.555 22.8145C242.73 22.7441 242.918 22.6973 243.117 22.6738C243.316 22.6387 243.504 22.6211 243.68 22.6211C243.855 22.6094 243.973 22.6035 244.031 22.6035C244.207 22.6035 244.318 22.6504 244.365 22.7441C244.424 22.8262 244.453 22.9609 244.453 23.1484C244.453 23.2422 244.424 23.4531 244.365 23.7812C244.307 24.0977 244.23 24.4961 244.137 24.9766C244.055 25.457 243.961 26.002 243.855 26.6113C243.762 27.2207 243.668 27.8477 243.574 28.4922C243.492 29.1367 243.422 29.793 243.363 30.4609C243.305 31.1172 243.275 31.7383 243.275 32.3242C243.275 33.3438 243.445 34.1113 243.785 34.627C244.125 35.1309 244.518 35.3828 244.963 35.3828C245.736 35.3828 246.422 34.8145 247.02 33.6777C247.617 32.541 248.238 30.877 248.883 28.6855V23.5703C248.883 23.3711 248.971 23.2129 249.146 23.0957C249.334 22.9668 249.545 22.8672 249.779 22.7969C250.014 22.7266 250.242 22.6797 250.465 22.6562C250.688 22.6211 250.846 22.6035 250.939 22.6035C251.303 22.6035 251.484 22.7852 251.484 23.1484C251.484 23.2773 251.473 23.4941 251.449 23.7988C251.438 24.0918 251.42 24.4434 251.396 24.8535C251.373 25.252 251.35 25.6973 251.326 26.1895C251.314 26.6699 251.309 27.1562 251.309 27.6484V34.8027C251.52 34.5332 251.783 34.1758 252.1 33.7305C252.428 33.2852 252.762 32.8105 253.102 32.3066C253.453 31.8027 253.787 31.2988 254.104 30.7949C254.432 30.291 254.695 29.8398 254.895 29.4414L255.088 29.0723L255.809 29.6172L255.615 29.9863C255.369 30.4785 255.076 30.9883 254.736 31.5156C254.396 32.043 254.033 32.5762 253.646 33.1152C253.271 33.6426 252.879 34.1699 252.469 34.6973C252.07 35.2129 251.684 35.7051 251.309 36.1738V40.0586C251.309 41.1367 251.209 42.0508 251.01 42.8008C250.822 43.5625 250.559 44.1777 250.219 44.6465C249.879 45.127 249.48 45.4727 249.023 45.6836C248.566 45.8945 248.068 46 247.529 46C247.189 46 246.873 45.9473 246.58 45.8418C246.299 45.7363 246.053 45.5781 245.842 45.3672C245.631 45.168 245.467 44.9219 245.35 44.6289C245.232 44.3477 245.174 44.0254 245.174 43.6621C245.174 43.1348 245.268 42.6074 245.455 42.0801C245.654 41.5527 245.924 41.0078 246.264 40.4453C246.615 39.8828 247.02 39.3027 247.477 38.7051C247.934 38.1191 248.426 37.5039 248.953 36.8594V31.5332C248.66 32.3301 248.344 33.0684 248.004 33.748C247.664 34.416 247.295 34.9902 246.896 35.4707C246.498 35.9512 246.07 36.3262 245.613 36.5957C245.156 36.8652 244.664 37 244.137 37C243.762 37 243.375 36.9414 242.977 36.8242C242.59 36.6953 242.227 36.4668 241.887 36.1387C241.559 35.8105 241.289 35.3711 241.078 34.8203C240.867 34.2578 240.762 33.543 240.762 32.6758C240.762 31.6914 240.82 30.6895 240.938 29.6699C241.055 28.6504 241.189 27.7012 241.342 26.8223C241.506 25.9434 241.67 25.1758 241.834 24.5195C241.998 23.8516 242.127 23.377 242.221 23.0957ZM247.336 44.9277C247.523 44.9277 247.711 44.8867 247.898 44.8047C248.098 44.7344 248.273 44.5645 248.426 44.2949C248.578 44.0254 248.701 43.627 248.795 43.0996C248.9 42.5723 248.953 41.8574 248.953 40.9551V38.3008C248.555 38.793 248.186 39.2676 247.846 39.7246C247.518 40.1934 247.23 40.6445 246.984 41.0781C246.738 41.5234 246.545 41.9512 246.404 42.3613C246.264 42.7715 246.193 43.1699 246.193 43.5566C246.193 43.9199 246.293 44.2363 246.492 44.5059C246.691 44.7871 246.973 44.9277 247.336 44.9277Z" fill="black"/>
<path id="Vs code" d="M203.68 171.441C204.156 171.441 204.562 171.566 204.898 171.816C205.234 172.059 205.512 172.41 205.73 172.871C205.949 173.324 206.109 173.879 206.211 174.535C206.312 175.184 206.363 175.91 206.363 176.715C206.363 177.465 206.32 178.25 206.234 179.07C206.148 179.891 206.02 180.723 205.848 181.566C205.684 182.402 205.477 183.23 205.227 184.051C204.984 184.871 204.707 185.652 204.395 186.395C204.082 187.137 203.734 187.828 203.352 188.469C202.969 189.102 202.555 189.652 202.109 190.121C201.664 190.582 201.188 190.941 200.68 191.199C200.18 191.465 199.652 191.598 199.098 191.598C198.512 191.598 198.004 191.492 197.574 191.281C197.152 191.078 196.793 190.801 196.496 190.449C196.207 190.09 195.973 189.68 195.793 189.219C195.613 188.75 195.473 188.258 195.371 187.742C195.277 187.227 195.215 186.703 195.184 186.172C195.152 185.633 195.137 185.121 195.137 184.637C195.137 183.707 195.176 182.805 195.254 181.93C195.332 181.047 195.418 180.195 195.512 179.375C195.613 178.555 195.703 177.77 195.781 177.02C195.859 176.27 195.898 175.555 195.898 174.875C195.898 174.305 195.867 173.832 195.805 173.457C195.742 173.074 195.645 172.77 195.512 172.543C195.387 172.316 195.227 172.156 195.031 172.062C194.836 171.969 194.605 171.922 194.34 171.922C193.996 171.922 193.656 172 193.32 172.156C192.984 172.312 192.66 172.531 192.348 172.812C192.043 173.086 191.762 173.414 191.504 173.797C191.246 174.172 191.023 174.582 190.836 175.027C190.641 175.473 190.488 175.941 190.379 176.434C190.27 176.918 190.215 177.406 190.215 177.898C190.215 178.406 190.25 178.832 190.32 179.176C190.391 179.52 190.488 179.797 190.613 180.008C190.73 180.219 190.875 180.371 191.047 180.465C191.227 180.559 191.422 180.605 191.633 180.605C192 180.605 192.332 180.508 192.629 180.312C192.926 180.109 193.184 179.828 193.402 179.469C193.621 179.102 193.801 178.664 193.941 178.156C194.082 177.641 194.184 177.074 194.246 176.457L194.797 176.48C194.773 176.746 194.73 177.051 194.668 177.395C194.613 177.73 194.531 178.074 194.422 178.426C194.312 178.77 194.176 179.109 194.012 179.445C193.848 179.781 193.645 180.078 193.402 180.336C193.16 180.594 192.879 180.805 192.559 180.969C192.238 181.125 191.867 181.203 191.445 181.203C191.141 181.203 190.824 181.145 190.496 181.027C190.168 180.91 189.867 180.727 189.594 180.477C189.32 180.227 189.098 179.902 188.926 179.504C188.746 179.098 188.656 178.609 188.656 178.039C188.656 177.477 188.738 176.922 188.902 176.375C189.059 175.828 189.277 175.305 189.559 174.805C189.832 174.305 190.16 173.844 190.543 173.422C190.918 173 191.328 172.633 191.773 172.32C192.219 172.008 192.688 171.766 193.18 171.594C193.672 171.414 194.164 171.324 194.656 171.324C196.75 171.324 197.797 172.844 197.797 175.883C197.797 176.625 197.762 177.414 197.691 178.25C197.629 179.086 197.559 179.941 197.48 180.816C197.41 181.684 197.34 182.555 197.27 183.43C197.207 184.297 197.176 185.133 197.176 185.938C197.176 186.984 197.223 187.832 197.316 188.48C197.41 189.129 197.547 189.633 197.727 189.992C197.906 190.344 198.125 190.582 198.383 190.707C198.641 190.824 198.934 190.883 199.262 190.883C199.754 190.883 200.238 190.703 200.715 190.344C201.191 189.977 201.645 189.484 202.074 188.867C202.504 188.242 202.898 187.516 203.258 186.688C203.625 185.852 203.941 184.965 204.207 184.027C204.473 183.082 204.68 182.109 204.828 181.109C204.977 180.102 205.051 179.117 205.051 178.156C205.051 177.07 204.992 176.168 204.875 175.449C204.758 174.723 204.598 174.145 204.395 173.715C204.191 173.277 203.957 172.969 203.691 172.789C203.426 172.609 203.141 172.52 202.836 172.52C202.625 172.52 202.422 172.559 202.227 172.637C202.039 172.707 201.863 172.797 201.699 172.906C201.535 173.016 201.387 173.133 201.254 173.258C201.121 173.383 201.012 173.496 200.926 173.598L200.445 173.234C200.555 173.094 200.715 172.922 200.926 172.719C201.145 172.516 201.395 172.32 201.676 172.133C201.965 171.945 202.277 171.785 202.613 171.652C202.957 171.512 203.312 171.441 203.68 171.441ZM213.805 186.922C213.805 187.453 213.723 187.965 213.559 188.457C213.402 188.941 213.168 189.375 212.855 189.758C212.551 190.133 212.168 190.434 211.707 190.66C211.254 190.887 210.734 191 210.148 191C209.727 191 209.348 190.934 209.012 190.801C208.684 190.66 208.402 190.477 208.168 190.25C207.934 190.016 207.754 189.754 207.629 189.465C207.504 189.168 207.441 188.863 207.441 188.551C207.441 188.238 207.5 187.949 207.617 187.684C207.742 187.41 207.906 187.18 208.109 186.992C208.32 186.797 208.559 186.645 208.824 186.535C209.09 186.426 209.371 186.371 209.668 186.371C209.855 186.371 210.051 186.395 210.254 186.441V186.781C210.004 186.781 209.758 186.832 209.516 186.934C209.281 187.035 209.07 187.176 208.883 187.355C208.703 187.527 208.559 187.738 208.449 187.988C208.34 188.23 208.285 188.492 208.285 188.773C208.285 189.289 208.461 189.703 208.812 190.016C209.172 190.32 209.66 190.473 210.277 190.473C210.59 190.473 210.875 190.414 211.133 190.297C211.391 190.172 211.609 190.004 211.789 189.793C211.977 189.574 212.117 189.316 212.211 189.02C212.312 188.723 212.363 188.398 212.363 188.047C212.363 187.711 212.297 187.398 212.164 187.109C212.031 186.82 211.855 186.547 211.637 186.289C211.418 186.031 211.168 185.789 210.887 185.562C210.613 185.336 210.332 185.121 210.043 184.918C209.762 184.707 209.484 184.504 209.211 184.309C208.938 184.113 208.699 183.918 208.496 183.723L207.324 186.324L206.844 185.961L208.039 183.348C207.75 183.074 207.535 182.816 207.395 182.574C207.262 182.324 207.195 182.027 207.195 181.684C207.195 181.496 207.227 181.32 207.289 181.156C207.359 180.984 207.449 180.84 207.559 180.723C207.676 180.598 207.809 180.5 207.957 180.43C208.105 180.359 208.262 180.324 208.426 180.324C208.723 180.324 208.945 180.41 209.094 180.582C209.242 180.746 209.316 180.953 209.316 181.203C209.316 181.32 209.305 181.445 209.281 181.578C209.258 181.703 209.227 181.832 209.188 181.965C209.156 182.09 209.121 182.207 209.082 182.316C209.051 182.426 209.023 182.52 209 182.598C209.234 182.777 209.516 182.953 209.844 183.125C210.172 183.289 210.512 183.461 210.863 183.641C211.223 183.82 211.578 184.016 211.93 184.227C212.281 184.438 212.594 184.672 212.867 184.93C213.148 185.188 213.375 185.48 213.547 185.809C213.719 186.137 213.805 186.508 213.805 186.922ZM208.449 180.852C208.34 180.852 208.25 180.891 208.18 180.969C208.117 181.039 208.086 181.137 208.086 181.262C208.086 181.402 208.121 181.559 208.191 181.73C208.262 181.902 208.387 182.07 208.566 182.234C208.645 182.07 208.703 181.91 208.742 181.754C208.789 181.598 208.812 181.441 208.812 181.285C208.812 181.16 208.777 181.059 208.707 180.98C208.645 180.895 208.559 180.852 208.449 180.852ZM224.258 184.309C224.352 184.16 224.43 183.977 224.492 183.758C224.562 183.539 224.598 183.32 224.598 183.102C224.598 182.836 224.531 182.605 224.398 182.41C224.266 182.215 224.027 182.117 223.684 182.117C223.457 182.117 223.227 182.199 222.992 182.363C222.758 182.527 222.539 182.773 222.336 183.102C222.141 183.43 221.98 183.844 221.855 184.344C221.73 184.844 221.668 185.43 221.668 186.102C221.668 186.633 221.723 187.117 221.832 187.555C221.941 187.992 222.102 188.367 222.312 188.68C222.523 188.992 222.777 189.238 223.074 189.418C223.379 189.59 223.719 189.676 224.094 189.676C224.367 189.676 224.645 189.605 224.926 189.465C225.215 189.324 225.504 189.105 225.793 188.809C226.09 188.512 226.395 188.129 226.707 187.66C227.02 187.184 227.34 186.617 227.668 185.961L227.785 185.715L228.266 186.078L228.148 186.324C227.727 187.16 227.305 187.875 226.883 188.469C226.469 189.062 226.059 189.547 225.652 189.922C225.246 190.297 224.848 190.57 224.457 190.742C224.074 190.914 223.703 191 223.344 191C222.836 191 222.383 190.895 221.984 190.684C221.586 190.473 221.25 190.188 220.977 189.828C220.703 189.461 220.492 189.039 220.344 188.562C220.203 188.078 220.133 187.57 220.133 187.039C220.133 186.195 220.246 185.43 220.473 184.742C220.707 184.047 221.008 183.453 221.375 182.961C221.742 182.469 222.156 182.086 222.617 181.812C223.078 181.539 223.543 181.402 224.012 181.402C224.371 181.402 224.672 181.453 224.914 181.555C225.156 181.656 225.352 181.785 225.5 181.941C225.648 182.098 225.754 182.266 225.816 182.445C225.879 182.625 225.91 182.797 225.91 182.961C225.91 183.125 225.875 183.297 225.805 183.477C225.734 183.648 225.629 183.812 225.488 183.969C225.355 184.117 225.195 184.254 225.008 184.379C224.82 184.496 224.609 184.582 224.375 184.637L224.258 184.309ZM237.617 186.078L237.488 186.324C237.223 186.855 236.867 187.281 236.422 187.602C235.984 187.914 235.508 188.117 234.992 188.211C234.852 188.609 234.668 188.98 234.441 189.324C234.223 189.66 233.969 189.953 233.68 190.203C233.398 190.453 233.078 190.648 232.719 190.789C232.367 190.93 231.984 191 231.57 191C230.969 191 230.426 190.875 229.941 190.625C229.465 190.367 229.059 190.023 228.723 189.594C228.387 189.156 228.129 188.648 227.949 188.07C227.77 187.484 227.68 186.859 227.68 186.195C227.68 185.617 227.746 185.094 227.879 184.625C228.012 184.148 228.18 183.727 228.383 183.359C228.586 182.984 228.812 182.66 229.062 182.387C229.312 182.105 229.559 181.875 229.801 181.695C230.043 181.516 230.262 181.383 230.457 181.297C230.66 181.203 230.812 181.156 230.914 181.156L231.066 181.566C230.746 181.801 230.461 182.129 230.211 182.551C229.992 182.91 229.793 183.387 229.613 183.98C229.441 184.574 229.355 185.312 229.355 186.195C229.355 186.734 229.406 187.258 229.508 187.766C229.609 188.273 229.758 188.723 229.953 189.113C230.148 189.504 230.387 189.816 230.668 190.051C230.957 190.285 231.281 190.402 231.641 190.402C232.133 190.402 232.539 190.207 232.859 189.816C233.188 189.418 233.43 188.875 233.586 188.188C233.18 188.102 232.793 187.941 232.426 187.707C232.059 187.473 231.734 187.184 231.453 186.84C231.172 186.488 230.945 186.086 230.773 185.633C230.609 185.18 230.527 184.688 230.527 184.156C230.527 183.719 230.582 183.336 230.691 183.008C230.809 182.672 230.961 182.395 231.148 182.176C231.336 181.949 231.551 181.781 231.793 181.672C232.043 181.555 232.305 181.496 232.578 181.496C232.898 181.496 233.227 181.59 233.562 181.777C233.898 181.957 234.203 182.23 234.477 182.598C234.75 182.957 234.973 183.41 235.145 183.957C235.316 184.504 235.402 185.141 235.402 185.867C235.402 186.141 235.387 186.41 235.355 186.676C235.324 186.941 235.277 187.199 235.215 187.449C235.59 187.34 235.93 187.164 236.234 186.922C236.547 186.68 236.805 186.359 237.008 185.961L237.137 185.715L237.617 186.078ZM231.301 184.062C231.301 184.523 231.363 184.949 231.488 185.34C231.621 185.723 231.797 186.062 232.016 186.359C232.234 186.648 232.488 186.891 232.777 187.086C233.066 187.281 233.375 187.418 233.703 187.496C233.742 187.277 233.766 187.051 233.773 186.816C233.789 186.574 233.797 186.328 233.797 186.078C233.797 185.523 233.754 185.023 233.668 184.578C233.582 184.125 233.469 183.742 233.328 183.43C233.188 183.109 233.023 182.863 232.836 182.691C232.648 182.52 232.457 182.434 232.262 182.434C231.996 182.434 231.77 182.578 231.582 182.867C231.395 183.148 231.301 183.547 231.301 184.062ZM239.527 191C239.051 191 238.637 190.898 238.285 190.695C237.941 190.492 237.656 190.219 237.43 189.875C237.203 189.523 237.035 189.121 236.926 188.668C236.816 188.215 236.762 187.734 236.762 187.227C236.762 186.781 236.805 186.328 236.891 185.867C236.977 185.406 237.098 184.961 237.254 184.531C237.418 184.094 237.621 183.688 237.863 183.312C238.105 182.93 238.383 182.598 238.695 182.316C239.008 182.035 239.355 181.812 239.738 181.648C240.129 181.484 240.547 181.402 240.992 181.402C241.5 181.402 241.93 181.516 242.281 181.742C242.641 181.969 242.93 182.246 243.148 182.574C243.156 181.098 243.23 179.793 243.371 178.66C243.512 177.527 243.707 176.578 243.957 175.812C244.215 175.047 244.52 174.469 244.871 174.078C245.223 173.68 245.609 173.48 246.031 173.48C246.18 173.48 246.312 173.5 246.43 173.539C246.555 173.57 246.656 173.633 246.734 173.727C246.82 173.82 246.883 173.949 246.922 174.113C246.969 174.27 246.992 174.473 246.992 174.723C246.992 175.238 246.941 175.832 246.84 176.504C246.738 177.168 246.594 177.895 246.406 178.684C246.219 179.465 245.988 180.301 245.715 181.191C245.449 182.074 245.152 182.992 244.824 183.945C244.832 184.781 244.844 185.504 244.859 186.113C244.875 186.723 244.895 187.238 244.918 187.66C244.949 188.082 244.984 188.426 245.023 188.691C245.07 188.957 245.121 189.164 245.176 189.312C245.238 189.453 245.309 189.551 245.387 189.605C245.473 189.652 245.566 189.676 245.668 189.676C245.848 189.676 246.027 189.598 246.207 189.441C246.395 189.277 246.594 189.039 246.805 188.727C247.016 188.406 247.242 188.016 247.484 187.555C247.734 187.094 248.008 186.562 248.305 185.961L248.434 185.715L248.914 186.078L248.785 186.324C248.332 187.238 247.934 187.996 247.59 188.598C247.246 189.191 246.93 189.668 246.641 190.027C246.359 190.387 246.09 190.641 245.832 190.789C245.574 190.93 245.305 191 245.023 191C244.75 191 244.512 190.934 244.309 190.801C244.113 190.66 243.945 190.445 243.805 190.156C243.664 189.859 243.551 189.484 243.465 189.031C243.379 188.57 243.312 188.02 243.266 187.379C242.992 187.926 242.711 188.422 242.422 188.867C242.133 189.312 241.832 189.695 241.52 190.016C241.215 190.328 240.895 190.57 240.559 190.742C240.223 190.914 239.879 191 239.527 191ZM241.227 182C240.797 182 240.422 182.133 240.102 182.398C239.781 182.656 239.516 182.996 239.305 183.418C239.094 183.832 238.938 184.301 238.836 184.824C238.734 185.348 238.684 185.871 238.684 186.395C238.684 186.824 238.715 187.238 238.777 187.637C238.848 188.027 238.949 188.375 239.082 188.68C239.223 188.984 239.391 189.227 239.586 189.406C239.781 189.586 240.008 189.676 240.266 189.676C240.516 189.676 240.758 189.613 240.992 189.488C241.234 189.363 241.473 189.164 241.707 188.891C241.941 188.609 242.18 188.25 242.422 187.812C242.664 187.367 242.922 186.828 243.195 186.195C243.18 185.82 243.168 185.422 243.16 185C243.152 184.57 243.148 184.113 243.148 183.629C242.977 183.121 242.715 182.723 242.363 182.434C242.02 182.145 241.641 182 241.227 182ZM246.148 175.156C246.148 174.797 246.105 174.547 246.02 174.406C245.941 174.266 245.848 174.195 245.738 174.195C245.551 174.195 245.398 174.379 245.281 174.746C245.164 175.105 245.07 175.594 245 176.211C244.938 176.828 244.891 177.543 244.859 178.355C244.836 179.168 244.824 180.023 244.824 180.922V182.211C245.066 181.422 245.273 180.711 245.445 180.078C245.617 179.445 245.754 178.855 245.855 178.309C245.957 177.762 246.031 177.234 246.078 176.727C246.125 176.219 246.148 175.695 246.148 175.156ZM251.902 189.676C252.176 189.676 252.453 189.605 252.734 189.465C253.023 189.324 253.312 189.105 253.602 188.809C253.898 188.512 254.203 188.129 254.516 187.66C254.828 187.184 255.148 186.617 255.477 185.961L255.594 185.715L256.074 186.078L255.957 186.324C255.535 187.16 255.113 187.875 254.691 188.469C254.277 189.062 253.867 189.547 253.461 189.922C253.062 190.297 252.668 190.57 252.277 190.742C251.887 190.914 251.512 191 251.152 191C250.645 191 250.191 190.895 249.793 190.684C249.395 190.473 249.059 190.188 248.785 189.828C248.512 189.461 248.305 189.039 248.164 188.562C248.016 188.078 247.941 187.57 247.941 187.039C247.941 186.195 248.059 185.43 248.293 184.742C248.52 184.047 248.824 183.453 249.207 182.961C249.598 182.469 250.039 182.086 250.531 181.812C251.023 181.539 251.535 181.402 252.066 181.402C252.605 181.402 253.016 181.539 253.297 181.812C253.586 182.086 253.73 182.43 253.73 182.844C253.73 183.242 253.617 183.617 253.391 183.969C253.164 184.312 252.855 184.652 252.465 184.988C252.082 185.316 251.637 185.645 251.129 185.973C250.621 186.293 250.086 186.625 249.523 186.969C249.578 187.375 249.672 187.746 249.805 188.082C249.938 188.41 250.105 188.695 250.309 188.938C250.512 189.172 250.746 189.355 251.012 189.488C251.277 189.613 251.574 189.676 251.902 189.676ZM252.266 183.195C252.266 182.883 252.18 182.637 252.008 182.457C251.844 182.277 251.641 182.188 251.398 182.188C251.195 182.188 250.98 182.262 250.754 182.41C250.527 182.551 250.32 182.781 250.133 183.102C249.945 183.414 249.789 183.816 249.664 184.309C249.539 184.801 249.477 185.398 249.477 186.102V186.371C249.742 186.23 250.035 186.047 250.355 185.82C250.684 185.586 250.988 185.328 251.27 185.047C251.551 184.766 251.785 184.469 251.973 184.156C252.168 183.836 252.266 183.516 252.266 183.195Z" fill="black"/>
<path id="Inkscape" d="M111.934 328.242C111.934 328.031 111.926 327.828 111.91 327.633C111.902 327.43 111.891 327.223 111.875 327.012C111.859 326.801 111.84 326.578 111.816 326.344C111.793 326.102 111.77 325.832 111.746 325.535C111.426 325.66 111.086 325.758 110.727 325.828C110.367 325.891 109.969 325.922 109.531 325.922C109.047 325.922 108.582 325.848 108.137 325.699C107.691 325.543 107.297 325.316 106.953 325.02C106.609 324.723 106.332 324.352 106.121 323.906C105.918 323.453 105.816 322.926 105.816 322.324C105.816 321.941 105.859 321.574 105.945 321.223C106.039 320.863 106.199 320.488 106.426 320.098C106.652 319.707 106.953 319.285 107.328 318.832C107.711 318.371 108.191 317.848 108.77 317.262C109.348 316.676 110.031 316.012 110.82 315.27C111.617 314.527 112.547 313.676 113.609 312.715L114.09 313.078C113.918 313.312 113.766 313.57 113.633 313.852C113.5 314.133 113.387 314.457 113.293 314.824C113.199 315.191 113.129 315.617 113.082 316.102C113.035 316.578 113.012 317.133 113.012 317.766C113.012 318.711 113.047 319.672 113.117 320.648C113.188 321.617 113.266 322.566 113.352 323.496C113.508 323.277 113.645 323.047 113.762 322.805C113.887 322.562 113.996 322.32 114.09 322.078L114.57 322.324C114.414 322.699 114.242 323.051 114.055 323.379C113.875 323.707 113.664 324.012 113.422 324.293C113.461 324.691 113.5 325.059 113.539 325.395C113.578 325.723 113.609 326.031 113.633 326.32C113.664 326.609 113.688 326.887 113.703 327.152C113.727 327.418 113.738 327.688 113.738 327.961C113.738 328.805 113.66 329.555 113.504 330.211C113.355 330.867 113.062 331.438 112.625 331.922C112.195 332.414 111.582 332.816 110.785 333.129C109.996 333.441 109.059 333.598 107.973 333.598C107.301 333.598 106.66 333.504 106.051 333.316C105.441 333.129 104.906 332.867 104.445 332.531C103.984 332.195 103.617 331.793 103.344 331.324C103.07 330.855 102.934 330.336 102.934 329.766C102.934 329.344 103.004 328.965 103.145 328.629C103.277 328.293 103.453 327.996 103.672 327.738C103.891 327.473 104.129 327.246 104.387 327.059C104.652 326.871 104.91 326.715 105.16 326.59C105.41 326.465 105.637 326.367 105.84 326.297C106.043 326.227 106.195 326.18 106.297 326.156L106.531 326.637C106.352 326.73 106.148 326.859 105.922 327.023C105.703 327.18 105.496 327.383 105.301 327.633C105.105 327.875 104.941 328.172 104.809 328.523C104.676 328.875 104.609 329.289 104.609 329.766C104.609 330.273 104.695 330.73 104.867 331.137C105.039 331.535 105.277 331.875 105.582 332.156C105.895 332.43 106.262 332.641 106.684 332.789C107.113 332.93 107.582 333 108.09 333C108.66 333 109.18 332.922 109.648 332.766C110.125 332.609 110.531 332.348 110.867 331.98C111.203 331.613 111.465 331.125 111.652 330.516C111.84 329.906 111.934 329.148 111.934 328.242ZM111.934 315.117C111.324 315.703 110.785 316.23 110.316 316.699C109.848 317.168 109.438 317.598 109.086 317.988C108.742 318.379 108.453 318.742 108.219 319.078C107.984 319.406 107.797 319.73 107.656 320.051C107.516 320.371 107.414 320.695 107.352 321.023C107.289 321.352 107.258 321.703 107.258 322.078C107.258 323.219 107.512 324.047 108.02 324.562C108.527 325.07 109.23 325.324 110.129 325.324C110.426 325.324 110.703 325.297 110.961 325.242C111.227 325.18 111.473 325.094 111.699 324.984C111.645 324.445 111.586 323.906 111.523 323.367C111.469 322.82 111.418 322.297 111.371 321.797C111.324 321.289 111.285 320.812 111.254 320.367C111.23 319.922 111.219 319.531 111.219 319.195C111.219 318.859 111.234 318.492 111.266 318.094C111.305 317.695 111.355 317.309 111.418 316.934C111.48 316.551 111.555 316.199 111.641 315.879C111.727 315.551 111.824 315.297 111.934 315.117ZM120.277 324.211C120.059 324.211 119.812 324.309 119.539 324.504C119.273 324.699 119.004 324.953 118.73 325.266C118.457 325.57 118.191 325.914 117.934 326.297C117.684 326.68 117.465 327.059 117.277 327.434C117.254 328.121 117.23 328.871 117.207 329.684C117.191 330.496 117.184 331.363 117.184 332.285C117.184 332.402 117.129 332.508 117.02 332.602C116.918 332.688 116.797 332.762 116.656 332.824C116.516 332.879 116.371 332.922 116.223 332.953C116.074 332.984 115.953 333 115.859 333C115.742 333 115.633 332.965 115.531 332.895C115.43 332.824 115.379 332.668 115.379 332.426C115.379 332.309 115.391 332.164 115.414 331.992C115.438 331.812 115.469 331.621 115.508 331.418C115.539 331.215 115.578 331.008 115.625 330.797C115.664 330.578 115.703 330.375 115.742 330.188V324.457C115.742 324.301 115.746 324.18 115.754 324.094C115.754 324 115.766 323.93 115.789 323.883C115.836 323.773 115.918 323.688 116.035 323.625C116.152 323.562 116.277 323.516 116.41 323.484C116.543 323.445 116.672 323.422 116.797 323.414C116.922 323.406 117.02 323.402 117.09 323.402C117.223 323.402 117.312 323.438 117.359 323.508C117.414 323.578 117.441 323.703 117.441 323.883C117.441 323.859 117.422 324.051 117.383 324.457C117.352 324.863 117.324 325.445 117.301 326.203C117.535 325.836 117.789 325.484 118.062 325.148C118.336 324.812 118.621 324.516 118.918 324.258C119.215 324 119.52 323.793 119.832 323.637C120.152 323.48 120.477 323.402 120.805 323.402C121.391 323.402 121.82 323.59 122.094 323.965C122.367 324.332 122.504 324.832 122.504 325.465C122.504 325.863 122.477 326.309 122.422 326.801C122.375 327.285 122.316 327.781 122.246 328.289C122.184 328.789 122.125 329.281 122.07 329.766C122.023 330.242 122 330.68 122 331.078C122 331.594 122.16 331.852 122.48 331.852C122.582 331.852 122.699 331.801 122.832 331.699C122.973 331.59 123.145 331.391 123.348 331.102C123.559 330.812 123.809 330.418 124.098 329.918C124.387 329.41 124.73 328.758 125.129 327.961L125.246 327.715L125.727 328.078L125.609 328.324C125.141 329.262 124.723 330.031 124.355 330.633C123.996 331.234 123.668 331.711 123.371 332.062C123.074 332.414 122.797 332.66 122.539 332.801C122.281 332.934 122.023 333 121.766 333C121.602 333 121.438 332.977 121.273 332.93C121.109 332.883 120.965 332.801 120.84 332.684C120.715 332.566 120.613 332.41 120.535 332.215C120.457 332.012 120.418 331.754 120.418 331.441C120.418 330.973 120.449 330.445 120.512 329.859C120.574 329.273 120.645 328.688 120.723 328.102C120.801 327.516 120.871 326.965 120.934 326.449C120.996 325.926 121.027 325.5 121.027 325.172C121.027 324.883 120.965 324.652 120.84 324.48C120.715 324.301 120.527 324.211 120.277 324.211ZM135.172 328.078L135.055 328.324C134.727 328.98 134.414 329.594 134.117 330.164C133.82 330.734 133.523 331.23 133.227 331.652C132.93 332.074 132.625 332.406 132.312 332.648C132.008 332.883 131.68 333 131.328 333C130.977 333 130.633 332.906 130.297 332.719C129.961 332.531 129.625 332.27 129.289 331.934C128.961 331.598 128.629 331.207 128.293 330.762C127.965 330.309 127.625 329.816 127.273 329.285L126.863 329.355C126.848 330.043 126.824 330.664 126.793 331.219C126.762 331.766 126.723 332.215 126.676 332.566C126.652 332.723 126.586 332.836 126.477 332.906C126.375 332.969 126.234 333 126.055 333C125.844 333 125.668 332.973 125.527 332.918C125.387 332.863 125.277 332.797 125.199 332.719C125.113 332.633 125.055 332.543 125.023 332.449C124.984 332.348 124.965 332.25 124.965 332.156C124.965 331.656 125.047 331.035 125.211 330.293V324.234C125.211 322.734 125.289 321.438 125.445 320.344C125.602 319.242 125.812 318.332 126.078 317.613C126.344 316.887 126.652 316.352 127.004 316.008C127.363 315.656 127.742 315.48 128.141 315.48C128.57 315.48 128.875 315.621 129.055 315.902C129.242 316.176 129.336 316.555 129.336 317.039C129.336 317.461 129.273 318.004 129.148 318.668C129.023 319.324 128.848 320.047 128.621 320.836C128.402 321.625 128.145 322.449 127.848 323.309C127.551 324.16 127.23 324.992 126.887 325.805V326.062C127.105 325.711 127.359 325.375 127.648 325.055C127.945 324.734 128.262 324.453 128.598 324.211C128.934 323.961 129.277 323.766 129.629 323.625C129.988 323.477 130.34 323.402 130.684 323.402C130.988 323.402 131.266 323.445 131.516 323.531C131.773 323.617 131.996 323.742 132.184 323.906C132.371 324.07 132.516 324.277 132.617 324.527C132.719 324.77 132.77 325.051 132.77 325.371C132.77 325.699 132.695 326.027 132.547 326.355C132.406 326.684 132.18 327 131.867 327.305C131.562 327.609 131.168 327.898 130.684 328.172C130.199 328.438 129.613 328.672 128.926 328.875C128.973 328.945 129.051 329.062 129.16 329.227C129.27 329.391 129.398 329.578 129.547 329.789C129.703 329.992 129.871 330.207 130.051 330.434C130.23 330.652 130.414 330.855 130.602 331.043C130.797 331.223 130.988 331.375 131.176 331.5C131.363 331.617 131.535 331.676 131.691 331.676C131.902 331.676 132.117 331.59 132.336 331.418C132.555 331.238 132.781 330.988 133.016 330.668C133.258 330.34 133.508 329.949 133.766 329.496C134.023 329.035 134.293 328.523 134.574 327.961L134.691 327.715L135.172 328.078ZM126.887 327.07C126.887 327.25 126.883 327.41 126.875 327.551C126.875 327.684 126.875 327.816 126.875 327.949C126.875 328.074 126.871 328.203 126.863 328.336C126.863 328.469 126.863 328.617 126.863 328.781C127.66 328.664 128.332 328.508 128.879 328.312C129.434 328.117 129.883 327.891 130.227 327.633C130.57 327.375 130.82 327.094 130.977 326.789C131.133 326.477 131.211 326.148 131.211 325.805C131.211 325.625 131.18 325.453 131.117 325.289C131.062 325.117 130.98 324.969 130.871 324.844C130.762 324.711 130.625 324.605 130.461 324.527C130.305 324.449 130.129 324.41 129.934 324.41C129.66 324.41 129.383 324.484 129.102 324.633C128.828 324.773 128.555 324.965 128.281 325.207C128.016 325.449 127.762 325.734 127.52 326.062C127.285 326.383 127.074 326.719 126.887 327.07ZM127.918 316.078C127.754 316.078 127.609 316.238 127.484 316.559C127.367 316.879 127.266 317.379 127.18 318.059C127.094 318.73 127.023 319.59 126.969 320.637C126.914 321.676 126.871 322.918 126.84 324.363C127.168 323.496 127.434 322.684 127.637 321.926C127.84 321.16 127.996 320.473 128.105 319.863C128.223 319.246 128.301 318.711 128.34 318.258C128.379 317.797 128.398 317.43 128.398 317.156C128.398 316.742 128.359 316.461 128.281 316.312C128.211 316.156 128.09 316.078 127.918 316.078ZM141.547 328.922C141.547 329.453 141.465 329.965 141.301 330.457C141.145 330.941 140.91 331.375 140.598 331.758C140.293 332.133 139.91 332.434 139.449 332.66C138.996 332.887 138.477 333 137.891 333C137.469 333 137.09 332.934 136.754 332.801C136.426 332.66 136.145 332.477 135.91 332.25C135.676 332.016 135.496 331.754 135.371 331.465C135.246 331.168 135.184 330.863 135.184 330.551C135.184 330.238 135.242 329.949 135.359 329.684C135.484 329.41 135.648 329.18 135.852 328.992C136.062 328.797 136.301 328.645 136.566 328.535C136.832 328.426 137.113 328.371 137.41 328.371C137.598 328.371 137.793 328.395 137.996 328.441V328.781C137.746 328.781 137.5 328.832 137.258 328.934C137.023 329.035 136.812 329.176 136.625 329.355C136.445 329.527 136.301 329.738 136.191 329.988C136.082 330.23 136.027 330.492 136.027 330.773C136.027 331.289 136.203 331.703 136.555 332.016C136.914 332.32 137.402 332.473 138.02 332.473C138.332 332.473 138.617 332.414 138.875 332.297C139.133 332.172 139.352 332.004 139.531 331.793C139.719 331.574 139.859 331.316 139.953 331.02C140.055 330.723 140.105 330.398 140.105 330.047C140.105 329.711 140.039 329.398 139.906 329.109C139.773 328.82 139.598 328.547 139.379 328.289C139.16 328.031 138.91 327.789 138.629 327.562C138.355 327.336 138.074 327.121 137.785 326.918C137.504 326.707 137.227 326.504 136.953 326.309C136.68 326.113 136.441 325.918 136.238 325.723L135.066 328.324L134.586 327.961L135.781 325.348C135.492 325.074 135.277 324.816 135.137 324.574C135.004 324.324 134.938 324.027 134.938 323.684C134.938 323.496 134.969 323.32 135.031 323.156C135.102 322.984 135.191 322.84 135.301 322.723C135.418 322.598 135.551 322.5 135.699 322.43C135.848 322.359 136.004 322.324 136.168 322.324C136.465 322.324 136.688 322.41 136.836 322.582C136.984 322.746 137.059 322.953 137.059 323.203C137.059 323.32 137.047 323.445 137.023 323.578C137 323.703 136.969 323.832 136.93 323.965C136.898 324.09 136.863 324.207 136.824 324.316C136.793 324.426 136.766 324.52 136.742 324.598C136.977 324.777 137.258 324.953 137.586 325.125C137.914 325.289 138.254 325.461 138.605 325.641C138.965 325.82 139.32 326.016 139.672 326.227C140.023 326.438 140.336 326.672 140.609 326.93C140.891 327.188 141.117 327.48 141.289 327.809C141.461 328.137 141.547 328.508 141.547 328.922ZM136.191 322.852C136.082 322.852 135.992 322.891 135.922 322.969C135.859 323.039 135.828 323.137 135.828 323.262C135.828 323.402 135.863 323.559 135.934 323.73C136.004 323.902 136.129 324.07 136.309 324.234C136.387 324.07 136.445 323.91 136.484 323.754C136.531 323.598 136.555 323.441 136.555 323.285C136.555 323.16 136.52 323.059 136.449 322.98C136.387 322.895 136.301 322.852 136.191 322.852ZM146.469 326.309C146.562 326.16 146.641 325.977 146.703 325.758C146.773 325.539 146.809 325.32 146.809 325.102C146.809 324.836 146.742 324.605 146.609 324.41C146.477 324.215 146.238 324.117 145.895 324.117C145.668 324.117 145.438 324.199 145.203 324.363C144.969 324.527 144.75 324.773 144.547 325.102C144.352 325.43 144.191 325.844 144.066 326.344C143.941 326.844 143.879 327.43 143.879 328.102C143.879 328.633 143.934 329.117 144.043 329.555C144.152 329.992 144.312 330.367 144.523 330.68C144.734 330.992 144.988 331.238 145.285 331.418C145.59 331.59 145.93 331.676 146.305 331.676C146.578 331.676 146.855 331.605 147.137 331.465C147.426 331.324 147.715 331.105 148.004 330.809C148.301 330.512 148.605 330.129 148.918 329.66C149.23 329.184 149.551 328.617 149.879 327.961L149.996 327.715L150.477 328.078L150.359 328.324C149.938 329.16 149.516 329.875 149.094 330.469C148.68 331.062 148.27 331.547 147.863 331.922C147.457 332.297 147.059 332.57 146.668 332.742C146.285 332.914 145.914 333 145.555 333C145.047 333 144.594 332.895 144.195 332.684C143.797 332.473 143.461 332.188 143.188 331.828C142.914 331.461 142.703 331.039 142.555 330.562C142.414 330.078 142.344 329.57 142.344 329.039C142.344 328.195 142.457 327.43 142.684 326.742C142.918 326.047 143.219 325.453 143.586 324.961C143.953 324.469 144.367 324.086 144.828 323.812C145.289 323.539 145.754 323.402 146.223 323.402C146.582 323.402 146.883 323.453 147.125 323.555C147.367 323.656 147.562 323.785 147.711 323.941C147.859 324.098 147.965 324.266 148.027 324.445C148.09 324.625 148.121 324.797 148.121 324.961C148.121 325.125 148.086 325.297 148.016 325.477C147.945 325.648 147.84 325.812 147.699 325.969C147.566 326.117 147.406 326.254 147.219 326.379C147.031 326.496 146.82 326.582 146.586 326.637L146.469 326.309ZM157.109 330.094C157.109 330.539 157.148 330.914 157.227 331.219C157.305 331.523 157.441 331.676 157.637 331.676C157.754 331.676 157.879 331.621 158.012 331.512C158.152 331.395 158.312 331.207 158.492 330.949C158.672 330.691 158.875 330.359 159.102 329.953C159.336 329.539 159.602 329.035 159.898 328.441L160.25 327.715L160.73 328.078L160.379 328.805C160.051 329.461 159.742 330.051 159.453 330.574C159.172 331.09 158.902 331.527 158.645 331.887C158.387 332.246 158.133 332.523 157.883 332.719C157.641 332.906 157.398 333 157.156 333C156.898 333 156.68 332.93 156.5 332.789C156.328 332.648 156.184 332.457 156.066 332.215C155.949 331.965 155.859 331.68 155.797 331.359C155.734 331.031 155.691 330.684 155.668 330.316C155.48 330.691 155.273 331.043 155.047 331.371C154.82 331.691 154.582 331.973 154.332 332.215C154.09 332.457 153.836 332.648 153.57 332.789C153.305 332.93 153.039 333 152.773 333C152.383 333 152.004 332.918 151.637 332.754C151.27 332.59 150.941 332.34 150.652 332.004C150.371 331.668 150.145 331.246 149.973 330.738C149.801 330.223 149.715 329.617 149.715 328.922C149.715 328.109 149.82 327.367 150.031 326.695C150.242 326.016 150.527 325.434 150.887 324.949C151.246 324.457 151.66 324.078 152.129 323.812C152.598 323.539 153.09 323.402 153.605 323.402C153.918 323.402 154.207 323.473 154.473 323.613C154.738 323.754 154.969 323.926 155.164 324.129C155.367 324.324 155.535 324.535 155.668 324.762C155.801 324.98 155.891 325.168 155.938 325.324L156.078 324.188C156.094 324.039 156.164 323.914 156.289 323.812C156.422 323.711 156.566 323.633 156.723 323.578C156.879 323.516 157.031 323.473 157.18 323.449C157.328 323.418 157.434 323.402 157.496 323.402C157.59 323.402 157.652 323.418 157.684 323.449C157.715 323.48 157.73 323.543 157.73 323.637C157.73 323.754 157.695 323.992 157.625 324.352C157.562 324.703 157.492 325.156 157.414 325.711C157.344 326.258 157.273 326.902 157.203 327.645C157.141 328.387 157.109 329.203 157.109 330.094ZM155.82 327C155.82 326.641 155.766 326.289 155.656 325.945C155.547 325.594 155.398 325.285 155.211 325.02C155.023 324.746 154.805 324.527 154.555 324.363C154.312 324.199 154.055 324.117 153.781 324.117C153.445 324.117 153.129 324.215 152.832 324.41C152.543 324.598 152.289 324.867 152.07 325.219C151.859 325.562 151.691 325.98 151.566 326.473C151.441 326.957 151.379 327.492 151.379 328.078C151.379 329.25 151.562 330.145 151.93 330.762C152.297 331.371 152.785 331.676 153.395 331.676C153.66 331.676 153.934 331.57 154.215 331.359C154.504 331.141 154.766 330.832 155 330.434C155.242 330.027 155.438 329.535 155.586 328.957C155.742 328.379 155.82 327.727 155.82 327ZM161.785 325.605C161.918 325.316 162.078 325.039 162.266 324.773C162.453 324.508 162.668 324.273 162.91 324.07C163.152 323.867 163.422 323.707 163.719 323.59C164.016 323.465 164.34 323.402 164.691 323.402C165.16 323.402 165.574 323.516 165.934 323.742C166.293 323.961 166.594 324.258 166.836 324.633C167.078 325 167.262 325.43 167.387 325.922C167.512 326.406 167.574 326.91 167.574 327.434C167.574 328.238 167.492 328.965 167.328 329.613C167.172 330.254 166.957 330.816 166.684 331.301C167.105 330.98 167.531 330.555 167.961 330.023C168.398 329.492 168.828 328.805 169.25 327.961L169.367 327.715L169.848 328.078L169.73 328.324C169.371 329.043 168.977 329.691 168.547 330.27C168.117 330.848 167.66 331.34 167.176 331.746C166.699 332.145 166.199 332.453 165.676 332.672C165.152 332.891 164.617 333 164.07 333C163.586 333 163.137 332.895 162.723 332.684C162.316 332.473 162.004 332.211 161.785 331.898V337.441C161.785 337.738 161.762 337.984 161.715 338.18C161.676 338.383 161.605 338.543 161.504 338.66C161.41 338.785 161.281 338.871 161.117 338.918C160.953 338.973 160.754 339 160.52 339C160.34 339 160.215 338.969 160.145 338.906C160.074 338.852 160.039 338.762 160.039 338.637C160.039 338.582 160.047 338.484 160.062 338.344C160.078 338.203 160.094 337.988 160.109 337.699C160.125 337.418 160.141 337.043 160.156 336.574C160.172 336.113 160.18 335.523 160.18 334.805V328.324C160.18 327.457 160.176 326.766 160.168 326.25C160.16 325.727 160.152 325.32 160.145 325.031C160.137 324.734 160.129 324.523 160.121 324.398C160.113 324.273 160.109 324.164 160.109 324.07C160.109 323.992 160.148 323.914 160.227 323.836C160.305 323.758 160.406 323.688 160.531 323.625C160.656 323.562 160.789 323.512 160.93 323.473C161.078 323.426 161.219 323.402 161.352 323.402C161.484 323.402 161.59 323.438 161.668 323.508C161.746 323.578 161.785 323.703 161.785 323.883V325.605ZM164.07 324.434C163.742 324.434 163.438 324.547 163.156 324.773C162.883 325 162.645 325.293 162.441 325.652C162.246 326.004 162.09 326.395 161.973 326.824C161.863 327.254 161.809 327.672 161.809 328.078V329.426C161.809 329.848 161.863 330.23 161.973 330.574C162.09 330.918 162.242 331.211 162.43 331.453C162.617 331.695 162.836 331.883 163.086 332.016C163.344 332.141 163.613 332.203 163.895 332.203C164.559 332.203 165.059 331.859 165.395 331.172C165.738 330.484 165.91 329.406 165.91 327.938C165.91 327.438 165.875 326.973 165.805 326.543C165.734 326.113 165.625 325.742 165.477 325.43C165.328 325.117 165.137 324.875 164.902 324.703C164.668 324.523 164.391 324.434 164.07 324.434ZM172.824 331.676C173.098 331.676 173.375 331.605 173.656 331.465C173.945 331.324 174.234 331.105 174.523 330.809C174.82 330.512 175.125 330.129 175.438 329.66C175.75 329.184 176.07 328.617 176.398 327.961L176.516 327.715L176.996 328.078L176.879 328.324C176.457 329.16 176.035 329.875 175.613 330.469C175.199 331.062 174.789 331.547 174.383 331.922C173.984 332.297 173.59 332.57 173.199 332.742C172.809 332.914 172.434 333 172.074 333C171.566 333 171.113 332.895 170.715 332.684C170.316 332.473 169.98 332.188 169.707 331.828C169.434 331.461 169.227 331.039 169.086 330.562C168.938 330.078 168.863 329.57 168.863 329.039C168.863 328.195 168.98 327.43 169.215 326.742C169.441 326.047 169.746 325.453 170.129 324.961C170.52 324.469 170.961 324.086 171.453 323.812C171.945 323.539 172.457 323.402 172.988 323.402C173.527 323.402 173.938 323.539 174.219 323.812C174.508 324.086 174.652 324.43 174.652 324.844C174.652 325.242 174.539 325.617 174.312 325.969C174.086 326.312 173.777 326.652 173.387 326.988C173.004 327.316 172.559 327.645 172.051 327.973C171.543 328.293 171.008 328.625 170.445 328.969C170.5 329.375 170.594 329.746 170.727 330.082C170.859 330.41 171.027 330.695 171.23 330.938C171.434 331.172 171.668 331.355 171.934 331.488C172.199 331.613 172.496 331.676 172.824 331.676ZM173.188 325.195C173.188 324.883 173.102 324.637 172.93 324.457C172.766 324.277 172.562 324.188 172.32 324.188C172.117 324.188 171.902 324.262 171.676 324.41C171.449 324.551 171.242 324.781 171.055 325.102C170.867 325.414 170.711 325.816 170.586 326.309C170.461 326.801 170.398 327.398 170.398 328.102V328.371C170.664 328.23 170.957 328.047 171.277 327.82C171.605 327.586 171.91 327.328 172.191 327.047C172.473 326.766 172.707 326.469 172.895 326.156C173.09 325.836 173.188 325.516 173.188 325.195Z" fill="black"/>
<g id="cmd">
<path id="Vector" fill-rule="evenodd" clip-rule="evenodd" d="M5.86237 78H105.359C108.034 78 110.221 80.0903 110.221 82.6479V161.314C110.221 163.872 108.034 165.962 105.359 165.962H5.86237C3.18673 165.962 1 163.872 1 161.314V82.6479C1 80.0903 3.18673 78 5.86237 78ZM29.3031 110.756L45.1169 126.408L47.0191 128.218L45.1346 130.053L29.1608 146.24L24.654 141.992L38.7433 128.269L24.8318 115.047L29.3031 110.756ZM84.6469 145.476H49.6148V139.664H84.6469V145.476ZM34.9477 86.3527C37.7833 86.3527 40.0856 88.5534 40.0856 91.264C40.0856 93.9746 37.7833 96.1753 34.9477 96.1753C32.112 96.1753 29.8097 93.9746 29.8097 91.264C29.8097 88.5534 32.112 86.3527 34.9477 86.3527ZM17.8449 86.3527C20.6806 86.3527 22.9829 88.5534 22.9829 91.264C22.9829 93.9746 20.6806 96.1753 17.8449 96.1753C15.0093 96.1753 12.707 93.9746 12.707 91.264C12.707 88.5534 15.0004 86.3527 17.8449 86.3527ZM7.65798 82.5969H103.581C104.603 82.5969 105.439 83.3957 105.439 84.3728V99.9395H5.80014V84.3728C5.80014 83.3957 6.63572 82.5969 7.65798 82.5969Z" fill="black"/>
</g>
<g id="inkscape logo">
<path id="Vector_2" d="M128.737 220.021L93.6679 253.707C81.8189 267.48 101.732 265.878 110.268 269.845C113.33 272.783 98.5313 274.951 101.593 277.892C104.656 280.83 120.11 283.552 123.177 286.49C126.239 289.428 116.909 292.545 119.971 295.483C123.033 298.421 130.116 295.637 131.442 302.42C132.387 307.267 144.205 304.503 149.984 300.533C153.046 297.593 144.126 297.87 147.188 294.932C154.803 287.622 161.893 292.276 164.499 284.951C165.786 281.332 153.289 279.372 156.356 276.434C165.167 271.604 195.618 268.46 181.169 254.898L144.818 220.021C140.372 216.015 132.953 215.971 128.737 220.021ZM169.02 284.951C169.02 286.623 182.138 287.718 182.138 284.557C180.269 279.48 170.571 279.823 169.02 284.951ZM109.929 293.832C113.035 296.353 117.833 293.204 119.272 289.686C116.262 285.932 104.995 289.82 109.929 293.832ZM167.375 288.384C163.371 291.756 167.824 295.177 171.771 292.998C172.651 292.16 171.748 289.222 167.375 288.384Z" fill="black"/>
<path id="Vector_3" d="M120.345 271.668C121.282 272.214 135.457 274.917 138.921 275.456C140.122 275.694 139.271 276.855 137.616 277.639C133.883 278.571 115.776 271.668 120.345 271.668Z" fill="white"/>
<path id="Vector_4" d="M142.698 222.384L156.573 235.611C157.889 236.873 157.871 239.318 157.134 240.021L150.245 234.849L148.89 242.508L143.134 239.656L133.917 245.123L130.865 233.599L125.913 241.641H118.342C115.257 241.641 114.894 237.965 117.698 235.334C122.595 230.372 128.215 225.314 131.27 222.384C134.34 219.438 139.688 219.521 142.698 222.384Z" fill="white"/>
</g>
<g id="vscode">
<path id="Vector_5" d="M168.925 107.529C168.925 107.529 166.557 105.823 169.398 103.545L176.016 97.6266C176.016 97.6266 177.91 95.6342 179.912 97.3702L240.987 143.61V165.783C240.987 165.783 240.957 169.264 236.489 168.88L168.925 107.529Z" fill="#2489CA"/>
<path id="Vector_6" d="M184.667 121.822L168.925 136.133C168.925 136.133 167.307 137.337 168.925 139.487L176.233 146.135C176.233 146.135 177.969 147.999 180.534 145.878L197.223 133.224L184.667 121.822Z" fill="#1070B3"/>
<path id="Vector_7" d="M212.304 121.94L241.174 99.8952L240.987 77.8406C240.987 77.8406 239.754 73.0273 235.641 75.5326L197.223 110.498L212.304 121.94Z" fill="#0877B9"/>
<path id="Vector_8" d="M236.489 168.909C238.166 170.626 240.198 170.063 240.198 170.063L262.696 158.977C265.576 157.014 265.172 154.578 265.172 154.578V88.3748C265.172 85.4651 262.193 84.459 262.193 84.459L242.693 75.0592C238.432 72.4256 235.641 75.5326 235.641 75.5326C235.641 75.5326 239.231 72.9484 240.987 77.8407V165.378C240.987 165.98 240.858 166.572 240.602 167.104C240.089 168.14 238.975 169.107 236.302 168.702L236.489 168.909Z" fill="#3C99D4"/>
</g>
</g>
</svg>
